<mxfile host="65bd71144e">
    <diagram id="pXLRyRlwWdtLaBQeh6KL" name="Page-1">
        <mxGraphModel dx="1306" dy="579" grid="1" gridSize="10" guides="1" tooltips="1" connect="1" arrows="1" fold="1" page="1" pageScale="1" pageWidth="827" pageHeight="1169" math="0" shadow="0">
            <root>
                <mxCell id="0"/>
                <mxCell id="1" parent="0"/>
                <mxCell id="7" value="" style="swimlane;whiteSpace=wrap;html=1;" parent="1" vertex="1">
                    <mxGeometry x="260" y="40" width="1000" height="470" as="geometry"/>
                </mxCell>
                <mxCell id="8" value="&lt;font style=&quot;font-size: 18px;&quot;&gt;&lt;b&gt;Welcome Emre&#39;s kebab house&amp;nbsp;&amp;nbsp;&lt;/b&gt;&lt;/font&gt;" style="rounded=0;whiteSpace=wrap;html=1;" parent="7" vertex="1">
                    <mxGeometry x="180" y="40" width="400" height="60" as="geometry"/>
                </mxCell>
                <mxCell id="12" value="&lt;font style=&quot;font-size: 12px;&quot;&gt;Selected Turkish food tyoe&lt;/font&gt;" style="swimlane;fontStyle=0;childLayout=stackLayout;horizontal=1;startSize=30;horizontalStack=0;resizeParent=1;resizeParentMax=0;resizeLast=0;collapsible=1;marginBottom=0;whiteSpace=wrap;html=1;" parent="7" vertex="1" collapsed="1">
                    <mxGeometry x="84" y="130" width="180" height="30" as="geometry">
                        <mxRectangle x="84" y="130" width="140" height="260" as="alternateBounds"/>
                    </mxGeometry>
                </mxCell>
                <mxCell id="13" value="Adana Kebab&amp;nbsp;" style="text;strokeColor=none;fillColor=none;align=left;verticalAlign=middle;spacingLeft=4;spacingRight=4;overflow=hidden;points=[[0,0.5],[1,0.5]];portConstraint=eastwest;rotatable=0;whiteSpace=wrap;html=1;" parent="12" vertex="1">
                    <mxGeometry y="30" width="140" height="30" as="geometry"/>
                </mxCell>
                <mxCell id="14" value="Urfa Kebaba&amp;nbsp;" style="text;strokeColor=none;fillColor=none;align=left;verticalAlign=middle;spacingLeft=4;spacingRight=4;overflow=hidden;points=[[0,0.5],[1,0.5]];portConstraint=eastwest;rotatable=0;whiteSpace=wrap;html=1;" parent="12" vertex="1">
                    <mxGeometry y="60" width="140" height="30" as="geometry"/>
                </mxCell>
                <mxCell id="15" value="Iskender kebab&amp;nbsp;" style="text;strokeColor=none;fillColor=none;align=left;verticalAlign=middle;spacingLeft=4;spacingRight=4;overflow=hidden;points=[[0,0.5],[1,0.5]];portConstraint=eastwest;rotatable=0;whiteSpace=wrap;html=1;" parent="12" vertex="1">
                    <mxGeometry y="90" width="140" height="110" as="geometry"/>
                </mxCell>
                <mxCell id="17" value="Doner kebab&amp;nbsp;" style="text;strokeColor=none;fillColor=none;align=left;verticalAlign=middle;spacingLeft=4;spacingRight=4;overflow=hidden;points=[[0,0.5],[1,0.5]];portConstraint=eastwest;rotatable=0;whiteSpace=wrap;html=1;" parent="12" vertex="1">
                    <mxGeometry y="200" width="140" height="30" as="geometry"/>
                </mxCell>
                <mxCell id="16" value="Lahmajun&amp;nbsp;" style="text;strokeColor=none;fillColor=none;align=left;verticalAlign=middle;spacingLeft=4;spacingRight=4;overflow=hidden;points=[[0,0.5],[1,0.5]];portConstraint=eastwest;rotatable=0;whiteSpace=wrap;html=1;" parent="12" vertex="1">
                    <mxGeometry y="230" width="140" height="30" as="geometry"/>
                </mxCell>
                <mxCell id="18" value="" style="html=1;shadow=0;dashed=0;shape=mxgraph.bootstrap.radioButton2;labelPosition=right;verticalLabelPosition=middle;align=left;verticalAlign=middle;gradientColor=#DEDEDE;fillColor=#EDEDED;checked=0;spacing=5;checkedFill=#0085FC;checkedStroke=#ffffff;sketch=0;" parent="7" vertex="1">
                    <mxGeometry x="60" y="185" width="10" height="10" as="geometry"/>
                </mxCell>
                <mxCell id="19" value="Lage&amp;nbsp;" style="text;html=1;align=center;verticalAlign=middle;resizable=0;points=[];autosize=1;strokeColor=none;fillColor=none;" parent="7" vertex="1">
                    <mxGeometry x="80" y="175" width="50" height="30" as="geometry"/>
                </mxCell>
                <mxCell id="20" value="Medium" style="text;html=1;align=center;verticalAlign=middle;resizable=0;points=[];autosize=1;strokeColor=none;fillColor=none;" parent="7" vertex="1">
                    <mxGeometry x="170" y="170" width="70" height="30" as="geometry"/>
                </mxCell>
                <mxCell id="21" value="" style="html=1;shadow=0;dashed=0;shape=mxgraph.bootstrap.radioButton2;labelPosition=right;verticalLabelPosition=middle;align=left;verticalAlign=middle;gradientColor=#DEDEDE;fillColor=#EDEDED;checked=0;spacing=5;checkedFill=#0085FC;checkedStroke=#ffffff;sketch=0;" parent="7" vertex="1">
                    <mxGeometry x="160" y="185" width="10" height="10" as="geometry"/>
                </mxCell>
                <mxCell id="24" value="" style="html=1;shadow=0;dashed=0;shape=mxgraph.bootstrap.radioButton2;labelPosition=right;verticalLabelPosition=middle;align=left;verticalAlign=middle;gradientColor=#DEDEDE;fillColor=#EDEDED;checked=0;spacing=5;checkedFill=#0085FC;checkedStroke=#ffffff;sketch=0;" parent="7" vertex="1">
                    <mxGeometry x="240" y="180" width="10" height="10" as="geometry"/>
                </mxCell>
                <mxCell id="25" value="Small" style="text;html=1;align=center;verticalAlign=middle;resizable=0;points=[];autosize=1;strokeColor=none;fillColor=none;" parent="7" vertex="1">
                    <mxGeometry x="260" y="170" width="50" height="30" as="geometry"/>
                </mxCell>
                <mxCell id="28" value="See your total price&amp;nbsp;" style="rounded=0;whiteSpace=wrap;html=1;" parent="7" vertex="1">
                    <mxGeometry x="114" y="255" width="120" height="30" as="geometry"/>
                </mxCell>
                <mxCell id="31" value="" style="whiteSpace=wrap;html=1;aspect=fixed;" parent="7" vertex="1">
                    <mxGeometry x="330" y="137.5" width="265" height="265" as="geometry"/>
                </mxCell>
                <mxCell id="32" value="Menu&amp;nbsp;" style="rounded=0;whiteSpace=wrap;html=1;" parent="7" vertex="1">
                    <mxGeometry x="360" y="142.5" width="210" height="30" as="geometry"/>
                </mxCell>
                <mxCell id="33" value="" style="rounded=0;whiteSpace=wrap;html=1;" parent="7" vertex="1">
                    <mxGeometry x="360" y="182.5" width="210" height="210" as="geometry"/>
                </mxCell>
                <mxCell id="34" value="Adana Kebab&amp;nbsp;" style="rounded=0;whiteSpace=wrap;html=1;" parent="7" vertex="1">
                    <mxGeometry x="370" y="192.5" width="90" height="30" as="geometry"/>
                </mxCell>
                <mxCell id="35" value="$30.99" style="rounded=0;whiteSpace=wrap;html=1;" parent="7" vertex="1">
                    <mxGeometry x="467" y="192.5" width="90" height="30" as="geometry"/>
                </mxCell>
                <mxCell id="36" value="&lt;span style=&quot;color: rgb(0, 0, 0); text-align: left;&quot;&gt;Urfa Kebaba&amp;nbsp;&lt;/span&gt;" style="rounded=0;whiteSpace=wrap;html=1;" parent="7" vertex="1">
                    <mxGeometry x="370" y="232.5" width="90" height="30" as="geometry"/>
                </mxCell>
                <mxCell id="37" value="&lt;span style=&quot;color: rgb(0, 0, 0); text-align: left;&quot;&gt;Iskender kebab&amp;nbsp;&lt;/span&gt;" style="rounded=0;whiteSpace=wrap;html=1;" parent="7" vertex="1">
                    <mxGeometry x="370" y="272.5" width="90" height="30" as="geometry"/>
                </mxCell>
                <mxCell id="38" value="&lt;span style=&quot;color: rgb(0, 0, 0); text-align: left;&quot;&gt;Lahmajun&amp;nbsp;&lt;/span&gt;" style="rounded=0;whiteSpace=wrap;html=1;" parent="7" vertex="1">
                    <mxGeometry x="370" y="352.5" width="90" height="30" as="geometry"/>
                </mxCell>
                <mxCell id="39" value="$25.99" style="rounded=0;whiteSpace=wrap;html=1;" parent="7" vertex="1">
                    <mxGeometry x="467" y="232.5" width="90" height="30" as="geometry"/>
                </mxCell>
                <mxCell id="40" value="$35.99" style="rounded=0;whiteSpace=wrap;html=1;" parent="7" vertex="1">
                    <mxGeometry x="467" y="272.5" width="90" height="30" as="geometry"/>
                </mxCell>
                <mxCell id="41" value="Doner Kebab&amp;nbsp;" style="rounded=0;whiteSpace=wrap;html=1;" parent="7" vertex="1">
                    <mxGeometry x="370" y="312.5" width="90" height="30" as="geometry"/>
                </mxCell>
                <mxCell id="42" value="$20.99" style="rounded=0;whiteSpace=wrap;html=1;" parent="7" vertex="1">
                    <mxGeometry x="467" y="312.5" width="90" height="30" as="geometry"/>
                </mxCell>
                <mxCell id="43" value="10.99" style="rounded=0;whiteSpace=wrap;html=1;" parent="7" vertex="1">
                    <mxGeometry x="467" y="352.5" width="90" height="30" as="geometry"/>
                </mxCell>
                <mxCell id="46" value="$7.99" style="text;html=1;align=center;verticalAlign=middle;resizable=0;points=[];autosize=1;strokeColor=none;fillColor=none;" parent="7" vertex="1">
                    <mxGeometry x="80" y="195" width="50" height="30" as="geometry"/>
                </mxCell>
                <mxCell id="47" value="$5.99" style="text;html=1;align=center;verticalAlign=middle;resizable=0;points=[];autosize=1;strokeColor=none;fillColor=none;" parent="7" vertex="1">
                    <mxGeometry x="180" y="195" width="50" height="30" as="geometry"/>
                </mxCell>
                <mxCell id="49" value="2.99" style="text;html=1;align=center;verticalAlign=middle;resizable=0;points=[];autosize=1;strokeColor=none;fillColor=none;" parent="7" vertex="1">
                    <mxGeometry x="260" y="195" width="50" height="30" as="geometry"/>
                </mxCell>
                <mxCell id="50" value="" style="shape=image;verticalLabelPosition=bottom;labelBackgroundColor=default;verticalAlign=top;aspect=fixed;imageAspect=0;image=data:image/jpeg,/9j/2wBDAAUDBAQEAwUEBAQFBQUGBwwIBwcHBw8LCwkMEQ8SEhEPERETFhwXExQaFRERGCEYGh0dHx8fExciJCIeJBweHx7/2wBDAQUFBQcGBw4ICA4eFBEUHh4eHh4eHh4eHh4eHh4eHh4eHh4eHh4eHh4eHh4eHh4eHh4eHh4eHh4eHh4eHh4eHh7/wAARCAF3AfQDASIAAhEBAxEB/8QAHQAAAQQDAQEAAAAAAAAAAAAABgMEBQcAAggBCf/EAEgQAAIBAwMCBAQDBgMFBgYCAwECAwQFEQASIQYxEyJBUQcUYXEygZEVI0KhscFS0fAIJDNi4RZDcoKS8SU0RFOishdjwqPy/8QAGwEAAgMBAQEAAAAAAAAAAAAAAwQBAgUGAAf/xAA5EQABAwIEAwUHBAICAwEBAAABAAIDBBEFEiExE0FRImFxgZEGFDKhsdHwFSPB4TNCJPFSU2JDcv/aAAwDAQACEQMRAD8AHYxuGVG0+nPOtkj55GfodNTWIOIm2H0Zh/nrTw5pCZDK7EnkqxP+vy1zrp2BdKylkOp0TiMrHWMj7WjfllIyCD3Gtf2YtATBGR4QJZPoD6aSKKMASSZHAJOnTyVLIitIWVeFJUH+moFSy1ivOo5MwIWAxoNrbeOMDXryRqMMmkysgA5jz6sQRk6by01Qx3MA4PYA6gSxnmvGCUcktNMoXCBm5xweNZ0/TQp1JDWNTIHZSrtjuPr+mkVzGcsrd89taCsnimR05KsGIP8Alo8b2j4SguY7/YK7LKI2hyqjBA5zqfpgNp8o4HH56BOkbnHJFFsmQk58oIzo1p8uoJEiEd8+o07E4clEgW9VBE4IVVOe+grrjoqzX+keOtt1LM2OGZBkfY6PfLt28EYxgaj6uJWi3Kft99PMcQkpWNduuNviZ8L5LJJNVWzeYVyTEecfY6BulLVJc6mscpL4NFSS1M7qM7Aq8Z/PA11/1/bVqaKR3RScYb2GqctcUFs6V65sccaJLLRNURFVwWXswz644/XVXykaIAhsQQqiqIRLTrMMYIyde2S7PQT+HIxMJ4/8OnFvhaWlNPkGSNvw+4x31H3CkaNi20j3GrgZgjCeWlkbIzQo3lqkqIIyG3KecjnWpAJ/CD76DbTXSU7CN2JhB/8ATorim8RA4PHpqzbhdA3EBW9s79E6oKWJ6g5iQjB4I0rUUVMR/wAGP9Ne2thuk4PpzpaTkMPb6aG+5K6Kgp43U4JA1UStPHDA6KuB4hPHrwNKSxyJEXRhJH3we+PbSVTGGZySSN3GPtpKZ5aR3zvaFgMZOcavDcMWHUlrZS0DRSltMRWXyL+Jf4fXTtXUBlKLg9xt1E0EqMZQmFJwwIP9tOC8rEexPBGvOButqgkYIBp1Wl2pKN2jITYzfi28D9NRtRaIJOEkKn3YadXMyqEbJ0iszEKR3zzozHOA3WBiVJTSzuJZ/CaQ2Ookm2RlW4z+LGnB6aqjjLoPbzaf0EjCpUDP4TnUk0z7eMnXnSvvoj4bgdI+Ik336qCTplljJepHHoF0gbTTqRhnI9e2pmqrWRXJBGBqCkqXP5alj3nmh4jh1DCWhrb+KVNtpkGSGOPc6mYqSjjUOsSA4z9dDZqZXYAMO3Ol2vEicFSR6Aah5cV7DpKOmzEtAUrcqOCopZP3SZ2kg450MvQBSB2I/np9J1CFQqYnyR7aYyXUvnZExOPXUNzJXF56Gd7XNIutqeCLcqlc86kHqUUbUwB7DtqISWdvMqqONJzvMFLkjjUPzFK0tVFTNJYN1t1BKsoT/EDppQLUtJtp8ruOCcaReVpnG88Z07omleoEUKyO+MKiLoLhYLOkmEtRxAbXU/TW6VFy1e2/6AaexxSxxsZKkMMHjb31Cy09wp8PNTVCKfXbpGWtqlp3eKUuh8p9CPy0DIXFdCzEIYm/CduqdzxRugLoGPoRxps8cUZUjegHJxznTFblL2Jzj0I1789vPKgZ9Rq5a5ZHvULjdSFfSCSEkOJBjg+uoSipZKm5Q0ccbyvLMsaov4mJIAA+uiCIpJH5WGQP10W/7P8AQpP8YaNmpo5Vgimn8y5CkLgMPqCdeiJvZexSFukjV0u1MsMMcCIEVECBPRQBjGkGiY9vbUjI4dsEHJ+mkWIB2kEfU6YsVjXTLwtrcrjnvqnfizVPU9VRUkTZjghyfoWJP9ANXU/lJJYHAzrnvru4xxXy8175Z1l8KJew4wOf01RzC4gK7XhuqEerq+aplhstERvcYk2+g786kqanjpoI6ePGyJQBn31G2CkaN3uVWoNRN5hz2U+mNTvh4mQIN2RjkYBPrqJDc5RsFaMEDMea3poUUFnGc8HHc+2pUbIv3jDGBhCD66aQvHGviABsNj7j+2tK2eaRGDsWEf4vMNp9uPpnWpTuELL81nVAMz7cl69SdjYYk8gYPcn103QoC0YPm7NnuT6/fnTeeThQhGCxyv217TuYmVUBLMCTkcAY/rpaWUvNyjxxhgsFvJKaeIbXAcHI59TqKMs9URFCpxnP/U/bTnw2lMZPP/KfT+WpqyWsyVEeYjtZhg/wn6H2GvQwvndkYonmZAwvel7DZUhoQ9RGN7jIEhz5Q3fHrk8DUtc62OAsm2FFQcbRw2Mc4457n2GkrtcFoYBAsgU7jvAXsM5/LQoaqSpkaSSTKMoIUHg/lro/2sPjyN+Jcz+7iMud3whPnl+ZJdVfPhsWwAfX+X5aaPIXdkbIChQuRjSlPMylmDAITyGzggj003UsWOxSm7jw89wOePUaxppi83K24YRGLJ2ZYyoUx4bGGYHIP1x+ePy1okTNUssP7w7s98n69te0hEiM8hIVQzNknkc4yfrj+mntLES0kpjj2HbtIHPsBx39T+R1EUDpSFM1Q2ILSOBlQbIiFPIB5x/LWad1FXCrKsUUZUDG7xdu7k89+fvrNaQo47brNNY8m6MxHj0HOtjFjlVGdeCqpjjLFfc47aUElMV8kuCe5PGvkuYr6+AF6u4fxN9iM62QEDA2nn0J14IwSCJFYn6jSqQux451F1bKFtHJjkgdue2NboI927zLjtjt/lrRIXyeFJ+h/lrzwXHn2sp/XUXXrBKhVPdgBnPKnWohRznahHqRreIeIVgAkaUnChASzZ9AB30cdMfCzqe8yRmpWK2QP2aryHx/4Bz+uNHhilmNowSl6ieGnbmlcAq+elQsMBv/AE5xpxSz3VJhHb6+sWT0WGZ8n/ygnV52b4UdNUOHrzU3KUd97mOP/wBKnn8ydGVttlttsYjt9DTUij0hjC/zHJ1u02BVLtXuy/M/wuYq/amkj7MTS75D88lQtlo/i3KAaOK6Mh7GrEar/wD7MHRjaenPiZKgFwq+n4VzzuRmb/8ADA1anbvrMjW3DhLI93uPmsCo9pZpfhjaPJAJ6AqaqFkuN0pzu/EKenIH/wCTHUFUfALpSqrPm6m53kuUeNhHIiBlYYIPlJ1bWT/76zdx76dFJF0Wf+q1RPxW8FS8X+zN8M4plmAvhcDGf2hjP6Lrau/2bPhtVxlGF6TjutdyP1XVzbvfWpI0QU8Y/wBVYYhVG4Lzqud7h/sldDyg/JdRdQUh/wCcxSj+ag6GLr/so3mkRjYutKOrGOI6ymeI/wDqUsP5a6uY5OdJsX8QbQvh4O7PfPpj+eoMEY1sjxVU/Jy4Yv3wZ+KvTQkkm6fnradQCZrdMtSMe+0eYfpoGmqa6GeSCZpI5UO145E2up+oPI19HWbacqcEaFeuuheketaVoeo7JT1Mu3CVcY8Opi+qyDn9cjQH07eS3aPG54WhhJt3FfPuWrmaWUeIfKQf5akqNopYYJap/FhZsT+bBjAOP6c6tT4qfAC4dHtJdrVdZblZZGCtK8QElP7CQD05xuHH20BN8PbpPEZKWro5SODnKnSvvNPAcshse9FmbWVZMkJJHcUMU1VOszbZQylThiByAeNOYbvOpEbKileCMd/rqTboXqenYO1Akq7SAY5VP8jg6d9IdBXfqLre32espJ6Onk3yzysMDw41LsAfcgYH31R08DhdrgfNaFJUVlPF27hQV0rZJ44sCMMPQDn9NRyV8yEgqpx2412fbqHoxum36Ru/R9jmsrKVPhUixTxc/jSRRvDj0JJP11yh8VOjZeiOr5LO1Q9XQyxrU2+rddpngbsSP8QIKt9R9dUpqlkzslrFJ1tXUl3FzaKIpLpIJRlFzjT9LtLniNMY76HY8q476epJxkfppwxtKcw7EqgRkZuaf1tXLPEwO1T34Gokqx7knGnm9SD2+umrH1J0aNoCz8YqJXvaS5eRJ+8AAGcacMmONufbjSMZAkA08jjln/4aMTn0HfXn2G6thYMkZG+qj6peAwX15402KY0QtaamWEltiYHY8k6ZvRQxJl3JI/LQeK3kprMMqOJmy2B6phSoWO0kjjOka9liiZc+Y8Y04qJY0VvBUkkcEnULMWd+SWOhvchkmKMMdunvT1orb7dobbQR75pWx9FHqx+g1058N/hlZ7RAplgFVU4BeRxwT9NQvwI6HFotAuNamK6qwzZHKL6L/c6u+30iomR2OQSPX6awKmpMj8rdgtaioxEwPeNT8kM9Q9G2e7Wxqc0MEbFSFdV/Drnrrr4YXu1TvJSJ48QOQq9iPfXVtQFjB48rDH20P3qdCrxvsJX1x6arDKYjdGqIRKyy4or4Zqecx1dPJBIO4Zcf++m6jzcHIAzq+/iRardVK5EMZJPAI1U56cErusDMpzga1I5myDRYU1M6I6qFiqGUhg2CBrov/ZQs6CxXXqWZQZaicUsRI7IgBOPuW/lrm6rjekrJKdjlkO0/fXZ3wltB6c+HFltmGSX5cTzA9xJJ5m/TOPy0Vrdbock7i3KihmjyPKBrR443wQeSNKJKrnBUEe5GvJaeMjKeU/TREso+vTw6WZyAAqE5P21zPXqtZIsz5YPI0x57kk4/9tdFdYNPT9O17hshaeQ5z2wp1zhHVrJDHhQWAHbtjGqufYK7WE2Six+bZkhm9j6++l4Y9qbctIQuAe+c6ShyWUKMk57acoWjn8jiM47Z9NUhbrcokrtLBJVMhiVIgBk4GR9P89Jr4giVywBbIYk8n6a3kfdI288jsDzznn8tIFkZwZTwSScHGjvkJ2QGR2XkajZ4kjlQQQoxj11knKlVAywUD1ONeYkZymQCQdh9SMcY1K0lEolzPIGJRS6DBProlPSyVDrDZCqaplO27lrbaONjliD5fKzAjDZ/1/TUxV3FKCjZI5GR8jkAY4H8udNaquhpQIUkYkYJJPmHHODzxoZuFaXZULEemQcjOfpro28Kijszdc24SV8l37Lyrn8aoBw5RmJ5BAPuNaIywoFVgCSRxyP09NJos3j4XJO7twfXuBpwiFpJZSVwf4hxnkZwPfnWJLI6V1yt6GJsTQAt2kwke8ByxJ2gHcfT19NLRxFZBNuzsxls9j3A1tFTO4XA2nB5344/qc/TjS8KiBiFk4UA8YOQR7+nPGjQ0hcbuS89WG6NS8MW5Uc/ukK+Gdw5BJyPvjnTlZsUskkURVY1YZY+V8nGVB7EgjtzjTZXWn27mV5MgbiMZOc+nt/bSAn229ymIyx80i8hgfYen3+mtVgawaLJkLpDqlZGePaqNGo2jIaYD9ORx6flrNNo56hi5jR1Tdxh8ZGO+s17ihV4bkaR5zlxuI9TrxgpJJjyB2JGNKMlPuy8KowBx6a12RtuMJeP6hiRr5LovsQBXseD3zkdvMdbpMybgkkgPrg61WNNmN8gOefPnWwj5yskrsTtVUG4sT2AHfOeONVsFa5CXSvqIsbpmKj3PGrG+Hnw66l6jMdbdHa0WyQgqZI/94mB7bEP4R/zN+h0V/Cr4WU9mWC+dSx/M3QqHho5ADHSHuCw7NJ2+i/U86tTeSSSck9z766HD8CDwJJ/T7rlMV9pDETFT6nr9lGdO9L2TpxfDttAkUo8rTud8zfdz/bA1MNjSZbjXjNrp4oGRNDWCwXFTzy1D80hJPelAV824kccYGedJswHfGkpJPtpCSdQT3P20UC26q2Fzk6L49NeFnABKkA9sjGdM2qnBzGQnORgZI/PSbySyndLI7k+rEnVDILpplFpqnjVCqOWA1qapf8AFnnTPHPGswOx/XXuIAjCmA2TwVC++vfGBPJOmFTRxVlO1POX8NgVYKxXIIII4++soKKC3UEFFSoUp4ECRgsWKj05JydCNQQ+xGnVHFMzJcHXopESIyZDNu/ljWM+fpnTcDJJzgemt8evrq+YOFwoDMui8Y59dITswAKDcc9s4wPfSjH003mlC5PvpKd+icgZqtmaMq8M0aTQygpJG65V1PcEeuufPiD01T9LdXVNupw60jhailPqI3zhc/Qgr+Q1eU9TucKD68DOpj/srZ7hf6G/XGLx6ugpvBhR+UTLbt2PVvb21mT03v0eW9iOf1WnBXDDpA86g30+ipvpb4XdQ3uxJc2rIbeZXIjp6yN95Qdm+mfY6H+tVPwhudpunVU9vnjmnwtNSyl55I8EOypgEAAk7jxkAat347fFi1/Da1LGqx19/q1JoaDdjj/7kmPwoP1PYa5BobZ1j8TOr6i6VcslyulW372rkB8OFc8Ko7Io9AP56C7CaZlgL3HNOw4pVTAufYNP0XQdciJMs1PPHPDIA8UqHyyKwyrj3BBBH31C9eWC19T2iBq63w1b0jM8W8BmTIAdQB5gDtz7caLrd0FcemvhtbaapqZK0UQ8EysuCiE5Uf8AhUkgewxnUFSEpV7C0ih2KSbMDcp4I+vHp9NBqI3x3adCEOnmY8h7dQqom+HnSE7b0pHgPf8Adysv/TUfU/Ci0yndR3GthJ/hyrgH9Bq1PiP1RQ2/qSKzVfTFit4hSOVqpNymrVlHmJRgFBIbOAcHVr2n4ZdK9R2CgvNCbpbRWwLKIvEEgTPpllyR/bSkUeIE/tS3/O8LVdW0MYvJHlv0H2XH1Z8J65WIp7tEw9pIWX+mdREvw46hgPlSnqfbwpsZ/XGuzKv4JOrKaPqBOTgianI/mp1WnVllqLFfam0TVUVVLT43SwE7QSM45HceurS1+J0jc0oFvL+FaOPDK5wDDcjx/lc6jpO90kivNY6vCsMlU3jv9NSDwVEWfEp5YFA5DRlf7aubD5JfP6ZB0oQzoVURnI7lc6B+vyP+No9Vt0McdGCGDdUFdbrTUkDr4iFsYAB5OhdJZqtyNrH2AzrpurslsrAPnbTb6kH1enUn9caip+gemGDGOywxbv8A7LlMfodNQ45CBYtN0pXMmqpQS4Bo5c1z7VUhEDF2yxHYdtT3we6W/b3Uy1VSgNFRsGbI4Z/Qf31Ztf8ADSxTBgguVKwHpIrj+Y1NdC2yg6SoEpYlkmUOWdjgMxPrq02KskZZh3SMmHM4jXDYKx7RQMkUUcZ2+px2GiOniMdNsZ9wGRnGNClu6stasrSU9XCVA/gDD+R1Kp1PZ54G/wB8VOfLvRgce5yNAiLLaFWeXJe6TKsTBcZ24OfTQB1PXoofa3JGie53CkeHEdRFNnjysNV11VKJCy5AJHpopaDshB3VCN7nNTNljke2tOmumqq9VvytJ+7VuJJiMiMf3OkblMsSSSkghBk6tb4UJSzdDUFxp4wrVSF5GJ5LZIOf01pU0Ja26x62cOdYLOkvhn0Z05P83BbRV1nf5isPiMG91B4GjXxBuyMZ+umBLAcZ+mtBO0ZwQSNNC6zinz4wcEA/Q608WVOzZ+mkFnyMkD9dJPUjbgd/vqbqLJj1TO1Ta6ukYEGWmlH38h/z1zBbmEUIYu2/tt9gNdMSSCouOD5kVOeM99c1XujktnUtfQHLGKd9mDyVJyNCOqK3RSNHKJARJnBBwCM40v8AMkNID5QqbVbGc57fl/nqHp5m2cAkP2G38tLxS7IpA5bBwCDyeP7aI0E6KrjzTzxV3EbwpwASBxnHOvI1eUkhc4BCjPJ1rTQSSyIQdgyWBHBPH10/jaCAMFUsCSo2qBg/1PHP56cgpc5u7ZJT1WQWbuncMFPTwNJPy4x698j+WvLhc0AkMMaIjv2X1AHbPqP5aZT1m3ahkXOchc4xj2/LTGZ90+U2gcvyeV+nHfWvxRE3KwLI4LpXZnleVckksZmDM27AB7H89IDmNRgO+T+JvT2B/tpSNJZYyEJOcgkDOP8Arp5DEAscw4ZWLRLnIUZ5++knB0hTrS2MJKkhAEjo5ChFDNk+T0JGn9OERizq+0t5cDd+fPppu21qmSZXYnaGIK/iPqPp99IQs9S6wry7MduOfbgc8aNGxrEKSRz07kmAZlEe0vgHGThM+n39edarLlnCBefKiAZH6DWyuMurY2quRg5JPGCPTPH/AE00WMKgCt5gD67S2fccY/L30cvKXDAnE0jSzBWMaNIRGBJ3+hJ/vrSOPESsHbc0hVRkcDAOcfy14hzJtYFSnIwPX1yPXPbS4ZWpzG6hQH8ued3fgnuBqNXKdAm1TI3ikpKcH1bBJ5x/bWacpDEUAV3G3g4UcnP56zXsjlUvCtN6mklH76JWB4O6MMNeiksc2SYI1JPdSU1GNSyquY2A9iDpNlqo8nLkD3518mLDyK+vXB5KXeyULndBVThscZYNqwPgF0VF+2p+qK+Q1UVCfCoEZMBZyMtIfcqpAHsWz6DVRyVM6kkgfkMa6M+Bc8UnwqtbRkbzNU+Ng58/it/bbrWwSDi1YD9QNVj49OYaNxZoToj7fr3d3401EmthINfQMq+a5LpcsR6jWjPjvrRmHvpMtv4AJ9ABobnhqYiguVrK7MeOBpnFSslRJLJW1UpY5CMyhV+gAH9dAPxO+Lln6UmktNqiS8XtfK0St+5p29pGHdv+VfzI1XFg6k+L3W12RbZfZ6cFvxU0KRU0QzzhcEvj3Y4++syomY4gO1Pctamhe0Et0HeujirHKqWjz/EMZ7a8VNkaqXZsDBZiMn6nWU6zLTQJUSLLULGomkRdod8AFsegJ5xpQgdsZOPbRwADdBJ0stCRjB41sAMZwMa9wSvtrfaG9M6kgFeBstV9Dn9NbJnkE5/LXowMccfTWyjjtzqyhedxk63b2zwNeHygDBOfr20nLIkakt6a8SAF4C5WlQwXsMajpN8zkJwnq3+WnDb5iWY7Y/5nTyloN0PzNU4pqVBnc3BI+ms2S8rrNToeyBueQ2SFqoYZGM8iBKeA73dvXHpnQL8Yfiyeh7BXXC30ora93WKFGP7qFmztZ/fAGdo/PA0+6361WdDa7IDHTRnDygdyPb66B+m+kP8At7e6Wsq6Nay1UMrNTBzup2m/ifH/AH8npnPhp7ucjWm2mFLCWn4j8litqjXVAldoxvzVY/Dv4c9UfEjqBuqOq6isK1j+LLPKMTVP/hB/AmOAewHYHXXHQXQ1p6ctsUNPSJBHGvCgcn657/medTdjs9La4F8oaTGSc559yfU/6GNQfxO+JXSfw9t3zfU1zWKd13U9DGQ1RP8A+FM8D/mbA0pZse2/X7LRfJLVnKNG9OviiS+z2ymsdbLdpoKW2xwN8xJM4RI48ckk9tUDQ1FuulHR32xVa11vrlLUtSV270DEYIP4XDKVI9CPY6Aurbh8Vfj7V+FR25rD0ismYEqCUhb2dz+KZvsNo9PfVrdC/B+Xoj4Z1VFBc6y4yrVGtZZlCqGKhZBGvdQwCnknJUHSNbTPkj4gFrfNPU0kVM4RZruPIckndPh/YviJV9N3C7yNCbdUmCrVFwJ0bJSNvYFgoyPoPXV5Ihjgjgp4tsaqAPoNVF8OLrB89Lba1iiVMfhEjuvs35HBz6asy49Q09o6ekuVxKrNAxikjHcyjggfQ/i+xGkcImyMdG7/AFPyRMTjLpGvGt/qo/r3qKLp20SMr7q6Rf3Sg/hz641znWy1VZVyVNVK8srsSWZRzqX6nul06hvElwaqVQ7HaokyoHpwfpqNeEpk1D5lA4Kf5DWJi2Ie9SZWnsj8uumwfDvc48zh2zv3dya7SADkD7a9VlcfhBwe+kz4hfyFl9Mhef01qrGMYdt+e+PTWRlWznSjuR5Qnfvj00iI3BaQyTZHIGOPpnS8TrxgbgOeDrV54kysgALdsr9PfV2CxQ3m6gg1dDWOGqGdOMgHnUisSMARkg9lc5/nr1hFI5BjQk/4V4/M6USCJiWRdu32JGf56PnuhWTSWlTBSWmDeoBHB/PTUiaLjwakA8+V9w1LRKyMP3koj743c6cnwAct69spyfpkau16ghQkFS24jY5IHdgudL+N44CiiR/UbkIyfuDqSeOldvLNHxgY3dvpyNIy2+Av/wBypzwVfB/lo7HdEB4Cay9NWu4QH5y1UxZj6f2xjUtYLaLFbYbba4BDRR5KxHLbcnJ5OTre3JUUTKwkMqZ5VhnGpJaqN8Bg0R9mXj9dasEsjRa5ssueKNxvlCxahuzKM49++lx+8Unb20gUDOCpGCe4Ofy0ojbRtkQn7emtAVDlnupWFeFSO3OffjSU6OYz+7J9OBnUkkkRiAOAM8A68enAXfFKB9DyNT711VfdByKgbfQu9XJNKpSPgBexbVZ/H/pcRPTdT0FMdka+DWIi8AfwucenoTqwepKieaPwIhIiKeWU8N+Y50JVdqqqqnkp4rvcadXUqVSpYhgRyCpJGPy0k+va2S6dZQExWG6qClCvCVyS3dMDtp78vmJZSyqnbPfU7P8ADy8UIJoqzxYxyN4DHUVV2a+wEq0UTBfQgrrZp62lf/ssapo6ph+FJxskDCPlm75A3c+2k5pCshADAk4IP9dJTQ3dZTmjWTPoJf8AWdIzz1qktJbp0J9QAf6a0m1MRFg4LMdTSg3LU6XONmGwzcOSOx7a0eIeJgYRR3wO/wBc6ZtccLhoJUG3sUPf3++kmu1Mq5dnU4x/wjjVs7TzVQxw5KW3rFMrFV839/6a8aXLBSuWDHHoPvqKN5tWD+/BJ5O9Sdeftu3KWxWZ9vK2rcVo5qOE48lJbmLkRAFhnHuQfU62BlT9yEUMvrnAA+mogX22K2TNK7Ad9hOef8teN1FbUOFNU49Rs9fzOo4req9wn8gphiZGCKqhcDzAYGPb751v5zEsaRg5bLlhyQPqdQcvVdMZN0FHO7kbVDED0x6Z1N25LtVRmeZKa3xNztYGR/0JAGqvrIYxdzlaOinlNmtTiGMruCh2kPOSMgDOloCAgDPt/hKjuPr7jOtEplLBZZZ6knv4r7VA+irgfrnTlSqDagUADgAf0A0m7GW7Rtunm4G615XWXpijcDxGdiBgFVOMfy1mtPn41JDOuc+vprNC/V6n/wAQi/o1J/5FWXvBGC2foy5zrQkEeVUbPscY1iwOpGyR8EEnAzjXjrMBjysfQldcIu70SU6BgwKOAfZs6sX4D9U0tvqJulK+Two6qYz0UjjAEpGHjJ/5sAj6599VvUEr+KMA/Q9/t9dex9OXu7Qk09K0CAErJUSeGv0x6n8hpmkqJKeUSM5JatgjqITG/YrqyVZUYqFJIUsQBnA0mJsHzDH31T3R/wASL305bxbOqXhvaxALDUU7Mk4X/CxcANj34Ojfpf4mdM9RXAUEElXQVDZ2itiVY2+niBioP3xruIMTilbcmy4SfDZInWAujGJ0c9x79+P11z58bPjJXVck3TXw8ldaUu1PW3uJSS78boacj15HmHJzxgcmP+OvxRqOp6tuiOinqHtsrGKpqqVSJLlIDgxREdogeSx/Fj20TfBT4Nw2m30dyvzwzVKoHggBykeecD3Pu/r2GByYmndIcsaiKENF3oe+Ffwakr0hrr/L4dKRuMKnJ78qx/iY+uPKOxLHgdC2W22+z0SUNqpEpadcDAHLY9z663CmIBSYVVQAFVguB7Aeg1rNcUhBxE7n6YOoggkve2qmedlrX0T3GSMc68ECeKJSg8QLt3euO+NM6a6PI3NLIF9wh07WqQ9kkHv5dNOaW6FLNcHahbheOca3GCdIGdfYg/UgaUjFRKf3NM7k+oU/5agvAV8pShAA41qzBVyxAH10oKKsb/iyQw59GkAP6DJ1E3u99I9OoZb71JR05H8HiAMfsOWP5DUZnH4QhOmhZo52vQap28x4Ea49i3b/AK6XprbVVB3tHtXuXlGAPsNVVeP9oLp6mrEt3RfTdwvtylbZAGTwldvcFssR+Q1NU9T1XcqU1vV92hSVhuajo8x00A/w990h+rHHsBosFE+pOp0WfXY0yjZcM1O190a1dxtdsLCLFwqV9c+RT/r76rjrTqa7XKoERcSQbvOqkqgH+EY7/fWtdW+PmGn3JTjg+jP/AJDTOQoqbNuSeFXW6yjho2ZhuuabVVWISgyHTopLpzpWn6naNJ42jtsf/FpVOBO2Rw7Dnwx/gH4ieeBg3BSw22wWh5Xkp6OjpYt008m2OOKNRyfZVA1C/Cqw1lvsby1gKvVyCRIiPwDGP1Oq46ges+M3X1PZ7WFl+HtqndK2Q5RK6qTdhgQf3kakeUcAlTnIOucrKpuew5ldpSUbsgzbBOqjr/rj4lVr234T0aWqyqcSdTXGDLSD1NPCew9nb8gNK9N/Bfpaz3lrneHqereo5BvkuN1k8di//Kp8o1acK09FTR2eyU0cUMY2nYuAPc8eupC30S0+0tgyFcbvfVWftjM7dVmnfL+3AbDmUzttppqZFkmTLADYnov0xqTG1mcOnDLyh9R668dwCAOc99vfSZkAUTyOqLGpMjNwoA9c/bVHuc83KLFE2JunqqT+IVnl6Z6oWqpMpTSnxIWx2BOdvHscnTj4uSPdejbf1NSyPJEsqw18a5ILEYST78AH8vbTT4q/EO31F4pbY6brbG5SSbA3IGx+9A9hwceoz9NPOip4WFx6JvfNJXIYN5byqSPKR9O2NcpXsa2R3DOmx/O5dPSPfkZJI3vCqZpoWPikTADnIGCP763euPIirHVuw3gMP5jOoq8U1yst5rbLVbVqqGYwy4YgMAeG+xGD+eom8r1MZaWa1y280qxO08dRVLESwbgb2Kntgjacnn21lQ0hlfl0HiujkqGxsz6kdyLRWtsVpGp5HI/EpHP31j1DhC7UgzuAxuxkfQj++gChqOuKy4P4VnuU0cjlUio2WrX38qksSOO4Op2iqK+PC3OjqKMHOWq7ZJDxnHfGDj3zo8mFvZsQfAoDcSYdwfRTklZReXdDPC49vMD+mknrKJm2+IrEchSpGpWLpWsqoUnttxs1aWUExxV3huO3dX4GfvqFvdvuVkr3pbjBPSTHkF3Dr9CGUlSPz0D3V7eSKKqN+xSiLTszGGdQcZzu/TvrXw54HB8SF1ODk+gPpnUZ4krNhJoJxjkDacHXolqIsnwmGee3AH1wdVDES6fNWIr7cKF9O+CfXB9dbxViED94AMep0X9BfDTqnqWCOskRLXbJTuWapLGRx/iSMjJHPclR99Wr0/8ABXpKlAlq6ea6zDgvVyYT8kTA/XOtODC5ZRmIsO9ZFVjNPA7IDmPQfllQbCKVt5aJ/wDzd/10vAsbHCRxD/wt666loujbLbYz8hZbVAO48OlUHPv2769CRo2FijX/AMKAa1IcGH/n8v7WFVe03CNjEfVc10sdSdm2JmUNk+Xkj740tPTVctUWSGoVM8YjJGugpbzTKK5I3M09CVEsCEByWAKgZIByDp4ZJQMPuVscjOnI8NYTZr7pebG5WsD3RWB6nzXOoobkmCtBMcdisLf2GvWiuUed9vqefVqdj+Wca6EnqBDG0ksyxRqMszvgAfU6j7ZfKC6VEsNDV+MYzjeAQrH/AJT/ABflojqOFjgxz7EoUeL1MrC9kBLRueX0VGpPUrgvSTAeuFI/qNI19yplUo07QMQeXG0frq+JbvUx9SwWj5KoMUkEkrVRHkBXso/66eM+RgqGH1UH+uhMoWVGYRv2NjpzRpcYdS5TNHbMLjXkuYy0T4KVMTZ5BMoOtJIlZR4rI3OAxwddKz0tHLxLQ0kn0aBT/bTKew2GfiayWxge/wDu6jn8tLP9nJDtJ8keP2sh5xn1XOhgVB5DJj2Vs/102qIA7lGj3gDvIg/troOo6I6TmwTZIoz7xO6f0Oout+GnTNQp2S3On9ttRux+oOgH2fqm/CQU032no3fECPJc/Vlpp5P/AKaFmP8AhbGdRlR0+m3Py7DJyBxjV+VvwphZCKO/yA54+Zpg2PzUjUJW/CzqJAflqq1VQ9/EaMn8iP76ocPr4t2XRW4phs2zwPHRUbNYISMmNhg9iumU/TtMWIWJOfpq37l0R1bRrmfp+eRV7vTFZR/+JJ/lodrKN6eUrVUzwODjbMjIf5gaC6WaL42kJlsUM3+NwPgqxqulYy2WpQ/t5QdMJ+kredxkoVB+xGrVlpM5YIp5wDn/AC0jLbsnKsST3BIOpbXHqodQjoqlfom2PnEcyN7LJ2/I6aydCUjEhaqoiPucMP041bT0RX8UCOAMbiukZaSBRl6XA7jacaO2sd1S7qMDkqutfRr26qE6zrUMD5GZMY/LnnUjW0V6YeSJJPQ4fGNGzU1I7AhZR+WkBDGamVBMQNoKEjI9QR/TVuJnN3KWgxCzUOwW+GlpVqKszzzY5jjXgaSNJV1cchJFJCT+AcuR/bRVGOSomQfQnH9da1MMiSBW2HIzgEaYbM1o2S72PduUKxUtBToI/Aic9y0hyxP11miCSFQ5DU6g+v7oH+2s1f3lvRC4B6q8aH4V9S1MP+8VlDQKQDtlmMrfXhAR/PUm/wAJ6ShoqmuuvVYEMEbSytT24DCqOcbnHPp276su5VtHbaP5y41lPRUw/wC9qJBGn2BPc/QaGpOt+kLvR1dBDUVV0glgeOUUtMwUqRggO+0ZxyOfbTL8Fw+nbd59SkWY7iFQ7sD0H/aqXp2NYbw60EOSS+2adAz49FBxhSeBkcZ9dHF6gam6dNT4LeL4fnDOCVOD2IznDY5xoUpL8OnZXjltEdepyPm9/gyn2LKCylj64wM6SretrdG6w3WSvoZKhT8vG8Y2NjsdxBIH1AI+2uX4Ej5MsbbrpXTsa3NI5Adb40dY09VBFVhWJKySEL+ZUqf6alOlqe4UqreqqmaGgwY6dzH5ZnYEALnuozknt2Hroh6R6o6PF9SmvfSTPVEjbLPUmZAT2IQBR9c/XRb8UYJLjbfHRY4Yk42RjAx6YxwB9NdLSYNLJEXvIsOQXO1WORRVDYQ03dzOypjrm4n4fXyln6YtVK9VcY/mJKmqXxI40VtppolGNq7vMfowHbTuj/2geokUNc+mqKoOcs1PO0Z/Qg6IDYLZ1nBbbTdqtqTxpmhgqwcilqXAVC4/ijZgqMOPxKQRjVb37pSrst5rLNc4vlKyjkaKeJskZHqreqkYIPsRqslVNSuzMNgUzHSw1TcsguQrQtf+09ZlQLXdGVg2jvHIj/3GpSP/AGm+hHBMvTF1RvUeAp//AM9UBUdPZJKOCc9iRpL/ALLSyEEDd9hqW4q/nZVdhTOV10Sf9p7oQcx9MXTjjiED8+ZNN5/9qGwD/wCS6Sq2I/8AuNGv9zrn1umGUqpJHfAzzpeHppWGWRsgf4dW/Uz3Kv6WO/1V0Vf+1HdCrC29MUsBIxmSozx9Qqj+uoG4f7QXXlehEU1FSAnP7qnLH9XJH8tAEfTlOm3/AIRyMnuNOoLIM/uk9ey+uqHE3cjb0UjCIzu2/jqpK4dd9bXtdlZ1DcZUbuizeGh/JMDTawWK8X+7xW2205qayc/hH8K+ru3oo9SdT3RXQN+6svcVns8TeIfPNNLxHAmeXY+3sO5PbXTtq6V6R+FnTS08Ylqaqf8AG5x8xWyD14/Cg/QD3Oi0z31TwXO0QKxjKOMiNgzegHeUH9C9DWP4f2p55JFqrnMAKisK8n/+uMei/Tue51vdK2orX3Sfu4QcrGD/AF+utLrV3a4VjVbWuaZMeRKbBEQz2Ckg/n66hOqeorH03aP2hXyy1ExfalIEaNj7kkjsO3GeddYypgpI9Tay4X9KqKyfMe048/zZPVMssixQRlmJwMD11YvT/Tlo6UtL9U9ZV1LTRwIHZ6lwscA9M57nkcaBfhZ8UOg6yWRqSkuNTdV4SN4UWCMn+EMGYjP+IjJwe3bQb8Yai7fEKvMF+qK+jipql4qK00+0mok5CSuBnbHk9++BnlmAGXU13vN+G64XRUmGmjtxG2KcfE74+y9XPL090gktDZpGMc9TIQtRWIM7lUfwRnGO+4/Tto//ANnSSsa0TW8eHFHHFCsEMeAI0IbLYHbJ/prlab4c3Siq5ayjrKa7W6hkUVssTOEI37WCKPO2OVO0AhjgZIOuofh1W9AdA364XKSuSzx1kMcPhfvnRhGxwyrtJBO4ZJPfAx31ggFlQ17+V9/Bb7mGWmc1ndsruoKaKmjXksxGW47nS7HftCkrj10E2/4p/D+5VMVPQ9QrUTSqXUClmICgZJJCkL+elepfiJ0tZUghe6LX11RGJqaiocSzzRkhdwGQqgckliOx9dNmeN+uZKspHx2Ab8kXeHjzSPnLYwO2dVl8Weq6c7rLFJL8rE+KhojzI47R/wDhHBPucD31tdviTUz2mseGwXO1+gqqlomCIQf3m1GLDOMduCRqoblDU1dQZXxt7IAxxjvkfX1z66zcUrxTw5WntHZaOGYc6pnzSDst+Z+yTrKe31cjSG4VAmY5Z5Y1fd/TGiCxTk0af7yk1VQAFWUctAMYzn+JM/8ApI/w6EZqSpUlQxC45UMTz9Dg61p5rjbKyG40siNJA4YK2CrjsytyOCMg/Q65KKYtfcm4O666ogEkdhuNkc/Fm2w3v9mdW0sSu06CjrgOT4yrlSce65H5DQDLROVKvTsqKSdokzj6gEasekkoJ7JW26nkMdrvEYkh8TloZARgZ77kYFT79/XVbG419JUSUtSG8eCQo8bY4K5BGPvq9RG6M3bslqCQOZkdySM1upy+Vpcsw/GoUkf+buNOqO7X62Ei03+8UeFwkcVVIEAH0JK9/TGtGvIGBLEnYE7l2/lrw3SjlA8SFgc5G08DQM7xuE66JjtwpuPrbqCtbZemsl9wmW/aVqiY57ZDoEYH89MqC+0UTSqtmnpFZgXWirhJFkH/AO1Uh8evAcd/pqONwoJiyNPMRkBdwye/0/rprWPTyZMTRMEGe2D+ee+jR1ssZuCUu/DoHj4VNzVvR9XGTVQJFIWLb2pWp2Xk8ZUunoOdw7/pK9H23p623am6keA3ejiBkhhndhAzZ4feAVYjB4Y4yc+2q9rKAtiCni2zztsBBJOWIHp27661XpG20vTFBaqCIU3yMCRRtEdpbaMHOO+Tk8+p102DStrnnjAac7Ll/aAnC4QYnHtcr8kjZPiX03XBPmJJaFnHBkAeM/8AnTK/rjRYt9oIrY1bFVQTU+cCVJAyA/UjVenpiyVaSRVlsiNUikqy/u2dsceZcY7Aahbt0DWpQPcen62pWURlmt9RGrsxH8Ab1+hJ1u1cQZdoNja97G355rnsPtIWyN1bfqL68vwKwumeuKXqGmrJaeaKA0jESJuzhPR8n0yCPy0JXn4qdPUdV8vTJWV7GXwjJBGPDB7EliewP99VXNUwwxzzXe3z0RamaGeoiidUWNjyr7AwBzjuPXQn/wBlrU9FUXSzdd2VWClTT1zItRNjAAVd6kHBPOB3HrrDbW1DAGscw9Tzv4cl0smF0U0hfM14HIG9h5i9/kiC+37Z8QbneoLgss90aRIKeJhtheIAKrgjJYnHoBj76W6c+Jlx6bkobSj1fhoyLLSHNTtdiOCT2DEk8HjOPTVbU1V4F7nFTESkhAVpZ4kCgDAJkZgAQMfp768qay4mQVFC9IkkcjzqIqxZmUEDOUjGWUYz5icE6WZHPmNtD1uth8lMWBsvaAFrW5cuSuD4o9f38UMtBUUVOI7hCRTCJvPDkBWHfOeTyRjvjUh0J1rTdOdOimVIblP4O6EQJ56dtuAsh9V/FyOdAHwp6goaexXi81Utbc5bYImaV0CgeI+3ZDFkZP4mZiDwPTU9fOrKjq3pWob4bVNKL7RN49bbKiki31UGGBG1/wARUgnyEnv9NONobudNxu1bn91k/qUbGCmMHYvy0Hp9ddU6rPib1fP1TboZq2K3UtW6FQtP5TCDhjkgn0JI9eOdTV16+vVo68qunor1b7hSJBHItYUDruYZ2rg8tyMjnVJWHqmy11ft6mom6fqRHsglM0slJFMD2OcvED6ht4HY4Hafu1krorhLQPQJIX2zQVNMyGN4Jf8AvgeQUzwCM857dtJPiq6W7nvdbrc+a1qd2HVhDQxu3w2HkugbF1va6vFPX1UcM5/4bhTiX34AIH686LCmVGOx5++uUqOWosUtBmolMJaUlouC0mMbyGJwQc9iN2Rxq3rP8XbclLTwVVO0gVQiyruRnH+IgggHGDgHWrRYzbszHQDdc/i3s0xzg+kGpOreXkrMdNww2ePbUHPQ3etvpmqK401DTurQRwH/AIwxyH/PTmw9RWy+zOlA0pIUOviJt3r7jn+R51KSZUHjnHb1OtfLBWtDmuuL8jvbqudZ71QPdG9ljbS42v0SFTIsaPLIwRFBZmPYAd9NxVwfIpXrNG1K8YkWbOEKkZ3Z7Y+uq2+JHWdypeoU6dpphRPUQExAoN1SxyMBj5VUepPPPA1QdjulT/2gvNlZJloFQxSIZfGjjRfXevlVFPqB9NZ82PNa8tibcDy1+y16X2VMsbXzPsTr5fddM3n4ldMWuKSUVwrWRC4ipB4jPzjAPbP3Oozoj4s2Lq2zVVdXU3ycNPL4cgnIlUZOAMYyT2zgeuqE6kqKOnjggo/EojPTmKEAqwmweCAcY59ecah+lKC52ulNdWQMR42YQWAMr5wykjuCM/pxpI4vUvdmBFultPutoezFExmUA363/Autq/pjoy4xLPNabcEkICT07+DuJ7YZCAdDdx+FFhqC7Wu8XKicHlXZKhB9DwGH66oqfqOP5Kiq4ayIlmEbUjVA2rIRxtTGU29sEduc6K+kOpZ7SqX6hRKo7zG1KGZAoxgu6jLZ7nBxnb6Z1L6ymkcBNCBfn+BDiwariYTDUEnkD/ZU9e/hb1Nb0eeji/bFOgyzUU2XA9zGQGH5Z0CzRRhnhm+aEkZwyOSrKfYjGddA9J9SU99s8FwpaqBp9v71YH/4ZyfTuM6V6horP1FF4HUFBHWYGEnHknj/APDIOR+eR9NRPhEThngfYHqgxYrNG8x1DNRvZc6GGA4VHmznnv8A5aRkoIjMj4lCkEdxo562+Hl3scMtz6fnkvdrXLSIqf7zTj3dB+NR/iX8wNAQqT4YlWBmyMllBOR9x31kvilhNnLYjkhnbdi9mttOp2vHO5K8+ft+mmwo6KIECkyRngk62kqVBJaKVeM5CnSFQVZNyXBkGezLnXhI/moMDOSTlEBckUSn7D/LWa3DnHNUH+vbWaqZXKPdwiW6U1bebsa66XiS4VrHKtKS5GfQeij6DA0QQWqqtdsWVn3K8YbhQCDzxj7DOdQtvjNDMvzMqeJIQ20yqhP5sQB30Sy9R2yGjKXKupYNxG3EhmIwPaMH9SRr0jppnW3JS7GxRNvsEOz+MZ2ykjeoLP30r19Qw3DpeOlZIkrI/wB+v+ONCODn0BPOPYZ9tWJ05B0fPQfPwSVF3rdu5A6BI4z3BEYJyfqxP2Gqt6qqrhS9Sz1Va2RK370A5BjJ7/Ug8/rrZgwmelDaiUW7vush2KwVb300R167eiDqWqkrKSKpl4rKNgkh7ZA7HV2dM3Nr905Gkn4gm1znjtwf9e2qWuqxWy/ic/8AylUpSXA7ex/vol+HPUBs9ymt08uYnOAe3HvroqGcRy2J7LliV9MZobtHaZqE+Kiku1Ta6rcIaglcg4Kt6Eex9vqBp98WOo4LvdrRWSyRm4zWtIrmhAH7+N2Qufo6gMPoRrTrwQ1DR1MX/E7gjufrofqfEr6OCqVwjxnbMpQMHHYZz7H29DrCxmIwh7BtuFu4NIJ8kmx2KShorXMD+Fz/ABOhyAfy1IpYqNxmMkDPPmI9O3P21pQvRxKHrrRTyrnC+Guxm/sR+WpmkuHTIwGo7nT9s7WGPy7a4yWolZsHHwsV17YmHeyYJ05SlhxUlTzkNu/XS8dhpOQVYnO3DL/lqYjXp+p2SU/UEtK2M5qafjP3H9NbXNI7ZRfOVPVtiWld9qSVE5iy2M4HfJ0qMQJcGXIJ5EH7InAYBew+Si4bHRsWiMaZPfLY/XOnUdooYsgQhfduMg+/HfT210tzuVrpa61XGy1tNUL4iNFPu3DOMgEAjnvkahOurpdunLSZWtaT1GcblXckRI4Lkdh99GhkfPLwmuu7pfVQ/JGziEaIo6J+JEHRdr/dJCIa9jUBBGzzOAOOAQSMDPPAz31Hz/E+6X24PWW/p95ZJv8A62v3P5QcYRUAUKDxgcD10B9GW6ivdZT3q6UslRMsAWaEoxhc5KqyrxngfhzjjtnVgUUdPb6SooaWGshhjpaianEABVRGSSEA3Ng5JA4zggY12NLUvo2cOPUrl6qibWv4kmjVD1fUF5vHVlH0xfuqlsgqyN+2JowqZwWVcfcBmOCfz0IdQPT1tnqzW3Wnigprg9DT+JU+ZGTKqZDk+VlHp3I+miJY6anraQoauoqZsl56kO+AcnhSScbvT+WoW3dB0vUAuMlctxt9FTiN455EKAyuXZhCxAGBjknPOMc6BJiD6s3lvYJinw2OiB4VrlAxkpunZaO52i80sdxEh2QUMwkdCMA+IW2kBn5VG3ZUnvjVrftm49Wyx3COwVXT08s2JmmKlJF28sAWBB4xjaBjucnTW00E1qtElHBbDXVlRUxxCrrIEldlYIoO4rjfhcja2QT3xp1HSTVNRBHdVntslMxeVZGVnmQtgHapLN6j8yfTSktZIBlhO/NPMomPOaYbI86VgssUlBW0sUtVVUq5ScjLIzArtXb5RgE4AA4we/Og7429MV/UtPRvb62loaqlqnkZat9sHgumNw4ILDwx6dycHRLR36MUn7OnpXSnlUtvDBQqYA+w/ACM88c/UV+Izi63L/s5W0M1xpK+CHw3So2+HIe3iFSNm0jfxnIB49yRPIFybqkjL6Wsh7p/pG7UFyp6219d0u+ljAL06PJE4Me4nO4ngMp2soBPB4OdTfSdPbKZTU0FxuNRLUKDLW/L4aYgjiPeSQCcHHYHtwNRt0jtnT0sfTtighktNAQHJYs1ROPxqTjzEZDOf8TBfQAWB07azS21r9e4WCxL4sMEal1XALFmAPO3HPPlxjvpiAue+zBe3cgSsYyO7yQD3pG1Le6Gvb56+V9faqxSr0tcglIVhtAi8ucj04I4Jxpx0z0vPZbFFTtO7UyAhQ0bqkOBwPMeCe+0E9+w1BVt4raW6yXOX4hV1vgrY/FipZbZP4EoGAjRyPwiHcMlTk5Gc40J2rqKtornU565pbnNFG8E8LvGm6oz+FIUPmXB/wCISSMY7g4YqYGSsPE1StPM5jgI9L81ZUYpyx5UDtyceulCoQiSMLG47Mvcf6Gh7o+uoLp0bd73VU1VTJa1TxTGoDS5cI2EPqDk8HkEdjkalelqe9SXWV6i32iutRCGCohrWpnZD+IPG6tuYY/EpX+edcszC5y7cAFdC+viaDfWykLGYSJLVuUR1EviQsSMRzcAfYNgD7hTqI67o6qomirsMtVMpSoDR7dzJxu+pIGSfcHOiKts1DZbfU1t6q6qoj2MyQw7gFXv+I8kgfYaVsf7M65sVTcrNUCOsjyqpJJlPEAHDZ7EjnOfvnTsVJK1nCk35JCSePicaLbmqiqaS4xsS28HnOBphLNVJ5pIIpMf4l1YLS1SSNFU0DLIhKsvOVI7gg+2msnyMgxNThW9iB20hx2jRzVpCNx1a5V7JckjY+NSFSP8Mn+emgu1EGws8kX3UHn8tHldabbNHxGBxgc/9NDld0xbpnLIzrj6fy417iU7t7hWtMNrJjbrnTw3Okrlr428GoikfccHaHVm7/TXcvzO6JHjIZH5B9x6HXClX0ZCVbbUYGOQTron/Z469iu1gi6UvFYpvFrjEau7f/MQjhHH1Awp+oB9db+CSwxyFt9CuW9p6Waoga8DVqte5UYnIljO2TuCOx1F3K7S26mAkMcc7cR+JkBsd+30zqcWSOPYspIDPtXjjJ7An0z6Z1U3xN6ou1v6smtdVPTSU8MHiLTxooBRjwWYnO7HOPXtjWnjeIGnpTG34jt3LD9l8IdPUiRxs0DUdVCfEa5y3DxYoZYflqgMKiOf+MY4xg8Ed+3tqirvSlbtEklYPBid5YY4vMS7DnjOMZAH6asS8VFZIJVZGe6p/vESQ7XjMOOWfPJx9DoPt9JQVtPUSzUr1BK+KyEkgkk44BHA9tcHRRiO8nM7r6m8WjDRshm6VkEj4mhhkieBkMcmWbxgw8zH1PB4Go6or6WKNJvGjRymIZVg2bCPQLk5Hc5PtqcmstHHaZK5M7jVNFDTop3xHnzqMYbOeS3OoKo6WqKhXBqZVh8IMIZUKmM5ABbHqSTxxjWzFwzY5rLPkMhJAbdXV/sz11g6vtd/6dr6mos1TUxRiWqgYCnnkUtsZkbO0+YfhKg49DoH6FpqS29dXiyXSS2mHw2o6iGWJhDcNspBhjkCl4HcqNsq4AwcntqG6U6f6gtxE1sur00oGJUjYgehwV+x7EnRNPR2+a7xVt5t6VkXhGOZdzIQ5BAlGwgkqTuAzyRg509C15Lr7HYrBq2xtcC068whnqxSZTQSWGe31VNGq1Hj1MkrVI3NiR94Hmxhdy4B259dTXw66krukg1lu9A9ysFQwL0co2y0u7nxIG/gPqR+FvvzqxqqwXLqSOkvtfeP+1Z2vE9cIBNE0YHlp2VVV4JRjkSEg7gQTpS19FikoZKBrPbqareGUKZixMyPg5XJ5cFSFJ8uCe+NdXRU83BDnNzDouSrK2n43Da7K4KI6rtMAhNdaJ0uNHNIslPMsojURYKhCDnDAZzjvj0xpjaoJqKFYa6OSq+W2o0JDbWVRyF5JChTnd6ntqZltkturp7XHDCsFZTK7QDyrHJyMr/h9O3B/nq0fh3P0pdLfBaaq3037XpgQ/iUu15Fzw2QM+uPNrnKvDm+8FrSACL2J27vsuxocZc2lvIC4g2uOem/3Vb0MHUXT3RVX1BQRzz0DNmKQD/ghWA3BgcjAJGSD21CQfEbrXqFqi209VcZokVGDQsFkUY/CSoB59c51fd/vFNYd1tq7VTxWedTDGDKAZZG42CIZLBicZ1zlUqo6mK2ONrayyu88LygMUPZc4GODjBJ9idYtQ1tNJZjje2u41+x5LXpp/e28SVo7jodPv1TySna426Wgv8AN4sgRo445YwXgdmB/d/UnGSpHB0GWywXi0Vt1scEjCOdBElPM43MCO+FycDPI0ZUoY3uGLw6xw0m5XeVpi0Zbjb/AAg4GAec4POrFvfwutdTDL1BC01NVSRpJJ46l0LbeCOcnB9iPbQWSu4uVm1tfumnmNovJuVQTW2oidaRYrXT11JUGCqqWqS0jF2yHCnOY1C8lQO476lr20lJR1NtrpJ4aGnkjKiVMGaMfhZC+CEOchvXdxr21W5aKKetrpJKuWoqHZiiFQFHoS2Cx+gz39+NNqmKeutrTVEtVUSNNky7N6xKASiruPlAIxg+nppmKpYBdjv+kJ0L76i4Q/U2qBKW5XamhSllpkSWGDxC7TDcf3obGSBgk41IdK3mOmpZb+0kc6FljnWRNxdm4VgARz9Dgcaf0tPdEr4KWWmWGiliAhEsR3hu7HbyzDvwD66hEmo/25+y6eOOKidhJ4067GORnk+igjI9Ro9mu+LVQOwbDRWJ0f1LcLPNJeLZS08lKR4RhbESbWw3O05Y5BIwOO3ro/6S6+S9XI0NVHToZWK000BO1yByCCTjPodc39NvHRXWsrYrjVsFp2lijMmFkYHJQ/fjR/031XBH1LLcbfbjXhlWQtIVhjSVsFiwAODyR3AGO/OriaVtg12iVfS08hcS27iuhaWslgnEsLsrKc5B0CfFjoinr7TWdS9M06wzx5luVBGnlZR+KaID8LDuyjgjJHrlp0j8Q6W/XqS2VFJFQy9oitSJFkIOCAcDP0xnVg2ytkoauOeNvwnseQfvphtQHHJJt9FjyUzoTmZofquYQJ8eIr7kCehPHtgnSFZUVMaMNszbOxLgY+vGrE+MPSVPYuqvFtqSxWu6J8zSKjHbEScSRD6K3b6MPbQBcqabwSsTyF1H8XI/p/fS8jeG4tKcieJWB45qAmrKzf8A8ED2yRn+ms1rMXSQqzEn6gazQiRdEsVdXX3TsgheakjMMigkeENu/wC+q18RpIHR2LemG559Rro+anlr4JJHjZGQ7gXHcNztIz3HP+s6pL4hWc2TqRZEj20VeNwPoknqP7/mdMiT/Ziz2Nv2Hrf4V3prTdGpHJjppmwOfw+4zqb+KkTTvHWU8OUXO5hjDD/21XrSy2+ujqMEp4g7ds9/11bdF4F/6c/GjKUwoAHlP1109FUe8U5gcufrqUU9Q2du4VW1sQrrDJF/31OOOeSmeCD9O2h2OqnMaSqcTwHzY4yo0UXGNrTehG6ZU+VlPqM8/wAv6aFbxE9BdWK5Mb8qewYems+N5aTGdwtCVgdaVuxR3aLzFXWUtK2XjxkbvMRnnHtgZ03t1RF82YypMM4/CeMH2/t+mgm01JpKpkDNsflSBycjn7anoGKsQrZHdT7Ed9GrT7zAOoQ6Fvu05HIoktkk0eUP4R2KsR9uNTccscsYLqST3Jx9u4xqBtckdSx3kBtvq2PvqYiMECKvzQSVjwpYAnPtzyPqNcTIxwcWt3XZxvBaCU4SOiRNqxwgZyxcFc/nob68u9hSyp+zILJNckqMDMYqpQgzvDr/AAqCqktwOOwznTqruebpDS0tS6KIpZZZUhDBDs/dlgxAxkj9RwdVHc4J0qIopJvGkLYkdDuUOQryEFicHcx9ADp2ip3XvJ6JWqmA0YrP+DVHDeLBfa63KKG90shp55afhGgkQMF2gZTBDYYZJ50wnr5bJd5ku93aqttU7CenSF5HMuwDLMQCFwwJAzuC4xnUDZrjYbNFU0HVVJd7nRSwbwlHVeAsYyGCNuXczA7WyPKd/rgEkkVN0xerZQNa46ie4W6kLG1VCLD4nnXhXwSQDuBcAZ9h2OjJEHvBaN9LpOKbI0h5vZOut+ppGqoOlqOv+dt/hmBorLD4JdfDAVctkqFDH0GSPqQDXpGqjhs1TSCuyg2RU8Ms8Ykp9ih3QCMbeFXJU8Dd76jLpR9RXGOSpo6K10UQgFMZlg3fIuB5ijsA7NndyBgBsfXQd0zRS334nW+ipbJWmlQTLJV7dtGaRAC8qHvI7kLlsgEsq4xq3u7oG5pEM1bZyGx6BWParbT3Gkjul4ul8elldhS2qOR4I5mPO92G1xHk4UhuR6EaII6yK59UvYaWliMkVK0ogchYsqcOCvPK/wCHjjW9+pK+qqqqdXd5DFueF5QoXdgDA7cYAxkEZx6airUoo6i43WKrloLlWN4VLB4ux6iFVUSyyD1AC5BB5Y8Z5zSGRtQ/LZTM0wx5r/NNap5T+zagFfCWn+epwIV8OJv4QHUnJyRk8dj3Glpaa1qtutT1caVbRbmdJN37wR7ySTzIWDHnPlIAHPZG2pJU/CCzxxySxVluia3zKx5DwlkyT2IYRkgEc7tJ2FDPUUIqsGoMAlIQY8MBMtj78/mDzpBsb+OWkd6dztMOYFJN0xcZHnuRuGYpI0jWmX8cbMQAW55PmPPrqEudeZLtHLRTzx1pSNKB1VOWVRHuXcPVcv64IGMasqOM/vJocMKdBtkC4ZsHIBB4I4PfVeXm2x/tGlWaGNCoBDHJZiQO57eXHfH8R9tOuibGNRugNmMhsmXw56NWrqT81NJHSUTGVmcElEBz6+rEFj9j76lqu/x9TQVEVL49vWupJqFEWISvEFMqNuTHDRglm2nGQeD31LXa20FZ0HN0ea6elrrvTPWOkJxKadJFAK57qSFBPsCPXVXfC6Gtt3TtfFJUpBWdM1sqUUhRVKLUJ5yW7HP/ADEAYGCe2n44+DEHA/Es6eUVE2Q7N+qPvh/Y7xWWyWjlqauz0lwo5IqNqarE8QlwC+Ax3YJGecbt3GM51Vd86ZtPT15+Qnqobjdqp6iE1UlQQaTY4CbYzh1fAJLHIOeOOTbNj6sfp/oC3TQiD52CdYalcNlH2kSFgeDkhFyO27PGnHxF6Vs09ooviTbrFVTV0DiaR7W2atZHZRt8NgRMg825cHau49icBY0SMLbm51RXl8cjXm1tvRC3w+uXT69L3d7ndLoaG3zwx3BvlJJIwX3lGwow4LEHHoVyeDqw6SutCWmhTp6oobjDK/7upppvF2P3AfByjEEd8ex0H19BT2th07V0/hWGCRauI0L7ZpnkIy7Ntx4uCWA/DgY4GMAt1t1T0/1TTdRWuoloqylYxeNHOsJYKSmH2DLZHfRHPjYwA6KnDke8uGqvq/2yuulgl3U1VBMEIK+IAN3I5H8J+oxqt/8AZZoqal+IPVFthWrampoBCpkUlZkLkt4vpkYUKO/J76OPhtb+sa2smfrXq4wW6aCZYrfEQ8oaQ9xUMvlIB4GC3OD+HUR8GKiz2/47dWdPdFq0dhbMbR1G5mjniBVwjMdxXcz/AIs+p9BqJcl2PB0urQl5ZIwixtdWvXNZlpoZLhZLfXuzpBLJOm6QsBlSMEEbhnPPddM0snQF1Ti3V1r34WP5euMgG44GQ+QPQ/r7aiOrp6G1NHUXDd8o8Rp6gbTw5OVcYPlYYO1vTPfnQvaOqK2+W2StoqM2OOYhCs0mZyoPBbHCHjORk49dcljlVUUlY7hgZOYIB36c9dfBbGGUTJqdpJIPUEjb5aIv686R6Ot1oo6m73+h6denVYZN1P4rTZ/C7LGwb67sY559NQM/whu1xt9Pc+nrxabtRTxiSGWCqKiRDnDDcpBHHfOgz4ty0tp6YFLaYw99rJFla5SUJmZVGFwZX5/CoUYBwAcY40KWG/8AW56Lt3TcNXJSWmR3cpHTqS5YH8Ts+XwxyAxwCcnsANCgZS1VOHtZt1drtv03Q6llZTvAbJe//wA6fdGt4+HnXFtSSN7FXSS7SdlOEqG2++ImJxyPTVM3auvPT/UCzKaq1XOnk3RtKhhdCD7OBn2I/XT7qiWpgpblcaR6r5+qhSOV1KhmY+Xhx5tpARcZGftnVkdJ9X/GSqa1WVLvTdVxSTFhS3KmjqYqvYDvVppFyEyjecHjBIJ4B1aShiIJZprb82SNZVTtIa8A6X5j7oj+GPx5tfVdmbp3rWGSlqdmyWeCQpn/AJ1I7D1wcgevpqevvQlzuFPFW9L3ik6kpcELA5jhqEjx5VGfLJz6lh9tFl8+E/wpu9R49V0NbKOq3bhPbHko5EbHcNEVz+Y/LnUbF8IaC3MJOk+t77aJP/t1KpURk/XGw/11oz4W6QDitv38wsWnxhsRvC7LfkdvzwVP9XJeLTObfLYKy2LHH47TVtMYt7NwybsY2jb3GRz3xrzp+m8S2ZwrSiMSF8FxA3I8nJUqV5J/5fvq8Vp/i9aIDCrWTqilK4KRT+E7D6xy+U/lofr7n01FP4nV3wuqrLPnDVMNI8A/9cWFP6eus+XBA5tmO9dPmtmn9ow03ez0N/loVTl6o2rtqQXSWGKnqMx0tH/EoXjA5yCGY7ueTrymkmR6ympo1p46iSOBDKAC7Z243DnLeXPucnjVsVth+F/UiLJbupq201K5EchZH2eXHH4G4wPX00nL8J96xz22+2S9uqtueplend+20jyuoYc851my4PXxmzBcd2q2afH8OeDnflPQghB1jti0tzlFTbzBTUu6nrqh5AiRSgfwAcFeMbvXGlpbZbK6sekt10+fkkY4VFBMQAzywA4OOM6n6/oPremEFJH08ldRTMBWOtQsyOpJ4ZEJJA3EnjOMaOugenaCkjkqZOmYLZMqrTxssLqTGB22tyADnnTFLV1dORHJHp4FI1tPRVIMzZLutyI/7VI01j6p6Tu5vnTd0q7ZVj8ckXCyD2deVdfowOrP6Y+LUVUII+uukTFVxpsjvNniVioIxkxHJX1PlLD2A1Y9TZ7Zsc1EaRqELM+7yY+pPA/PTSLpiwywq0EUBibBUptKnPbGNdPA6Fzm5HZet/4XF1UUha4SMzdP7UHfbf0/1HTG89J9QUtZVxR4VRIPFZc8h43G7+QOgDpmrrOm/iRQXGrdoIp3NPNtBYGHbgqBnKquARq3D0jYhUBJKCGV1wTvVQyA9iARkjIxxqWNqt0dN4EVvpAB+FJIgQfvxnTVW9j4iGHM8bFK0EcsUgzjLGeV/uhL/td8Pb9TraLhcVrsTbMV0Do2c5B3bQMZ4ByO2hf4ofDK3/s2uu9tozcKssZESQgIv1BQgsV5IBOPfOrGoemen6WAUsXTlqpoVQALBEAn1AGAQBp/8pR/IGgWCNaXaY/Dj4AHtxrm5sPlqGEyht+RFwfPquqgxKOlkbwi63MGxHlbZcxdLXC6w3uinlaSem8sLRSEiPYCcKB2GCT+Z+uulaedKtBRy0+InTMZwcMMdh7Y1Cp0j0vZ1lrVWCmcvvE07LtRj7Z4Gqo6sn61u3UM9hpeqpJaeUBYjSz+AWU59Y+cngDGsJjZaGX97d2/O66aqfDi4zU+gbzOiPqv4bUNPXvU0FfV0q5dxEgDBWbOcZ4A57Y0PWT4f0ElXVLcooja1YiOKYiGWI4A8RSDxnnvqwugbfXWnpGitl0qq6sqYEIeatmaWV8nPmYkk4zjn0A1HdZdE0fUsimqqpo1VSAqBSOfvpmqwizGzU7dOizaTGXB7oJ325Xt9LIbvXwpsFbTvNSXu4F2OTK85mDDHAJXkr9M447aofrbpW+dKXF7tHCJaVZDEsiSMFkO7cArNnHODjH0+urO6qt9b8PF+dtszDLH94rNGNxxyyr5SNQljv8A1TdZUW7T0t+tNSxinpJVQ4z9ANy/ftrOfWlzicpbl3G62oKVwZnLw4HY7KsqukC+DZupKY2+4+IJY6t6gPG24Z2kRhgCScnkY1E0dbJbayrjq4AKUOMpBhA3P/L6D39dWd8Sfh3WRVK3KzpUbYIRtpqnLNGoP4Qf4h9D6aB6eie6zz1FcNlJTqqyNhY0DE5CsFGQCc4IB9tMwVLXbIUrP91PfBQUVd1Ysxp6sxbyYMUxbPqCTnyjI9tdAk+nsNc1/Cew3at6zMtA8hgpZ1klqUkZadI87vDUZBb2xjXRsLwcIXldye4xydHItIbLNndcC6afFWjW4/DGGsKky2y4IVYd9kgKsP12n8tUbXQd/NIoI4G4g6vj4qTLavh5T2dz/vlzqll8PPmWKPnJ/PaNUrXBmGH8Rsfw4U/9TpmqGVzQd7C/54WSGHnM15G2Y2/n53QXWRVS1DLhxjjnB/trNS9RBH4zYikP2TONZpYlaFl0LduoF6esU1fLSxSFwoj/AHabnxJg7SMEAgbckHsfrqK+IVlpupulme1lZY6mJaqhbsA+Mj7E8qdOqiwr1NdEMBSOEEKruuNwHG4/zwPronh6dW12n5SCWSaFfMc48hPO4EehP6aluWnfwnHUrNLzL+40bLldGNZRNuXEiHa4PcH0z/TUn8POpZrTchQzFvAc4Xce2l/iHQtYOs55CpENYTIQB6k+b+fOhm7I0ciVcKDyn8s606Od1PNqh1cLaqHTdGfXUHiD5tH3ZGSyjIx9DoPuY+fsxK8z0pz919tFVFcBeemWUhS0K+fLAHBzj+ehGllNPWyRHODkY9PtrVxKLKWzMWXhcmYOgeoSldZ02Anen7xPtnkfkdTtoqC4aFif8SEt20PXWNrbdhJESY2YugHGR/Ev6asr4V/Dy89e3aOe2kUVphYNWXKRMpGO+1B/HIR/COB3JA75zJy14A5rRdCCy7twnlht7zxPclpZKGNVLh1mzHJz/CrAsPUctjkamozbKiJmqFaWpgZysbQqzIQvYYJBJ9fp7HUx1rYT0/TiyR1MhoYlWMTNGA7R55UEAhT659eBqrLhG9FLQtY6Wsjq6aTbNNK4iWaNT6Ke7EZ5OO/rrHqIwZSXCxW1TuvGMpuFPxUiGgaOlJVCfEMjkZzkDOcYZgCMKeMfroZvdquF4ubQWq3wsvi+JPK6hFjBCmRmYnPYDgDuB31LdLvV1s1UphWnnhYlBNVh43Z1A3BQeFVVUEDOCwxo/t1rpbdTPTL+6pgxMj8uZnxzx6c898DRSS0q8UYk8FzzdIIpZq+i+cqIphvhXhtkuBkKQeQxAAJ5BIGMaa2eSWulHi0sdWQ0SMJKMuWCE4HDBtwBwdhHcAnHGrN62tVpjvMtdZXn+biUTSweDmnG4fhzwNxxzgY9tMrPZN9VGt2p1gqMIPEhztjVnJVmCsd2RkAg84+mdNCpsNUs6i7Vglunuu+qYOiLvR0dRBVUdFQzR08i0rbkY4ALNuyG2bmCtk8Aeo1L/B6isHT1rkFb1pQC8V0aEtUTE9vNsBZgFGWOOQxIzxwAjU9M2uhrJoZpKiKFfEMpI2JuGTG4BIXhQcAdtue2vOgrDS1NVLdK+mgahjgdlSeJWLERk7Q2ASQOwxkHXo6hsgINyBy/hVkpSwhw0PX+Uc9O9SVldd5en6ykaslm3NTVW4ZChMHcoOSB/izxxnOdSkpqPnfmJTLXTqyqjo341dVU7s9scEtyeO+gOx2vxV/aNqjqKWepmWIPBmNDt7ZK4BIJXucN240T3KyyT9LswqK6KtoFaoi+VneN/GVsBgB5Se3fI98c69BVtAOhCioorEXcE7oaKSpqLtUWJ4pKcVwM0c7FY/FCEMBkZJ/Dkgd8c51LW6iS1UrNWRU6g4gmIclUBO4Ebl9Rkk8YxxoMufWN/tl1ha3UVsrKRafdXxywssrSKnLZDZTJPACkDJ41ta/iVbLjRK19t81mqJFVqaocvLTMRnDBivYHAOQRgnzHVYn5xnYVEsRYcjgrTaJ/mYYYDGVrYiYCxwSM8ll798nPHb01XNXU76adHqWqqanrTDBI0iu0ZTYMFgOc8jtzt599GUl28W1pcq2xrTRpyKqiqIqmNtucY2nIBGSBjtn14DWPqboqksLXqua2LQ0yttaqpxAvhjLMiIyjfJ5CAqgt2I026F0xslGzNh1Q91KadviTVKamqools1NT0kkblPDBjeYox/hPiyo59MDB1SfRPUp6Z+I/UdD1VXmiqK1flDN4bCPzPkOwjwMYKsPLjHt6k/w7uc/V3WPVXVSdQXmhnmqppaWOphSSikpPNsglTzGM7Sq5H4VDFWJGNCFz6Vk636qqby9ObdQJAkZkWQFZTGgjVwW4wdoJPA74A0d725chKVYyQvztCvPrynt3QFBZa+amuVyt8riCSpo6eNnjfOS7hmHlkVwoBOMx4Hpl3e+vOnI7P0lcrLf4o4KyuqEiEWEllRadoyCh5ibJAwVIJxzznRD0dS3yk6UoOnupqWKupBTJTLWeLHJhFTgSIoxg4Azzk9+TnUHL8KulYakzWlKq2zQ+aJ6VxsRt2c7JMgnj6D9MalkfBaJIm3vyKq+QzOMUrttiPzdC/WV3R6P5qSldBFVGd5twieNRjw2YZ5buCy8YyPXTeDpHqW8UUd2p7vFZqGnRPBrKiEmbGMuRGM5LE8sxUkY1Y81LSuhkqAtYIdzp4kCgLxjhAMDJxxjGdRXX9y6j6WmtzW5KRaCaHNdTyENL4jpu3MxyMBfKFxzzn0xlTym+eU2C2KeMACOIa+KN+nKRBY4oLIFlLKE8WR95QuS+SOTkA7sE8car/o+a3Wv4sV93W3CBKuumhQrEBl2cluwPmO0tjvydHfRkkFZ0lTRRRyvFPGzCHtzj3XgD+fb21WN3ra62WQx1rQigpUkkaeKIrJA/8MisPxHIHucE+usytxVkz4m04GVpBPimqGifHxeMdToB3It+IVNea3pyrp7fPSVFYu2aeGaQ5+WDlWfy8n/l9yPodBEt5trVNPa7Rf7ZHJBKI38WqVHaQeYnngLnjk8Bee4zclti/a/TSVDTxbq62Rp8wsa7tzI4LbvYlgQvYYJGcnXD8KCMuk0kqVMp2eIjbgzB+SQcnHHoPy51pYjhTayRsjjbTogUmIup2FoF7FXt11XWynu0VElZXV1TEVNaXlDhA2GKR4ztViABgY5wCCTpSe2Wy12G4zS1tMtwiphGkcitkSsfKCB5mP0xjIHoNUTanr4KqZ4XqvG5YmKRlOAue47NweTxjGjCjqK259Sy1XzFQtwNOZJ3WmWRjIRhFkjU+ZvYjIY5ydRFgb42tDH6In68x1w9trKet9st1RdLNZ6ullEE0oacGpXxXXeQ6tyArHJ47gkgZPGj6O1Q1V2o6O52+tsnTVJLJUVM9RTtFRfLoA25WcjB8qgOMsA2dRPRdnqoqululZPHcKKxlayrqXQbj4YLbVO7Jy6AAgYHPHPNpdGNc+qukLJLc6ELGlDtlhmJxMrryXUjIymFK/U6u+pFMA6+x0HU3+ypKwzOLQNxYnpp90TXnqmzUXTUnVldc4I7L4SVJrVDPGY5CArDaCxBLDGB669sF/td/tkd0slyguFE7FBLCxwGHdWBAKsMjIIB51zx8Vur7ZQ2Cn+FdlqBVWalWOOeOc4YIjbhB42TvCtg8gfh2540rbfiRaPhF0HaulrdFTdRXGrSW5qtPVkQUyzFTEJXKks5wQUUDGAexzrpIsXbIAQ02K5GbBXRXBcL3XQl+6ns/TVsNzv10gt1GGC+JMx8zHsqqAWY/QA6CL1/tCWu2xB7PabpdIS3hqZWFMsrZ5VUYM549WVR21QdquvUXxI6lq7hequlFYtH+4iEbIYoyRiKNAfwk5+/JJ0djo2qpYGqK2SMsQpRViAClex2juO3DZPGsjEfaARv4YsCtvDPZuJ7OLISfl/aN4ut+mLytwqet/h3SUcMYQQTWxt9RIzZyrBdnYAkv+EbecZXL3p7pHpPqijmrekb5d7RNAwWWkuEQZo88qSY2DbGHZgWB59RoHs9hkFFKbpQPc2jiAuFZDiMGQkBVUYwoGR6jhc8njSVw6zg+Hlwmv8AdbVUQ+KYohFRzofFKsed7cEFCQcjjIxnjQqTFnSSZeX18EzW4LCyIvbofkFZE/TPxCsvnoa2S6Qr2ajqhI2PrG+G/TOmkfxB6it1R8pcKoRTA8xVsDRP+hxqU+F3xEpOvrFV3KlopaF6OoEEsMkniY3JvVlYqvBH0GMaK629Qz0/y1xjgroD/wB3UxrKv5Bs41vGt4X+QhcoaATfCNUN0nxEqXwJrbRz5H/dyY/tpSv6o6fudKKa72OoWI8gRVJTPvjYwOorqDpno6tpqioo47jYpEjeQy0M4eNcKT/wZQy447Arqk+mr7U1VwkrpZ3FOuIZmZxvbaM4wMAd/TA++eczEMbpBCSyMPPQ7LTwr2dqpZdZCwDmDqr6grug7a1PI098iWEhYo5Z5amOMAZxht2Bj641P27rHpiUpTU9ZPSoG2p4lIypnnjgkjsTjVUCagqjE0E0km+I+bghG4yuDjP8u+m4mp/2qtPSVjQyvyVKhW3qQCWHYntntxjWBT428vJZC1oK3ZcCZkyyTOcR1t9lccPVlglk3jqiyxRiQofHZ4Sw5yF3kAsCOcZx7aRqesLDT3aS2xVtO0+HEk6o3gJIoB2uwGc8jkAj3OdVs9ZaobPXTXJ46MQ4d1ZlZmK8eJGuC2SMYwMnJ76BajqW+W6+U0dvcwWdXT5aaKkIWdSoODIQDuGQpyFBz6nW+Z5yBZmp/NPJZLaGEOd+5oPAett1e93tnVfUNnNovNutVMZHB+coLlvRQCDnwnQEn/zamKPp6CCyrbmpGLLCYhURkCTafZgcj7Z1T1w6yo7cIJWuNUaeo/4NQkrlZSAu/AUsBgtjSafEqhQbv2xcOPXzkfzXTgw2hldxXO1ItrZZb8TxSAcFrQADfS9vFWp0vbbxTVRiqY78Y6ZNsJmKmOVc+u0kkj6gffU65nU808//AKDql4/ihTd1vVZkD0jzn/8AHSy/FaNBxergeO/y2f7DRqSigpI8jZLjvS1ViFbVvzvjF+6/2Vj9X2Cm6ktrUdXDUJntIisGXnOR+mhnpjo67dNXlJKGppp7a+75iKahcz8jjY47YPPOQc9hqDj+LQbhb3Wsc+lL/wBNPIfiRWT/APBuNc4+lMNIz4PRSTcYvsU7DjeJxw8ER3b4/wBIsvtBU3CnkhWhqcSIUbETZwfbjVLz/A6/vJUR0tvBoxIWhWcOJPXB3rjb9h9jo7qPiLcFwFnr5mP8Kqg1F13xEv8AKhSlkMJI4eUhvyGABnSs2F0WcycU37gm6bGcTa3IIW27yfsk+hvgz1Daa6KurbpS08kYK8MBhSO2BuOPzGjv5npvpgBopmvVxHbbjw0P1PYfzOqhruoL7Xvm4V9dKMkgeJtT/wBI4/lpCkulRHIpLgrnnKbceo5Xt+mhsFNT6xNuep+2yvM6urT/AMiQAdGi3z3Rt1Ast+r3r7mizTkAAr+FVHZVB7Af3PvqDuHT1veMb4EIxkdwcfQ849Ofrp9R3lCoeSOQDb+JGDZ9+eDp3BW0UqkGZRlcHeMevpn00hJ23Fx3K04W8Joa3QBB79KUAbG2X8trfz4/prNGc1NE77gVAPbyluPuDrNDyI/FVr2ezi1W2NGh8SQDzMo43Y9NMr7NS09Ca2ZBGlODIjM2MEAg8A4PGe/GpjqDqGktVkeorpYqaBE3SMx2kj6/Tt9Trln46/EiovFNLCZGo7Zt4h/C8w93Hov/AC+vr7a14cFE494qdByHMrnX4lwyIYNT9El8T+prH1jaILlapMyU7NFOmD5GB5x7g9wfY6E7eIqy3mHjhePTj/MH+Wqus9/q6S7ySuGWiqSFkT2Ho35f00bWKtMcp2ONy8ge49RodfGCwPaNQtHD5C15Y7Yr2nqaq1V7RocI3DD0I9tKVMiyMJVbHOc6Xv1Os8Qnjzgj31OfBroK4fETqT9mJLJTWuj2yXOrQZMUZPCJ6eI+CF9gC3YclpasyxcJyrVUoil4rVM/C74V1HxPqxNWSy0PT1FODV1kfEkjDkwxZ/jI7t2UH3wNdVUVJQWm0Ulls9HFQ2yhiEVLTQjCxqP6k9yTyTknnW1FSW60Wmls1mo0ordRxiKngj7Ko+vck9yTySSTrSV8Iz87VBJONaTKZtNGXO3WZJUuqpMo2Ql1/UUSp8rICZGG5yB2H6fz1SvXFDLJWUVJbqVqP5ip8FZnkDbn2+bAXjgZOcEgZ0ZfEjrS5RVUiCKl8A+WnSRcNg4HOD3Jz/LQzfLy1v8AlXFP4/gYXY34UyPMw5yTn07Y1ws9TUT13GLwYztysPqu1pKSKClyZSHc/FPfkbdbJHpqWmjmUNukmkAZ5GB9WPIGfTsBj20lcan5SlmqFp0+VLMAFjXcxLEt9ssScjv9BoPor/StcDAtb40kkihlbyFQVyx59znB0t1T1bAk0FNEylo49yRlcp6EE49sdsY51ouYXGyI2RsbcyhbZ1i93uVzjahq5qPwPCp5YABFCwcMQWLBcny5/EO3bGpnpy0zm6TU9Dc1EKoGQsN0ZY5IRmI5wQwBx7ds6DYL5WXnqiGlq69BA6sQiqAnpjgD2z+mNWRb5IqCl/aVoaoNNJM1Gxl80Z78naOHyCR2wD6DnVZuyWgjQeapE/M1zr6nyTa92Otks0UXy7GpmjLVEwZWcorHcqMw/AQV7jPB/NengK22SHFPKtOEZ/FULJHIrABuMHaAfqeeDjUrQzTNQtUTyxRU4/dw4jUujAsNxHPHuM/b0J1jWlp6A0tTLTSvH+98Tdwx3EqmRwwwzcHt27aTa8gOFtEVxNhzKr9LnXQVL0lO4qdso+VKuFWNNx3B8DIA/wAQ5/QasT4eX2d3udPXXC21FVSyF0ZXLifOQCu4hsk9iQeCD66BVNAvU5qpI6ympmd5AlJC0szLgl2H8OAOccevtyRfDKzUHTkdxkNyqKubeI4KielCL4ZwApV8EDYTlixwQNMRBvBL9ih1Lu0GWuk7jUwTJJW0NDM9Z4rLVPSylFwwYBOcFRt3Z834fXnGtulzC3UEVrEMFbb5X+ZqJRGryQzAZYBc42kNjK8ZHOSNMepr7FS3KR6KWRbdNAzTfLYBcLnLLuyMZJw3Bxk8aIvhXFbZ7qtbFbp6KmtkTwyU8k7MxlTHibsnjOeMHBByNDpWPc0knS+6vUvZG3bWy269WjdharfQVcDUqlpvkZY6dlXtvGPxEZyOfUnHOq9+IHT/AFT1FJBUV1fW32ClPh+BVVPiSU+fRS3YZweeccnto+vN0p6O8yzvTQy087gSKwEZK7gEBPO0kDjGcYBOvaGCdfiVSPdq1aSnciQrOV8oUncHdh7Y4Y49tHpp3k5WnUpeWKPh5njQBRnSlB0z05Z4qDqSopbB+8Ly0chdhVHA8NZZwoBA5wuR29RrT4odB9SdW0NsrelTSm1GrSnho6Yo0USYws5IPLDG0huB5ca1+LtoS8dVxQWW31ddSShJqSOGQxCYM21iCpHlyTyMZBJ1t02YOjen3WnVqC6yVE4ZwwaTCEDzKRhgCcEkHO3IJIyT1MsohzxkXBsed/6SsFOwyAG9nC47kc9K3jqGmrKqnrY5JKSJNlOlYPBZ2VQMhsYXcRxwQcnkaJ7hdaqK7R0lRDFCZKfx42FTxIoA4U7cN6ng9sY9cVRP8Qpo6KlpOs6CzXa2NUYdaaFjWbfDBSZVbCOpORgbW4PAzztTdTdLRdWVD2uvmiskf+9rSCKRYwyqVBA2lwVRgAuFz7HGsxmI4tFTku1t018uqO6honz2tYnyRt0xXXyoDR9VWyioKqWH5uCnp6reZ1D/AIWLHBIwp2jGM6lrdFcq5g98t0ccPjSSyAgETjA27o+2dp59fLweToZ6/QJQJI1qqa+aBxcaKqjfb+zod68uO8h3KD24A57cm1ySOe1w08tzo5qgU3zFVVQSAbJ9mRsAyFyRnuePXWDWV9VVwAPcAD4/n9FaMdNDA+7RqnCUUMYipf2ckNGqLJsh/ApwQw2jBXK447d9Vh8baXqCHox7bYqiCS1vVvDOgiImwuTGu8gjble4GTgasrpuenqL5NRRT0sz0ZigkkWMAxuUDMD3y3mJyfTQz8RrW92vlZWpHcvk6BEUz07kIZBuO/ZnayjcOMHn050jRv4ZErhqD/HT801TDhd+S+4Sv+yt1A1f0BR2i4TiO42qY0k8MuVwAQYic91YYORkHDe2uTrNI9PcKyhrTLFOlRJDVRf94DubcuDz+IZOPbB766GvltWglorlarlNJMIWdRUARpMu7JAIAwfK2FPsAOcZFf8AaO+H98u91pPiH03Z7hcqirpgb/TwL40lNIiIFlCjJAKdyAQCuTjOvpWG14roL2tbkuSrYDSTam4PNDvw0p7XRSUt2vtvjnq6d4mG4sTUsctkrkfgBzkDgYPPOHHWc0XTPxMqq6CppKuFa2KqSrmpkZflypcqRnaQHiwPqCMKdBBle90FNLTlGqKFvL+EJJCVAGVGCWDZJ5PftjOntquk97hoqOaSWWtJp6eKUSBwVc7O3OQGY/hxgvyDwdN0n7kpcXcrWQq88KMMaNdCD1XWVja1VHQ1oqbfT0gS9SiaR4o9oMKmRio2gYwVAA7DOo/4u9fDo2wU1lt8DSXS6HwjIJAFpY2XJc/owAyMkd9J3OGn6E+HlrjlrXr5rNRNHAuwh5pTkHAGe7buwOBn21z/ANSX+4XyGc1EUclTMTPJUAFHOCN2MDITlkUDjIbXP08Jqaohouxui03SCOnzuOp1QxX0dPIjxLJtmSZXGGXmEnAPBIB87cc/cc6kOprNU9OwQUd0T5K4GBJEU43b3GUJA7k4VgD2yOPaxfhtYbNap6i63WGVnoWhnmNREqUlH4ozvlZgW3BQW2jjy4+yUFJYevOrq2/VNNV/s643SJ6UMxWSSMKsYkP+DdtBwCAAwGnq7EWRdlvwi1yOvQIVDSGSTM8am9vuU++ENjrLYLbcY0pmeeMfNyTZ3rHgsQp4wRlfv5jqybpXwQQy1NSoWljCtLM4KqvuSQOB68DJ+un3TFrjc8UqtSQxYidFJVTxhe3pgZGSedVf/tE3Z7XZqe3ilCVNwqSuIXYyyQx+ZyPYDy8jXIxxy19QHH/YroHzxQMtyAVldP1luvlbTdN2avpphURLK1XEWCMxBLxbWG4eUE8jP4c6gv8AaH6Us9f09DY7dMaG50VXHV0lZswkMjBiFZh2Hl9M4wT9DUfww61qLHU09NSJ8rGjmKFwCwZyOTuLAqjebbywxkDHYWr1mtF1LBSVlipkhpai1U7vBKxKgSI0ZVvRWBRcNx6n6a6eaiNAWlug6/nzWPFMytdqdNbjv70l8H+mL50xbzdLqaNqq4U/hVr00xkG9XLRnOMHOXzjtnGfQGzSAnLNnP10N9EPLW9P1tLdbbd7ZSUuEhEeyEzMpJE0SfiO3lcZIfJI9xJLVU8kjUsVXD8xghc89uN209wDjj66Rr6iSR+dxXo6dsQyt5Krfifc+roep5TU0NWtrpGeSjkRl8IxerkL/FjjzfTQPYJZK+elTp+pklqEieoq2kJRo3UKNq8YcA5w3qCBxqxvi9LT2yxikWtrGq6shpU3grsG4FmXHJY5GT6ZA41V/S9BPLUtBbo5EuDIqosS7Rye59vTj31Mbo+CdNU1E+QPFtka2LqWnoKP5aZ/EkhgzOA+SOMHcO+BjlsEDPJGpKx3G43K6LXUVB4U4yhqJPDjDbV3gELnuBtzzyQMHS3wo6EqXpWvPzsDVVQ+2oQFuVBHl+oOM88dvuLPrktPT9Et3vNAbbCrRU6S06iaac4wAiLyxB4x75PbOq07WiS7RcdVeqkBBB3KBenegqm+9TzXq9NUJcpVaaojpSDFBEMfuSxGTnOC4YP9e4Ewbl0q1n/Z0U1uroDIYKiJXSTxc7iGEgz5QOAATgKecqDp58QutqOzWuoslid4mkpvEMyyAO7DgbjnHrwoyT2Axqn4LPSrVVtX8nb6qjgpVaB5gQkzEgMniEjEmW5HAPZc866emr5ycsfaJ9PLv71z0uHQuBfJ2Wj18+gRN1T09SUCQU8EUqW/5x3t0MEu6I7l8SRt2Mnhk9B2YYyM6jo7RTSN4iExv/gYHOO356PPhX8PFuXRD/KXKCkjjrnlt9LVQEBMxpvzIPMjEttxjBCAnnnTbqfpe82aZY7nSNBu/BIwykn/AIWHlb9c69UFzXXaLA6oJLXuyE3I0QbU2qaGFmSFZiOwHBJ7Yz6aVSgSNcyKYyF5JG4D9dS3g1lOMhWfHG3BOR99Ofl2lVX2dwACT2+/rpQyu6q4iHRRsFJGqqDCH9SVAGdPVjhZFiDuoxyG4H8+NKSW6dV3Qg4Xn25GtI0nX928QZfYcY/z1HEJU8IdE8RZQApUsc8E9h7fT+Y15MYdhDR+Ht9+FIP15x+uk4kJ2lJCncFT/lp1tlijPibGGOWxg69dTkUXNBEx8shwOeD5ePr2/npstEykSBcD3ZMe/b01KGOmeQFgRnhmHlwR9R/lrbw9rhlcZHAPb+Y/y0q+QA6JlkKZGNgCmCyHkEP7e2vRUONxV3Deuewx76cFlYsJIvMuB518rH3BT+41rURh22ktsTBJGJVX24XzDQs10fLZaxXF412+Q/dh/wBdZrUQCUZHgSBfLkVSqP0Y5Gs1JKiyivib11UVs8tZc5lCReaKnDZSHPAJ/wAbn/8A5Hrqjr0a6+1zVVXvCg5jjb+re329PrqculS9dVA3EGBkYtHAxOEPYnkAsx9z9gAONIvEYkJQAA88jvroq6udKbDZc7RUQjF7aodqqDEZLLke+vbNWSU88auT5Dj7jUyY/Fkwy4JOODx/01qbIJWLE+GR2f0J1lunFrOWqyE3uAi/pW3XDqi6UfT9oi8asrH2Qhvwr6szH0VQCSfp9ddh9G9M2rofpam6bsgJii/eVFQVw9VMfxSv9TjAHoAAO2q0/wBkzowdP9EHrK6x/wDxO8oVpFYcwUgYgY+shG4/8oTU18ZvifB0FRUsVNQrc7zcM/LUzvtijQHBllI5C5O0AYJOeRjT2HQsgBlf5JSvlkqHCGNHtVPT00D1FVUQ08MYLO8kgVVAGScnVR9ZfEihqLzCnTldcFQKweqEY4bGFWONu4POSwHtqvbzfeqb/BS3bqC4RV0Uk00MNPFgRJgrkqg/h9NwOfKc88GQp2ordbKqKsqA4MSeJHt2ZyvmU45OMrj3J7HvpOtqvfxlAs1pvcm354J+ioRQ2c83cdLBZcKutn2XefwaesSTw4zFEG8QsuGO3dtUgZ9uewyNMrtUVMDC23G4mCpVQreFEoVTj8JVsYPOPfI50t+2g1PJkmlhUM3gmIbQBnzORkFgMcKM4GNDFXUvKN4TCSoCjFjGrc5LFR5nPfHIx3xrBfTRPd8IPkugjfJa17KOr7Kl9raKKJkiEZMocgQs2ScDKknsByPUHjUPcem6wV1OlzrHmjp5WRkR2RhtYDzHGRktgZ55GiKlq4RCiVFkpmi3g+N806ANgDAzkFeM48p5Ppgaj7w62yZKitRg1OA8vhVTlpWYhlAJBCuAOAuCO+fUNxiSPst2VHhsnxIe6iavsteivTU0cCTljLCDlX2lVJ+h/PJX09S7pfq+GPoaW2L4sal1rIFKYlllA5l3e21QPzHbnUXdreXr/mVpI6tiEYxxMXii3qoxg53EFx9QTg8jgJr6uqo5a6GaWOpZZWaOZw24seCRj/D+mdNNbxW5DuEkS2J2YatV0/D+tuDGsq6l5ZaZFiCbYsLNG2GJbtk5GPxdxkep09lFHLe3hlq3CySKUj2bfCzkDbnkY3N29ME51XPwz6xipnmkqEPhyuDPCuWU4zklCcAEknjhTnAGdOOvOohFUQVlqrGNU7DzIFc7Noxhj3JPfP56Slp3iUNaO5ORygjMSrETpy108kmb7UW8UaGNRt3NjDBXYAgBtwORnaR7nTnrlKmzWKSOSlkmmZUijWTIVseo+hPt9eedVnQ9WX+41NZmkhuUV0XfDD8yIzE4zztGdrAb8DIwDnGAdGl2Wrk6XtcU9bT+SjHixJvdoSFwEI5Vlz5jn1IA47GmpmshvIR9+7/pAZMXyDKL/n5usmtEletIZaeKNZI2aoaVHkUHjcigjG5Rj0Od4BJ0afDmkp5K24yQVs9PCZZVq3JQY8i4JYgjjKkYAwF+40D2e61EtDa7DCaOohZhHK8VQzYJTxSjLwYyHVjjnJQYwONFNjlkk6cuyPFKZGfwpalogfmiAV8QhcgccHHfvx6EitEDzYOQ62ValrpG32cdPK6hevZEvVziora9ROlQ4gj2wjDhHB42nO4gD7ZPbXnWVFHc6KnsEhkuNUiNcAvjKWTbl2QMnfjccEnB7+2lOlYoa69xVck70ksZEcTEAnb5izIG4LHA7j15xpxaaKGb4iLLNCtVHDBI0bMuxpQHIwxUkAEHn04Bx30jTS5JOIdANe9OzRjh5N9EHQ2muqorTLYqieOoiBRoIwSrlQFdyNwCkrjOQoGM8nuY9MQ3Sr6eJvkNNXVENbJSQPJgv4IZmEZxkAcg9+zHnjiN6vvFBamq6m10lLPb5Y5PEEzlfMwOWGDk8LgKDzgnkcaQ6DuEdH0lWxRU8aStIlVTpCQYhKAqIScZSRSoz2zknncdHNQ+Vj5iRbwQpYomhkcYt5oZuVHUvVXRpaUHx3IR1IAjTaCOzZ7+hGORqV+C7U8/VkklcjUfykTvBJESY51ChnVg3P4XV1OMEHgaR6nqYKJIaStmlprjPUmGCQKCwy6eI3fBwBwpyTnjkg6KuiYaq33ys6lr5/2hUgyPiYmMtsGxgyEeUnykggDyjVqd94SXDT81Q6odoZTr+aKJ6xr7s1zuMFLcxQ7d6GrlQLHIo4w3JGSuc8Y5HHJ1LdPVfUlKErZL4OpqStQ+I0tNEnhugzjaD2A3cdsdtV91lVz1t+MDxB5ZCS2WGFc5Y4Gfr37cenbRp8MqtaLpSupL0tRb5IoQqVVMSJKgjB2sHzkYPBx+H0wdK+7sdTHMAR4emvijPkyyNIvdN4vivUWczxUFipKSapkMztTp4YLkY3yrnG8sDnb/AA4B7amemOt79c0uNy6lpXu9EmxFpqfMDUgQ5MsCjiT8SlstuAAI9tV1T0lDd+uZK2tuC0lNSh6uSc7SePMNsfYsQeD2B/TV3dLV9FUVs6stOtMhQxSJHhXJQbTn8IJz3xjnvxjRw6PIAQCbcwhyxWu7VBPUnVPT166eihSompqumnNPb5SHkZ4wcsZG9FYYOeWBUZHGpbpf4t0nT9bDaXkjqvlR4cdVbYCySFwDknjJ4OSOTkHcNDnxQo4pbu9VQTytGM7wQB4bdmHbnJ9STnHtoA6arXoQ8zxrPPUytCB5ZAhx/wAUJt/EPKM5Azj3Oi0TxnMjRYjol6uEGMNJuD1Rn8Q4OmL9dGv3RciW2sNQ/wA7R3GOSJZg+MSIrAqpUlgwHODkdjmN6OttxsvxBttrstLHNIxSrFZABII43JLmLIKhFK4PAOVweRoz6escFJ0jVVDVP7SoJN8qSZwxO3LBcnvkAnjAweOdVhUXmlDC2SLIkMsjbD5WK85GeQFAP9dX96dJIWsCltLGIwXu2Rh8SL/UVXVbopkgSmTzSUcgdy54IXngew9MnP1JvgFT2usuil7BTS2mGOWoNbVPulpwF5fcdqRr5jk7edxIPtXdhs719KkUdTBMZSIogYi7rgbgWAAOOSDjPYcd8FvW1BBbbS9JQPBEJI/Eq4YndY5JGQr50BKsCMjBzxkaoHR0jQ1u5UyxvqQW2t0+6U+IN5m+Jl+V7K8FJ0jR1XhMTJ4aXDwxsLu2cbeMIp9OTktgDlP1tSx9S+JS0iU9LSEU8RLEpKM5YjAxuwPw++DoUFrnfp+esnq1iSGVI4qZj4Yk3fiaNAMAAD20QdAdLvcLJRvW2wmnnlx4quAY5Cx2HDD0wvbI7dudUdRRzZ3OOgvYDlfc96mGR1NlYBr169y6QsN/tNg6OHz1cIUfe9OvLM5POFX+L3/qdc8dfJJ1R1/Cqyqq0Vs8anqYpFVC53uSB6szNGhVck4PBA0XX2krrBdqa5yTV1PHRxvDNSrKJklkIKs3mx5CQO5yNzYJ7ahOues+ja35arobDcKK709OI3YPH+/x5lDDDcg8FvKCBx6aXw+J0BBGpA0RahscjSDex36KJ6At9dUXW2UghETUrLUiVsSxkKJAYwVAKqXlJIJHJP53pRNb6qvoqWs30tRLTrFXwzBC0QiIWMZQkA9xjPJI4GqHtV6qKXo6+TWqSqo7hCipCFkWZFZnHJZRgkb+SQcYGTxp/Fbb5R3WO501Qbmk5XxzRSoMnAbOF4Iz+YPsdOYk+apA4ugHz9EhC2KG7Ib663XRFbDboqWWIyTLGJxUsWkLDxACc45+nbQ1G1tNynucSgeGny6EjJGCN3PoCVHH00JV16rY7OayCnqY5I4yxExKtGcYPA5OOcjRLaadamGERsxp2jDAkYLAjOfuc5/PWXUtaNGDdWp+LYmRyqj44metvUFdGoeDwFgwDzuV2I4/83fUr8Kemqy61z0zL4tIo8adEIUsVXOWJ7DOOScacdbskF8lo1EZ8HaVUfwsRw3tkZJ5GpPpeuio6GGO2neVYyVEksQ/c57Ae5wBgH7/AENGSsNmv0aN1otbI2O7dzsrTFdS2WgWmpPl2qvDR5l3hkiGONxUYA7HAOWIwMDJFe9V3OCqio6m3TLcgZngmdkxNFgcjOPKMdgvlx78kqyXf5qNrbag8lykYneyeSM/4pMjkkZzk+gz2xqourpK2x3qtpobg8lzrJ0kef5oBDHECcccgAZwCewzzptshqnhrRYch/JSzIxAC5xudyfsoa1z0cDfshpVnkkqS1VUSRiogCBgQrtt3ogJG4g+3HGNWP8ACOS6VFQtvhpkZq2Ny0M6spiCl3Jdicliqlc/X176rW0VEM9H85JMibpVgileIHYhYfvJAvA9FY4J9e/OiX4f1d9aejtsKWu2NFGZH8SD/wCdpTJt8eNj/wARslkHOAEPvnXTU7SGOb/sBoeV1kzv7bHg2BOoty71fVt66ntnylJeqbdJMpllqAGXO5yqE8HBO317kge51Y1DcRUUK7GWeknjyYpFDI6kdip41XXR9fYbnUz01XClZcEcGonK71PhZCk/4dvbnuc4zo7ieLdsjKbV4wpGBx24/LVqRxLQ57h4dFnYgxrZC1jSDc69VEXzoe2V8Xi2CojtNWDnwJw0lM/0B/FH/wDkPoNAtdZa2wVoo7tCKaV8sh7pKPUow4b8uRxq2BgrhuRj30q86NTyUNZDDV0kn/EgmXch+v0P1HOrz0kT9W6FCp6yRmjtQqoEsUSAjYVHJbP9/TTJ5qaU5adAc9x/QaMr/wBDK0Mtd061TWxjmSglfdPGO/7s/wDeAex8330BiG2JkGjlTk7gI8AH8h9O2smSF0R7S14pmyjsryTw+WE2OOCeM/f31kdS4iDtswRwAvfXqLbFAdKdWJ7b4+x1jTUyN4mwZAxkH+2hOcAjAXTV4Uk8yrJG3dpIscn6jWqiaJtu7aw49fN9NO5KqnCjeXXzYJ/ppuamCUqEm3bW5BUnOPQYPB0A2KMDZJrOwnaF4htUDDg4znWzRjgozISM8jH6EdzrSd4nY7EO9hy4GP56xJdqABWLY5476psrjVbOJmPmCSEcZMWTrNatJMDjxXXjsQDrNeuvZQiaistsuAaOO3UNxifyRGjvW8YGePCkMgyPTsOe3bUVe/hp0rJBufpG/wBuYKJGmihSSMLnGcwtFxnjkEk4496BoKKoLh1eRVHJySePf7aNLPXXOlhzQXm50jYxiGqkjBHvwRxo7p+Fpmv80sylMuoFvkpGq6D6fz/uV9kh834aqJom4IBGJFXnOeNx/LTej6NSW4UcNXcqMWszotZNBKGKxEjfhQTlsZGAc6kKTrHrJ2D1PUVXUIjllNSkdR5iMH/iKSOO5Gm3U3V01D0/UzVVBZWqplWCnqIbXFHKpJ7grhTjjHlODz6ahr45nZdz5hFMU0Tb8vVHHWnx4mobtJRdN2Sgey0jCnpvFSXxCiDap27lCqeMA4wMZ76pmo6su11v9RerqlNcDUbiGql85jyU2AfhwMtheF4/Iu6Glhkt0CV0rCorE8SMkeJKeTuJ3HaTlfbPB9NT9LYqGapimhYPIrE5RljedzySR+HAOfuQO+iySuILXckSKKNlnN5qOnuluprHTJFLKlRIFhAkQBmKgBVj7kAED2786b0HUaVkU0M0EkdNHHiDfvmdjgFU3emcbgQDt7dtCN3qpen+oJ6aKpqo5GV/DYOGZZWCg8AFcnLDCgkj24Oiigs/7ignqfCoXo6ZI/CjOdzDcSzN74Yg4/UjVXMLY99CjRua+Q6ahPkRZblSy1E0MaFXl2NU+IAcEJkj17cH2H10pUVCfNvuq1pUEyGFJYsuZQPMqqp8o8xyc4H105go6WWjnnWuii3RtEAsXiHzHO7OcjOMdsnsM62sFho6iNElqJIal1xtVgrz5z5QeSGyAcfbvpUEnROAAaqPrTbzPFVQyQ1AMSciPz7gw53DGRn19s49dRt7Au9iqVnhkhn3J/8AKMpEpBIBKn+IBjjb3JOew08vNDGbhTQSXCnghqJlgYiTzwsO4AAxnkYywAGTt5wdunun5qy2C4QmteCKobY7IoMyA/j2F8YGCCobeCMkDOthtLOyPPpZZclZTvkMRuCmFEbjJJSpOJZHW3y8F/DkmcA8xlVySMg47sVxxnUR1BbKeeuqkSkuNTGsWIZGkEKo5DcMQWDKdrHuC3PY6Jq6CZr6zz0ZkjEfjxU9PJnwiTg78dgcDOOMMcc4GpSjc0r1FwoZmaeRopneTw2TbGPKpBHlQAgdxnafTSsZZFIC9EkDpGEMVX9TWCKkiMlBTtEuxJ9sEpfbGwyCpP4shSe4PYEcHAhW1MtBWSiCVqinfGTKhAZsd8cYIOrK6hqKD5apSOOVEETzJBRDYqujGTByWOzzEjuBn6DEB0jbT1JfJXvMEVIlJHuaYwAbiyjvz5yACV5HfPrrSdMzIZOSxuDIHiNt7pPp+yV09N4f7X8Kqq2jZ4VUMSCc5OeOBzxjvj1OnNJcerei6ySsoqx2pBM219ys6DkbtpyMH27emrPpazp2lg200cUIEZMbYAJbAUAFeCSO4zkAZ99QslN+1o4xSBqpZP3UP7osDlslfYsc9zjHPfvpFtQ1w7YWh7pK0/tlDHSl9sbVVctb47S1JhML0rJGpYsRIZAcYbafKyjg9++rOpet6Do+BbPFLDcI6iJBBMWaNnjJdjvTjzqxHbIIzhvTQX/2ctMiSUkFm8erdiTIKVdsB2HyDjap7n2H35EncfhlaeprG9wppjbrjS0zupjYzeLtYbUK4GDhxyMfhPf080NlPZuEaRskbMzrHuuoyLqGvF7Ev7ZngWaoWNW8IEP7yA+2c4IzgAZ9c2X0ZdZa/rC1xw/KqsHzMVW9LtdGQhlV2A8noG4wWLHAHGqGqqWpoAlBe4Kiqp6ad1ppKdwB+MghQRuUEqW2nHOD68mHSfV9rpekqjp2jpmguBJxNVgq0frjYOwYnPOce+pdEIwbN+SH7xxLNvqrA6ir+nK27CiqLewgnLiJXTG9o5BulPPrlQMHt3HPE1b6G1w2avxbo44paWeop2hjdEWSNdxLjLNksQBk87TzjBFA2K6VVv6jE1TUOWFO8SqkYcGNvTJ/Cec5AP1441ddZX11N8JFj+eeWpnlYnfUAh9yjKlVPY9+fU499IGAxRHI7flyTbnh7xcWtpdAsNohvV1kzSL83Xl3lpzMzN4JbaQqqM8MpPBywUk4Azon6eS40/T1VaXttRSVfy+9VkTySweVhKpbvxjjPPHHOtek6qGlmqfEegkuj0OKVnyWEhRH8RPXnDgjnAyQeSAR9MQ011pIPmr06tLSsG3VbFUUoRtXcpxliDtPoDjsNQ9r3Q5G8uiI4tEuZyALZZh1Xf66pjaihEdTFCXld0ZRIQAECkKoyPxNgcYzk8TFZSS2G0NQyvSVbVgPiGFQUVlIyBkDge49zydNKW72DpqWosQrHr0q5DlqJWEbSoPINxKjkbscnG5scnIk2gtkXR5u9PZjUUBlljFPOqqEfZtDsw4dMLnO7k/Y6EZZHw8JrSO/qicNomzk6cgq+tkFVNXSz1AMdPKVDTUy7jEWYKh3chQDgnvnsPbR70LtMVTDVSy00U0qmndMiR0XcrOB6kMBkHkjkD3Y9I3Go+bjho6enqIFaOOoDuppomfOw7cAlRkE543ebjjRbB09JDaKiewvBcCZMtBEcTUwAUNuTAJUADBA+uodJZpGW6l1yRc2QX1+om3vRVBdqlR5lJyBuK5fgAnHPH0+2hu3dOXaSoRlpzWLE0cCRR43PGXA8UAD8O/Az2zk/XRmlrqKyngeqrI43l3RJTKmHi24LNKvOF2lSoXuT3JBAT6faSruj1dCaikkpwVZJZNzOFQjOz24Bx/zHjjQaSZ8IObxRJ4WyAWOyKayCqp7ULTTU08tI0XgrErhZIyGYlWI7NkkHIwRkaqSa3JVX9oaemEmSZJt+CiJuALMAcAZ9j651YFgjukFCaSrqFqDclMieGvnSXcXYFfTO5ufXPJ7AD0typLJUQpMojEcru7OucqX5O0jkDDHBwMkD01QOcyUkakqzWAx2PJF1JRN0708iwWwQ1rEF/CkwscYAO9uCQpyfN7aW+JHUM1Dc7bS2220daJIPExPLgoQy7WK4JJzjzAds86gk6lqupKyelwjw0jKviyxtlN75ZsqACQAABzw3A1t1Raque+UFynrJaGertWwySU4aMBdyqUxjIJydvfv9gxq1hLx/P8A0ly27hY63UNT2ujlFRXXF6KaprJkjhgZXknAPLMBjYBjJ8xHA5xnRRequ11dnjsvT6YqOA8uw+HUlCxUqxbap524UYO76DKPTL1HT1vgulwqpkjrpBHVRR8NIAvlkCsCTyfQdmxz21GdM23fWrLFTmP/AHdizTRjmLLqvhzOAQSVDblA9F7g68JGcI5Sbn07rfyr2fnFwLDX73RnU0NddPh9T01VA0dxyd+9eSFClmJ78K2MjsQcEjVS3igWAyzhRI2MOzKrl0BO5SecAew78Z1aNlvXUtBZ57fdqS23CjiYIRCW8ZgXBBLA8qMghsE5HOqtvyvcupZKe2QVfgzVMrhIoyGOzLAgDJ74HbnXo2uEgIO4uoBBDgRzTrpS1Xr9m017ipZBT1Uvgw00eBlADkkjnsoyRz2z20Xzzfsm4Q1dluEkDsm6SKmClck42vGwKnPfA5O4c5Goi43KazfIUxqKi40nyiOlMNyxU8p5bykkqckAYxnB4xra6tR11AHpI9m2LM0hc4BCjdx3Bz+XA0eskc4Ai3juhU8TRcHbom/V3Vt4uQmtSy0U7ybTuJWPYGB3Lnyj1HfjjjT/AKJ+Jd8o8W2vitL09PGqxzmJs8DsCrYbPoSCDj2OgxbNZqmjSpuk08VRUuzhFVi0sZ7NkDCgFSozzye2iXpLpSnlu1PcpAIx40cklIpIJhzhY8H1J5yD2zzzq14Q2z0Mwvc7s6AJr1KlQaCaup0uCVUtSWJdFkLnuZMgZKnI7ev5Zjrfeb29KtLeK+kt9IsZ2vJD4MhwcHzRA7jzuJODxjnjRp8QYzY6N6i1SJFQJI6GnK+enZj5V3Ekj2xnPbVQXqtqhWpPURzVDLnxIGHBVj+EYH4h3J+v569BCzNkyjzUyvdkz5j5K3LT11Sz2qO0VVpWGNgyrUtWNJIygZ2njzjkEZI+o1XXWSi+9R1NVVxRU4VFhjztRuMYc8FM43AAY5P01J9BxrHVSLO9NUR1AjTwpJ2jUjkGPII59Q3uBqb6htsFmucNvrzOlbKG2RqivIhAJB8QZB4GePbvq7YhTymSMaqhLZ4+G/S6BabPT6Uyy22mry00c0crKYnidBtyhTJKsAAd2VOM4yc6J1v1nv1ZZv2jaUuEdDGKb5Z6lwYk3NuYSAcehAyQCfy0L3+uFMXgprYqFoyEldcmR2PGMfhHBwB7a3Tw1aGSjjlEEkikRzLsYFOGcqhwhGduPxEge+nmZpm3elHllM7Kz8811rYKbpi411FUWOGeggp6AU6Wic7FQ7mczMmT4rHgeIScYPAJ1NXnqHpqxUnjXW9WqihD7cvUoDux2CqSxOB2xqjen0h/7N21LjVGqYyeJ4ccQeSNn2hceJ5QcEE+h9Maius+nL/a7U1QtFboLc58REhjUSqNpbcUYb1787W9QOcaHHWujBjy3Q5MKY9weXlX3aOu+i7kY4aHq+yTzSHEaGrWN2OcBdr7TuzgY76IZyUwGXa+MHIwfz1w/wBOUFtulVBR1M3gNICqtOgWHjcCSG9d2ecHnAxror4NfEi3dSUctirKiOCtoB4a7wY02JhchnJwp4IBOR2Jxt03x+zcpGSgLT2dQrOWd4nDK5GD3zg6TvlqoupFaoEwobwBxOOI6geiyKP/ANhz9xxqCsnVfTXUE0kFlv1vuE0YLPFDL+8ABwTtIBxkdwNSSzMjDa3roTp2nsuGio2FzTduhQLcIq63VktBc6aWCqg/4isAeD2YEDzKfQjg6YSSIcbVI3JlQVxx741aNdT2/qW3pbbsSkseTS1Y/HTt/wD5KfVTwfTB51WPUFFcbFc5bZcoilRGQ8ToxKToezIc8qeefTkd86z5YMozM1C0oKjMcrtCm7rF6qvfGcdv00mYowQXiUgHsM54/XWr1QHnaYgMy8nBBA+pyM+mko6qISthoNxbacOA2O4J/wBfrpexTd17+52jdTvkkYYYAz+etjCpLjc8YHAyu7HHb8/016J9obcoIT1Ulj34x7nGsMgDlS+4kZA2gEDBxr1l5eoIVQAzy/TYQBrNbxCJlywCnPO1sD+es1C8gGKgFKoYIGXuuADj/P7acR0YdlcMEZzkIONwGORz206gP7vxpUI9GTPY98g9s/8AtpTckagJIMyHIyCc/Y+h0kXFaLWgbLWONGf9+I0448pwcf00NfEOkFJDZq5xL4Fweop0kjnwu+PaSvAOciUHB7jH5FjI2P8AiSFidxAIBz9ux1LXm1UF2+CV3uVRSy1VT0zdDcIlMY5R0jWRSPVSgY59NoI7aJSOtKh1X+PzQfaXov2bBSOA8EKLDRR4Eky7ACuRnIGMkjIwTnsNN7hdKqht9S1spPlKhYUkU1E+ZAmBk7Qcd/NyoIPYg6C7vdBbzT/LZlgQl9niEbC3GMg5/LscYOdI1F4p5YGWjqUrKmVC1SZEbfuyxyM+UnBXORzjPoNakdG+XtkpJ9THH2FI9GVNdebkLhc3ieWiVkgVkBXz4IIxjHmPfk40b2SpjkuSwwRwVc52xNtCvuySQADtGTzyT3B4Oq66TudF+0apUif5qrgIQg4VWDEkKSeMjLY9841K2XwYLg0Mssqxz7xG4GzL9hluGweMgEHBbHOjGFr5gx+jV5kxZCSzVyPYbRT2yvFzqWCUTVBpVMcrGZ2UAucbVwAf4WYEe50BdXRVg6oFbboJ5aKTEaUtPURmQlNrEquSQAWHmBySRzydTj9SRS09ErRUiSwoY4xSSMkaMHPmAJyvGfNk7g2c86gbrPFXTLUPHQRlDhRHFtwnPnBxjk8HB9NNOmgjkytZ2R6pVsNRNHmL7OPokOt7z40IqZLSlLWwyQ1Enj1iyDYrgnwzjLkkDPbGGwMaUsd+pK6svSyvJM89Us4qIRIwBlA3Fg5yOMgnuGJ5xg6ken7O95rvEld3RwQ7gCTeNu47i3Occc5HGj6nsvTlHY447TtSuDvNG5TO1hgIG2YGQctuyy9u5GDd9YJWlrAAB1sqNoXRyB8jiSel1W14r4KE1H7Mauhglbw3XLIXkBJCBsncoUhufr7akoaSWshtfzL/ADdMUCKsGASowW4IGW9CSDpbqXp6gpqBZK4TU9ZC5jVFlLFnIBBVTknJPrjv+jPou5/NUVSLgrzImEg2EqkRA7ggcnGfb11mTSF7SW+a1IIxG7XVEFVbaGht8EUFNFMY1MefCKtJvfgHnLSDtnA9e4A1KtabbaKBai6WqaGq2BV8Vlkkh8/nO0jkAny5Pf3zw3t16o3rxKrGCo8WF0lkbBjKsNqjy4zknuOcHRT1fXmuua070kqME8BlLl0LFifICBzzk+xPp21Aga+B0jyQdAEQyPZM1gGhvdVR1DT1dNMzVlJUhqvBikiI3SI5wGXnIIZQeBgDjs2iyxdMx/sWnmFZMowFWViAV4zhz+EndkZX0xn11t1bRfNTUsEb0xqrlP8AKPIy5RXONpPpnzHkY9sDAOvfhtSw1XS9UErGSdfFWrilAkhpDncMA4DKWBz3XBX/AA501DTOmiuzYJOarZTzWcdTslbtQr81X2tp2eqZYxDIg2xs7bcB1c7uTkZLED076mJE+Rqw00sYlpovCZI6gsrnaFwqNyvZhgs2RjGANRtj/wDiEsSSW95rxNFHIu+UoNqZDJyfLt8Nh2LDxFBwActb3UW651FLPBU0MUu2RzTU6AlNyqVDjYq7gW4ZME45zk6ZaA2EvNte7v8A7UF73SCMX/B/Sh731TYenRF1DUW+eWuSRookiA8MEhwzZzhHG4EHk5HYHB1RNdHXVlSlXT0LQiU7EZSSZCPUk92PqfU51c/Vlqgkt9O1O81TUVDsVjICQTmNs+IewPlVl3bRk4JPJxvR9M0F76Up/BkCxCKRhKqLtgKxeKVbHIyxKKSApYge+mDI8MbG0XH36rKdSMfK6Qusft0Vd9O0dx+Vkq6dfDkpD55JSAyuP8Kj0++jt+po7p01ulnjo6qSnk8UNIVBlQrh1J4yy+Xb3OO3GnfSMdpo6Sso7l4FOgc1UFfNGArFRvaNwRxwGx7ZwB2GpCzWW13yzVq2CU1lLU1TNBDs2mFTGGJy+AFL+4GM8D01hVM1nuBGi06caC+4VYVdwq7jVrWQxsaiHyI8kmwhOwxjHI/130eWyKjp+mrVDDXVzvGJ6qnhWo3SQbVAkbJ2gYAHYdlHftqGFndKWmgiSklYnZMpl3tuzjyDGDznjUX1T0/dKSRRE6w08JBQsPOSP6H7HXhO2SzL2CYf2TnCMbvabhXRUNSlRGyQqsSyQDYz7MhWIGRkEscj1z9dTN0uFfRW5bRc4KlqMU+8w1Hh+ZWO8nsQTnJ9c5I9TqorbcbijCOrqaqGjjk3ssXJRvU7TjJx7ac3rqm4VTwwVVBIyJ5KYxtgKoyBgc5I7ck+2rcCQki+il9SxrQefglrHMk1RLT0VPG/ixgU0yt4ZifJOcqByM45B4OM9iLd6Or+v6Geilq7lQVslXURU8paMNOYgT51Y5JTHlzgLnOM6rK1RXez2trvJ07M8R2SCRTHhcgjcTklDwcjjGRnvpC6/E/qClraeQW6qhKLiBJpN459VYAHsccH1I1dzJXk5GgoMk0bAMx+RRl8V1W1VNcf+0jVNbO7b5Vj2sYy27bjvgbuD3+g1A2Xqi9z22VFuFRFNuWFJBBvjdgCMo4ByT5VI7gHdgjOhOsuv7Xhq55hO8tSwDORgrMDngnkcd8amuhrzT2Csqd0DDxGXMtSSsknHGSGwp+xx751WOnYxjjIL/n0V5J3vLQw20VtUvU1XaOikSG3Rx3KCnDTkhFnUuF3bWLcvtyOBnDd86rfrG49NXCloJrVb65ZIpQalpAd0hOdi8ZUkc8Hkemc5171P1PbKaWU/tTE1azzyIoLbJB+HDADB/lx37aGTPLXboaaudFeWNwVBGHBO3cM+mT5vroTIrPzuFlcTNLS1pueaPOhLtHefnBT01QaWamk+c8ACGUKFBlG5TnH4Rz3XjPGjTpy4U1wqLb05VwSTGkjdo3kAYzl1DqgJwSNuCdjZJAGSTzXvRVP8nTLeFqYJopJyK2RZR/u8hGCvh43ZKd2AxnAzkaJfip1bb6W3UklJOz1itGnirlAykjJx6/hBYnnkY0y6KJ5LSDdANQ+O2x1TabqawLPVxzLKtQtTvXKhXL8+TB5VVAyCD6jTj4dVsU1BXXC2VERRIkoXknIbmQjJOe3B5YDg+vPFcdSV0dZWS+DU0iyu7SxmnV8MS2Qo9sZ4PsMc6s/4JpU9PWiq3SieGpcyzQIwljfHGVBACjIOe5O0c9xoLaaHIS8kfdGlqZG6NF1YVkmSDq2qpUkk8MUUMs8jJtnjl2kHwxnlGUHL88kZA9abusiPe62vUSwTrMfkzG4ZI8tgbiP4+F24PIJ7casC8X97dc5o6Rlic0UdG0bw71kDlgrDB8rgYyR64PJ1V6RJSVjTUNxV1heOO4U8wZY5ohIfOpzuVQcE9sHkkjQgI3kNj0t3IkZkAL3jeyKmjrp54/30UkLJG/hEZWN2IwWI9exBPfj00463ttsFthmstZBUZYxV0YjEbbQwBfjy5ySMDPcYOOw7DFe16rqoKuhuEUzPHvpopfDdhlQFKNkLgY5HcYxjUz0rcbbbUrpZ7QRPLWNKjeD4ggZoyhGGILxFwrFWPG1ccjXjC1rDcovEzEKLulqNF8nUXGnlAbCJHE/7yENu2x4ONp5YEgc5OnNnr53EWJqioigicGZlb92zDbGZUyGKBiAADjjnPbUZUCupJ56+KrFzq5i3jxORvTjz7VPCqcgZGCNowONSdvjrbbUWi5ybltlcxggRJWkYNAcgSgLkkFmXaQGDDOBjiYKR85GU+fJRLVMhF3f2leuorpbqako79TJUySYMkPjeXEfYkfwgFyuPTPuNBFVXSC6RUy7opZNqzTOOxAOQuR30f8AVckdwjhqpJpnrYaEVL06yhhEJCSNjnncSeVPctnucarkVMz9S0k4QJGgUeKcALyCSck4PJHJz37as2K0mg0Xi+zbHdGFqp6ETzNbqx4JkpQkcBjd3ml4Phsc/gYHzH+RxjRktPDeunovEsqLcKZQ1NJOQwV2GTFkAYOVyF4x7+4JW3F7XXtWXJ8NUE1IaGZSsiYHAPO07QpIzu79s6P6Tragrnms1nWWjaHaZ1eTzvGG3+FnnzcAg4yMe51YkhhLgSO4ITrGwba/iqr6op2BEs1sNPJSyony5fG11OCScZBJzzzjPrpPp9/m643GSkhEEE210lj3RysR5RtBDMOCCw5J5J9pXquSeW5GjCb0n/8AmHL5JViSe/bgj7D7aTiuEVutFup5KU010uNX4gqUkZSEJwNu4FNuck4GeR316mLuGbeS9OG5wjyw2er6iMlZReDZmp4fGkghh3wSKfwqkf4cEAjLdh9Ryn1HJfmnMd6twrpKaIxRTxrvZIWXPmByQnBz9s8jS3wtuVxvPUQlpq2eumQbd7Ve0bDksHUcFdpGFOfTgE8T3VNKbW3UiwR1ENWahPmapVYpV7VVgGdj5FBZFIOcngdtRLTvyZ3XsobUNEuQW5KvaNa1roKerpo6Z6yheoytOkwEakMnAIJDAdgQ+MkgDTroqjtlT1BFNHbPCmNDtldKtfDZt+wuUPIB8qlSTlgW9c6h6e31NZ1ElJDdBAlSvi1RPiIsYJz4fOOTwMA7SSoyedFtJZ+nKCqE5pqqonoKXdHPSCLNUXQhxMmRkZKnG5go3AEluDsjYG3c4Nb1uhyyHNYC57gojqUXLpHqFrhRNH89SPsaQuyGmBIymPMFJIwVwM5GdFlF8YqemTxb9RSvFtIb5CAmWGQc7GjLcgg5DA9ge/p5dzPL0ZZLhUW8tVPWmFJJUO54pI9+GPcjyfi7859CTArY6e61iW+V/li6KhLAbGJUebykAjB7EeugtezOI36j8svSRZ2Fw3Cu6310NXTU9XTOTFPGJYzgglSPb0PuPQ8alqqkouprQLVcHWKoiy1DVsOYJD6H3RsAEfmORrm+ydV13QJuFrEP7Q8F2zRu4jhjdCFYxTAkHPrwckDtq5Oj+o4b7ZoLxSQVNPFIxULOuGDLwwBHDDPZhwe+rvL6V/a1aVnOiErdNCEI3OguFrqqmhutF4NXAxSWPIKk4yCMYBBGCD2Ixpo+xXWNt8YbOf4cevl75+2rputFF1NZ1qIctdKONvJtB+YiHOw57sOSv5jQG9oURhpFDlz5WKjtjuQpHAHqPbQ5ow2zm7HZEgmzizviG6CoVDsPHdQxyrFo8EA+2DyPrx9NLxx1AjU+J4jNzw5Uk+p2nP6Z0TVNjp0DeUZfhvORgnsQpBP2501msrJI6xFk2gHKHcW+2Dz+mhJi4UJH8yUBWdwD/gRSP5dtZqSqLU8Mmx5G4HB8EDI/Pn9dZqdF5CiuC6NFh1b0POeeR7gg6W2oAznad2CNrfix2IB9dMNtPTAqrMI6hs49Ec+p++MH6869WV0bw2IKhgG9CvsRrJkdbZbLWlSUzIyB1kEkXccEhfTk+mjT4JXCKn6kq7LVndT3KlCKGGRuTOF545Ut+mq4+ZlgBwx8N+cqMhgPb1/1zraCtkgroa2gmNPWwSrLHgnbkEHP/TQYZDHIHnkpmj4kZYmfxd+Elb01e62eCilrbbPIXp6jYXEeSCFbaMjb2547c+mq0pbNFEDBJVQRTJ5PEkDIgXdg5YE7cDzHjBx6HXdnTV1o+sOlqeviVA7IRJESDsYcMn1wf5Y1V3xJ+E9FdZDcrG6W27xEtG4BCv7q2OQD2zrvoIo3xiSMriZKqWOThyN8+a5iu9kaKtp5LWIDsCGKeBvEQLjEZLN/GdhJUqCCNS1yo/2isNXGYlgWLzGPAYPtxhu4U/i44z6H117dLfcOmq6soa+llo6sAw5kHiOVO0DaWwORkbhzjHrqDvtXLSXmnudHz4jBJkYnzhSRtYdsbQOPTAwc86SLHufc8tlpCWNjNNbr2qiMMFbJAj+GFj2eMm1lJ78gntg4++pDpwxxNDPcKiSKOnBZWyCrsDn0H9c6Trmo7jbnktzxRzTKniQSTKAihjycY8vbnHGNP5rfK1ggpZKeJHGFBQ5YnucAfp/noEoJGoTULwdtka2mqM90p4oquSGmqJA0kixB/DO3AO3HJyewPvonL26GGNjJGUiY7JajCl14GVyvlYsp4zwPUc6q6hU09F4sU0iz0yna679xOcDAHJx9NPSGrKcQVGXLwtvmRmwh4DHb2BOdxYYGQeNLNjDGHkeqffIJHNA9FA9R3h4bzXTXVVWmqapxTSRIHieHykp2AAK4IwD+IjRL0lSRSXauqJoI4op6WnqgDOhdlmB/ATyclWyOCFHYDjSdosFP1Nboekapo4pqOqCR1jJskipdm8ghRgk5O31I5OQDptYrVHZ4Y3gqZpimaR5PKyK64ORhmAU5yO3B++tiegbHTiVuoI8NVgUuIPkqnQvNi07b6clMy0MNLIYw+5sBo38MOqtn1f0Xn2yDqeh6hq/GpY5YfElgkMvzEfmJlKgZ3Lt24znjkZHtqPuVLUN05QTR/JmGAhGZGxIIi3LFQACCTjJOcDUaxWkrlCsaiEY2MrZUH1yBgj15Gew1jGMPIF9F0Ucm5spDrG91Vzt00TOKeQVKiWoeUHYcBgRty2Qw/EATt4xknQjPc7tZ5bpdaOkqY6yqoUluaxr4aNUByJgijs2GhkdMZHnOFGrJR6yp6bjqIqFKCkDGNatIV+Ynmc7h5sb5IwACe4B+h0MzUMdTFVVd7qAlMaoT1RSbciOxZBMER+TgkcLu2g+mteBoij4ZBsR4cljVYE8nEYQC0+PNHXR1xpOpbdbb1SUa1UUEjnxqin3PvMamWNExjYPKN0h8xxgAdwLqapNwuSCdBJOk3hJU4kD1AZj523/8Mc8KMbcEaWpTBb4qVaK7GKGWJXjipm253KdoC/UEdx2b66m+naak6mutFDb3ZKosJBDCCYAMbvO5JYdiOASM8emgz1PFyQxt1vyTlPCIs07zoBufmvbp0/boOo6u2Vk1VUx00qyCpWWdY4n2DCbhGsYdtwYNj6dzoa+H/UEXScNeKSrmgmqYgAZImm2VKSFwCOcHDnLEcHHBzzMdS3ayJbKqknuFcPHgWKaSkk8ETooVoiwfDZx6gE52Z4OgC49RW11lp4airgn8Y1LlpEhWR8F0HiYWY4cqcHHm3HdyNazcmbsmxGv9LDqi8M7Tc19Ppr/Sy4Su1kqaSsnDTpK0NXiYOr78+YFSQxywIwcd/UaJZ6+qsVhtsVDWePa1QLNsCiYBQN65znOM+mfTQDY7L1BW2MeBQ+EWyAXZVDj6bj6e/wDPVgXKguF1tNPT3mopXamRRBHTREBCBjczMMk/QDGuRxGWLMGki1zpuunoqSV4z5DqOikqieipEIoZaeQ1CB4EqYHJG5SQ647AYxg8j76F77WR3ivoXp99VWqGpZIw+7Y/3PbIHb3GnUkU1jo8b/mg2VWQuMqxHAPHC98/11lLR01AyVlNiI1JQCXbwEAA3ZPP09M8HSlMGtBfy5d6NUQEkN580zo7DLV3SFbnLFHB/wB44fDHzDAIxkk8jGPX89TFfR2toglJGtOactmdqYAgvwWPAGfRVI9zphWXu3pHQ0lLP41QkmZDGxPnPIDY4B5PHcY/LUTeLv4xlhWQKA43YZgAR3xj14P2zphpncco0BQ+HA3W4JCmZKqMzRI1ycHw/DlERMQkkz28p3EAHge/fga0gorDLXDMsxlZG4Eb+IckY5PBPPoMHB99MbWJ/EEs9XE1S8BU7DgKCD65zyCAMH076K+lOno6x6mqp7fCKuii8SOZgQryA8bST3z7+g451Iab2B9FZ1g27gh26dLfNW/56nip4KEMYpuT4hcAcsCMrnOQe3poBm6YvlxR5KFKieKMiMFnyO/bOPT1+uug+sqyktNqioK966aO5xzS1LBVKiUIoCttHlHAAySRtye+q/6Ttr0VvU09ZNHWOpEkYIKqxyVYnHJXnnOjiqNOy97pEwCqNiLeCrio6Rq6Kjira3MxdyrAZKJx5SW9dN47BU7THCZROMMh7g8Zxgc+nBGf76uhzFHTyLVyJUmJgw3DgsfQL9yOBptmmnklW0BARES00S+YdvKAM+5OMjt+sMxWR42v9FJwiJhuDZBtu6evDRpJLWP84oMKMjcpHgEgAYCjk5z3Ge2trt0/NRr8zU1ELSxj95JjtwRwCSvIz7c4+h07ud3NNUK1LMRUR4WRgMFiF4BGcnnT+2Uk92trXCrLK8dX4WwoAB6gkt6lQSO/ccd9GidUSHMSAOamRlNH2bXPJMulPh892t6XquSekoX88KAFmmG7GVXGEU4x5j3wQManurquDo+1xK0ddHS1rl/LK0kcUu1TsLHGWK4bJ/Id8kM1y8OFauWSrgikBR/ElDKzLnkgcIPKoBC844PGobqW2Xbq27UlruAeC00W1jGTgzTEZ3Y+iMFGfqfXWg9zC21tPmsp+Znav9gqzqOs66ZpoY6wvE5DSCZVKyY+v4hxnsRz+Wp/pe4U/wAxa6lpY6aZcqY8DEhQE+YscKDgD6nPvo6b4U2Q2xhFLBHXSwnw/EYKhYg4AyRzkf8ATQVL0JDbY4hU1UbSCMNsMgcM2OQOcD2zoM0TGMtaymkry91wb2RXLdag3d77UwxyzznfG0u6Jo1QAAAcH8KqOfbudD9Z1hb6jx0FNiUQyJI6TEo4LZBx3GPb66ZXeyypSLPVVBUumAXkJKqD2znQtV0EdOskdJGz5XCui8vn3PqNJxU7ZQSXXTs9cBIOzZTlkqP23fqRZKuESyVIIVtw2DKkr68E85Oe2CO2rZ6wt6UdggpiZ6MSZaadAMy4ctn1BIZzkkAndyT6UVbauooJHkq6Z6ieAgxqNg2svrk+YYB9Mf30pfPiT1LVhYYpTS0u4M0O7fvI/wATHkjWlwyW5W7JB9U0OzEqxOnbxLE09HNcGiMkTU0rQJtYqXWQAtnnawBGe2OCO+gDqMyilkhpak1EQZszCTJZs5JODzyM51DT9WVNTHIJ6ZN7Zw0bsuPy/wBeulLRfopFNNWRxBWTYHIwwHJxn8+ProPCmaATqAmGVEDyRmsSre6etlHdKeke9WqA01ZbFSSOnpTuE27jBjBO/azON2MnGT21p1L0r4dypOpZb+7TvVLDLPE6mVpI1RVOAOeMZJ459cHTSTrTpaxdKPCkFW81VI3yohjEZ2AKW3jO0qWx9sZHfgNvvxJkusdUr2pRJPzG4fb4DDHKBe3GQQc99ElfNKLgKjTFAct9vNHtPf8A5e4zx3iWOqo5UdafbTiOQAsSyl0wcHLY3E9/bjSEvTMN26vpqOS7vRNSVYeWKojLxx+UMvnUEYLFcocduD5s6rK3XvwkkhnlljUpwsh3hsZI5/PVu9C1FNdrXSyxV5FxDsjNLJuDIceUhic8gcfbH0BGDA/O4XTT3NnjygqYpZa6x/Ea9QrbLfVSyNVUc9LRbgDvOQ4bbu8MZ3EKwbB7g86K/iCKym6gqKmeaOWh+SNE1XGTJCyE723NxuJ7c8gdzxqKWllrLdcILfc5TcZXEUU4cpLCwUHCsPMPKDznsOew0PWquuk9ZDR36pR7VHHLTv44LLTGYFDUunqwOw55BwvK5OaCWSZmRzrBxNlTJGHBwbq0C/ekLgK4WubqTp+500bQziGNoQI2mVkJdAGyBtIzk5B3DGNOqLpr5Wjr4qC7rUTVFDBXJGKALJFEFLM7Fidi7WQZyC53ADtlCpoXquj7OKa6WqpjgJgSOoiULt8y+LIynsChwG5GATkEaZtVw3j4l09JbqN6+gqkigX9ozM0SoFVCAFw27ftKnkjOMHnTMDGBgYLEm1r767np3Ksz3l+fUAXJttpsP59VZQqHuHw+mgoawXC5WytRoqhY9pq4yjLvYEllXDkc+YFVzoK6buFpjSqqTUS12yNZoYamJPDjww3LJx2zwCuWJx+TnoygexdY3i03SJvGVXSTwXKmU+IoIQcA9yd3bjgHOoqv6fakMUrx00dPd5Eggii/f8AiyCXaSSCNqqPNnBHB5Gc6S92n44fl6+RCbZJC2MtzaG3z/OSQ6opKStqqIwu0VKIfHjlpoPGiRmUmVCxC4ACjPcDJ50j0He7nZ+oJK2Cnh+RmQCvijj2KFznciKzDKZwMAZBOQNPaapa0WKttZilrpJleCYpHJFGrJKy7Ccn90WR0DArlieMBSYq216iuFmuG+GrpqSKE0iwJA0k6schjj8fmAJUdmB4GcafuLnN4cv55rPdVsJL2DT85Lo/py8PTVkU0MmMMCGB7j0086utMNPckuNGoShuKsyIowIpO7pxjAydwz7n20LW6KaOipmlCmoSJFmCnIyFGcaOLVEnUfTFZYm2PLIhkpN+dqzKDtzgg4PKn6HWFQPLi6nd5eP9r1Y0RkTt8/D+kJI8iFkA2u2DhZPNkdzzyfbufX215jOxnkZWDMCGXdx68jJ9snUHT1NUfE30syrGxXwirh45AuWz5sFTjG305Gedbpcg4Us/hFseCrEbWzk4xIFOcDPP29tWvqjAKVLQFVMssSkjILBl3D3HHbWaY/tImSRxExDuWDGNBuz6gFuAe+s164XrFVIK6CSmdJHLZkxtHsR/r19NN4riZo5YpvEkeI7dzYG5T2Psdaw212pZJhuBeRVAZc7hn1PpryhpdlXUK5UYRWYHv3Pb+msshllsgvK1W41KbiibF7NluD7Hj1+vHfSomlmjPgFAOS/HI/nzpX5aMShZA208Ekdvr9dYYVidJY418mdpBPp31TM3orBruZRJ8Iesavo6/lap5HtNYyipj2/8E9llVR2HOD7j6jXStUkFbTrVQMrhgDlDkEHsQfY65CnaUwtJvGxhucMeP8vX21YPwW+JLWGoSw3qRv2QzhaWqPmFMT/Ax/wH3/h+3bbwrETEcj9isXFMP4ozs+IKz+qOmrRfqN6S70MdVCwK+YEED6HuNU/1P8EbHG5qLVW1dOETbHFIxkRB9+/6510ZWUsdTEaikYMD3APH3+2oGspVkBVhg+o10jow+z2lc02QsuxwXHPUnQNytdUXikRyhyrrxz99NqOSodmluKF6+nyWZm2gpjhwBgZ/hIA9j766b6o6QSvRmj/EfTVJ9TdJ3Ox1TSSwP4ecrIOw/P00rM0vFnJyml4Ru1C8Vwp/nYvETarrvbDDcCTwVJ9BzqaguQiVhDIzKdxKsikMS3cYzx3P0+mom80kUhgnWZY9se10AxgZJyMDGMcEY9BjGtrdLBNb8EqpOUV/R8g9vy9ODxpGSnBGq2qers/QIj6htdPfKOa7rXI1VSQQw8TlJQMeVsegUhVGOxI7aSslPe6ySRrqYhVUkAeGpSVF2xhtrNKhCqz5zt7kCRu+BqLs9RUUxmWa6GEywSKGWMFWyOVJHIyQOef07JdYXOOipVhej2y3AGUPGSi7DnJCngnOSAOO/wBNORzua3K3Y7j82QKmGIv4jtxsiC2y2ustJgprlIKqIBnpmUMCDn68HIHlPp76h46pgREVbYSVLJ+KRsng/wBMD00KWusEUj1NLRV7Vg8Pbvm3RlVABBBXOe5BBGOBz30QUU7fLs8USRyM7OpJHlJ5z75HvpOaIREao9PVcS9gimz1VJBKKa4XuoaMuuynP/Ek5JCLLhmRsk4wD6jOtuoLvNDXeJM9sqI4ljnennQLG2zchib8W7IBTIG7DZ50DyXyvt9fPMl7ngqXDBp0cFxuOWxJ3B57jn66jI7xb0nKpUu4n5Y7gT7evY/fnV2zOyADcFXMTS4lx3H1UXeq+SsuNQ0UE9DTzsNlPPP4jRjABwxAOMg9/TjnnLmzdV3S216miqZhURyo0LRgcSIfIwX3Hp9zpndIpLjWw09FDvlqG2xopySSe3Hf31bPTHTlo6dqzW2xJHq/D8NZJm8R1XHL9sKSfbt2zqtVWMiGd256I2H4bNUSZGfCNyddOnekbX03PeHkr+q7lNPPJIsr08Y2I7Kv42Ixvb6DAz6nUxT0ljok2UFtjhlGdkjR528Y4HoT7+wGnNK0kZhmMZLA7yH5Lk+ullVqqaQuFjLMec8JrmampqJnElxXd0mG08AADRoklhpp4szyTeKT5UiUknHYn6a8RVVQRECPUtuOTj3Bz/TUhTwtbKmKoWoiaXnGDyVI57Dt6ae2u1mbxpJaqFJIwGSEyDzk5PHpx/fSLtBqtLstF+SgZ6PbtNQzDeu4+baAD76RuPTS11NIVWqhbbwwY8AHOB6d9T98tU9xhjlpDHHU0s3CVH4TnjDqOcEZ5HqNe0geFKWOpIZ1w0nhgmPy8H8tEZK1gDg5UkiZMMpF1QfUdpv1ornoIlK07StNG8flRjgk49VOM8d9Ix26so4JElpisjM0iTLISGXbwmME5789vfV0Xy309YpEsZkhkXbIrDjH+Y1V9+hrbVcmpnZ3ijw8Ts3LqTwAfsCDn210FHiZnGWwuFxGK4E2lfxATlJ9FpGKuSB5hFCQiholQ4IyPNtP0GO49T+VofD6+w/s0UZiipnZ1+ZjhYbnUkA7cjac53BhqrhVVkTPBQwvKMnuMN7j8vT9dOaWmuFRcoxS07iOVywjEyowLD8x7H8hp6MggtfoCsSctbYtN7KzPizWTydHxVNFPI+yOSnDCMHPJTI4wDtxnHqT7Z1CWWSSiG+oVXjgowjtIokjQIqqSB6ngAD1550H9c3LqSHp1bJcqOpJp3ElJUCTDxtk5Jx7gnjPtqIrL9LDFC8ONj06BlDFfMAM/wAwc6RkonOAA6o8NU1pJ7kTXaop/mtjyo0sajsO4zyCProo6cmFZQ/IeLTpGsUSZDBcq8ioT3HCgkkc9j21RSVErOz+M2DyQWx+mndNernR1UdXTVZWWP8AC2BwPbGjfpp0Acq/qY1uFZHUcVhiqqqsDNSyRbSzsp3IW820KMMeBjkYHfIzy+oLjNLan2xwRyPGu2ISFcRqPU9t2B30B0fU0Elkmpq6PxZJdwlcqNxyBgA9yBgf1xpzL1QKeBflvMDzsZQAvGBz68Dtph0T2sDN0tx2vcXhGdFcqatvdT87cYxHQ0E1S4njIjmCqcKCpyzAkHB74wdI2i6Xp7JDdrrWRyTVsYmVUjCuCxOGY9uwBA+o1X1PcblUySwUy1GLniPMTYIhB8y8ZwDyPTvzooe4VFZXUq2ySKRqOm/DKqsAigBRtzwABjJ9caHUtcWNYN1enezO5ztgntyopp2WrYwRyTOWKqmHKHJYB+doHsM98c6ZVNBHRj5OKijmR5EJndYg3IJUKO5GAe+PT3xoo23C7UUIkESzeFlfAbG4exwTj7fXURUSW+mrvBemjWowquYqVmU7cZwSOPuP76SilkBy7pvj0726OCXobahC+PMJgwDIsSK67fTI5YE/fTqnttFVhI7c9FMZeyLKAp7d2GdjfTjUzD0jXz0FDcqVflTWRFoZF4MihuOMg84xknUfaen4qATVrVMLTRLtMKFlklb8LZA3c+vPHbn3h0jBcuNilX19Jm4Wa9u5Bd56UjFLe6irhuUr01Mz07QSqVRlP8S45QgHsfrzoJoKaJ+BGGz2JOuh7bS1lDHBWVFKRDLlXMy5WYFWVey+QZb8WPQ6q6b4XXeinCLf6Dv/AMNVkZlGeONp41o09U17Dd6yKmppOIOHshmqtscMMAY07yzx+JGm7J25IG7H4SSp4PPY9iDqJqLXUICXVAWGVAH9xxqx4unpaOEQxrTSSNySHdVzkc525Ocdu3OmlRbI0C08s9HHOWyvzhbwzxgAMMdmPGfzHGitqCPBNGKncy+ZVzArQVMbVEW5VPIbI41LzWyCti8eg8Pd/gV/N98Hv+WjdOkru1K0j2emmwAzPTVaAAHP8L47n8/b11E3bpOvt0TVsMDR8ES0/wAuxUtngeo9uQdWNS1zhrYoAjiDTleD9UMUaXGqrQrxCQzEREyJkBuwGOOeNWDY+nKunppKeluskUu1ot5h8iE84XJ9DnGPc6EKiirqapaWOCpikHO4q3lyOcDBwOe+j619TQlKS2MsIZiGT94IwoJAwxPOTxx35JOg1M0osY0/RwQkHObnxTe6Q9TW1qVZjUVS/LsFljrZI33jIV34O4A87Rj++t4YOsgiVNw+RzNHgOIOc4zkEnaS2MH7asq72+TqOy/L0zxx1aJt2bQcsG7DHP8A5tLdIdN1fUduNEKNYXokCTxVEoXw89iuR65zj6/UaQ95ncQxrQT4JvhQtBe5xt4qs+n4usDblCzrBQ7yvgS02UO1efw8jG4Hg+pzkcaUtSk3O4xx0MVDLKgd4l3BBvYeWNu7YZgcYyMcds6talsUdNPTlLaIi9K8VTIkpC1TbyWJG7j8A4HHPA7DUBW0lNbrmhjtzyGRmiO2QqjKT3I5II55PJxxnXuPK11nN07tLKckbhdh1+qhqu4W2yx09PVl5p5V/FOm9WVT+HG7av0Bx+mva/4i1dz6aa11KU6qGBgXtLGByjqwwGIxgL7ZHrpdLbBFEwjXdHISxDHcGz34PGNN6WhpYKlkitscKY3eIqqAT7YGtVsGTUO33WR74Xmz23svJq6814WrqpkhMlN4SQxlk2jJOZEVtpJZ3bBAIJGn/SlNcam6QyXQ0VXULL4izJS7JOyr5mJOThFGQAT6k6WoqA1TKVB74wNHnSliFMPHkXDn3POpqqxzYyC6+llSNgc7Rthe6IaGPbGN476l+nJzQXOOaM482TphgLgDWIxVwR6HXPRuyvDuYWi8ZmFp2Kk+ubRQR9RT1IpKoipiFanhN5TnhlUHjO4Hj/m1BSUFCr7Kt7ou4GULJCSVAPIxg88DIJ9M840XdSwLcelKCv8ACEslFP4bbgpxG/pkg8bgvt30NvTiCJoKaSqQMm1WSRsJ5hkEbu3Of5cjWvVNbnzddfVZ1G9xjy3+HT0/pMI7XTpvT9qoMOf/AKJy3Jz5ue/P6Y1ml6yOrjlEcVzSAKoBXxN3552H0xrNK9lOXKp6SIrHHErArGeWH+I9wPf20zZmFVEkQUsr4fI5C+uT6eh1KRRIBmSV5DjOFBAx9PX+mlIg0abIAEOAWKZy31x/nrn81l0lkxlpCVVjnLd2zn68nSBp13BC3PG0AYGB31KfLOASrYBOCEO0H/LWjwmPeeVQZ3Mcjdjn8h9TquZTZMBD3aFNrMOHHOPfOR2/LUdVJ41K4SLuxGVPlB9sYB0QPFTzFoxGoRwSw2Z8vr24zn/20jW0zMEYRxqAmC0nBb0HA4/120WN9lRzbhTvws+KVT0o0dpvc0lVag4WOb8T0o9iO7J/MfUdugYWor1RR1tBPC4lQOjI2VcH1BGuQ62mQHwJZocufMpIJP5f+2pToDrG99E1vhUUgqaMvmaieTanfnZ32t/L3Guioa90Ysdlz9dQNkOZu66WqYHjYpKhUj0I1B3m2LWQtEQpB9GGdSvRPW3T3WlATA+KhB+9hlG2aL7j1H1GRqTr7cYgZI/PGTwwHb763myslFwsB0T4jYrnnrroIQs1TTUzo4bPkby/mNV3FYKiGR4vl2kg/EU7lW7ZBP011xUUqSptdQw+uh+5dI26pDFIxE7eqj+2oEbDoVcTPZqFyesc6rJ4UoLQkjLyghOfX2PGrA6J6Hl62tNDWXeSSOnZmhp5mgEobwyVO1mJ+owMDjto0vPRVxtN2iu9qY+NCcujf8OZfVWx/XnH8tE/SHWVmr7lR2mvRrVcy+2OinTAfJJxEwG185Ps3uNKSxcA33CdFa6pZlGhVMdc/D2+U9/FqtGKstEGUGXaQM+pAAUeuf8AroBv9J1J0ndXtV/tVdT1jku0dQhk8XJJ3K4yHHfkH012nVWKjourobtTqQtTSNEVk5bysGB7cdzx9NSFXF8wocuQAOFXPH+WsSoxQRPc0NuFp01K9zGku1XFVhtVzmtk1bcLBWRR1EiRxyNSuNqAZLdux4AP01afTfw6sXy8VVcYYwkxICogz39u576um6U0sSFqeF5MkBgo83JxnTdqWRaNvCCwyFfJlexxwT741zdbjs0vYa3L5rZp8PY12Ym91z0lhslv6gqqy0UJpCgZELSlyDuw208BeOCQPfRJRUsbQLT0qyHcmZTv8pPpx9OePXUZDTyPhp8F2JLY7cnJ/rqRut5qppWpKN2LAeYr5VT+w0V08jrXN12NNTMjYGRiy2q6V6eQI1REceUqAd4H1Hp+unSUqRSxSSiRomfDRkgP9MEDB9vvpG0UUc9HLHkmsVhLl2GGXsAASMnudP6KaetzIis0kShSoTeu3GHYgjkknONDM7gUyW9CkoPlyFi8AysWyNjZGcc5H/XHfUu8cLFImiEbYGSAR6d8jIye+NLpUwU8ghqauGpRV8kcUOI144LBe5GlYc1FKIqQl8yxq6IgUrk4BOf14/M6JDK95ygXQ3G2pTGFah6gmWZZodgCiRSJF58x3e2MemtfkfEcxxMGXLYbHf1I/TU3drc8NJMKMSTRZ8F6gSH942cNsUn0PqM9vvpa20Ahg3yQSxVCkMSQI1xgZUoRye3PGcjGnH0HEdly2IQPfWxtve6FLrRGCVVUeXB3Z9+dCNypfmWGzw8R8ESAEMM/XVh9XqYwzbGIGUPODu9v6/poFt8iVV/oqCNzvlnCOR6DnOP0znQWsNNMEGuLaqkcCpOboiBfkq9IokO4wytHgA5BIP19Rn2I0mq2iguVJ+58OGIhS+O3+LIA0R10V5TpqhtjU8s5pa9WWVGxmLaww3POCR+g9tDUtor6iRhNUBVJ3AYK4z9da9TiFO1jC12q+e0uHzF7w4aapSomst5r6o1MkbxpUSwRDdgGNSDv+uc4H5aC6/o623JKitip40iThP3eQQPposqLXZ7UsdXfqqht8cj7YpaiUKXIHOB3P6aWhvdgR47dZW/aEksXirKkZ8MLzjLcBc4xg86yqjE5nv4kLTb5eq16fDomM4bzcqpqvpSljQtTJGWycI3btz350N3Cz0cMTST+U8DyYwNX1W9GdQVULV8vT8jRSRbxUQussZ4ypwpJ/T31XHU9lqGemSKCCSopZhI8LHBZceob2PodaNHiZkcGuclKnDmMaXNF1XMVDRNUARzSzccLGhY/bjUnBUwxVZoqKCGBywDyzqNyD1PP9tK18kcdasdYaihkDbjHh+BngAEgYx6gH7aIquh6YaWSnqrTNFKkHiRyI4kRzgMGEi/iGDz7djjGtqR+lyCQsW2U2FgiWv8Ah+lsntVZTX9LgKy2pXs8QCqN/bA5JUY7dx6gY06sFn6doKlS7S1FfVTmOQOrMkiswVY1CjjLebPm3EgHA7xQuvTdpltkkNdVRSfKlKmRaiRFD72AVlQBiDGFzg7ex9TqYtHUMNFGFtpoKOpEiPFNHTgF4yO29wWDAhTnPIP01mSMkykOfoe7z9Vn1lTKNY2G358kTdV2ubp2vtxtlvqKOqpGV6inmqEcZdTu9AM5HI5PYaf1lU7W+inqaGzSU1RMtOtW0TxneV3H8HI2k85A7DA7agIKt6kPPV5lE4zJHJ+9RnbPJx699N4qWgSqaogpIJJJX3JRtHK0W48cIrDP2/lpOOC1tPA8/wCEpTYzCAWzCx7lIX+61aW2is1AlJTzwFUWigBfchHiZ3c8lm/CfY9sY1K9Py0lLakuNFUiCaupjTyoYwniEKwc4LbWYnb5vQoCMEagoIY7b4jgVbzPCYWkqAqbQV7AKM8D3P8ATSsFRCtPDDJs20sCw0qlRtiUAD8JBGCBk+uSTk6mogEoLQNUlW4lSxD9km53KmIoo5aLwBLI8UeGcO58IeYsT3wABjHqee+kb29bRU0tLLFFGJzJPDHUU/huBwd4lfBZSOMDPpgHkaYPctrySKEVncOyooVMg5GF7DW1yu8dQa2cs01VWAxSTTHB8HcrAAjkEkHJ744BGdCpYA0OLjtyWbDiDc7Wnnz5J1T0loua01vkoUlkOX8KKmy8j7V3APlmxjPJIAxnAzpansiiU0tvt1uSqYBopIlWSSE55JJBHGQAcr2PcaYV9ZQy09PFR7oFjhZJGCBQ5I5GxSQF9Mc5HfOpqm6htiUhpVSKjpJApkp6VdkboE2tFgHtu5zjkcHXQ4Yx81xI8NPX8+6Ur8XbTuysu4XO1yPzy9EPw0HVFTeKqetrpJ6emjURzM6zGJfw4bYdsajDHB/66kbvQXP9hgVrQzywxhojHJAGcMfO2QxHAwAOS3PbHL2Sv6WqZo2YLE0kLxSFoSEQ48jDZ2/CAR2IPPvpea6dMzxSKaiGAPJHNgwBm8RfMRuAzt3Agj65GtP9GjkcSHt8cyUd7UgWcIzcW0y6fdNOmunFfp+Crqltkkks0iRrWVLqqbAcKQD5pD2AyB9tPqjo+rampKqnsFvgmmm2B4VYOi7Txh22DOMZyMc86jqnqawUFyjaWtdoJTvWZomAp3BJXdxk59COfcHA0QxdaQVbO732ADjaZIGXdnPO5DzgHv8AXVY8PyNcwuBPLUetzbTwTRxg3EzgWtPIh3pZDiUdzqjU2uG709ju64MsNSfE8UgYwwJB7e3IzkZ08t1iuEbP+0K96eohzirpasmMqBwfOTggcZP0xjGpQXGwSy09bJVxvMjFlzCZSOPQEeU59SdLfNWmurGu710TMJFZ1lUjBA77QwGTgZwP56k4DJLGOHIA7e1xp53Q3+18EIILTl8Dv6fVCFti6jWqjEtyeuNDIZaWeUlY6qMyFRE27lSSx2nuM55GctrVfmqqy5tJEsPySl28Zwqr4hwgUZyxy4B2jAOeeRqwlntdTTUpkrY6t6crIXIGSR27jGc5Ge4B++qz6voKDqHpehPT9tpJ7lRV6VFPNKxQpG0zsVG4Yww2k5zkenY6RnoWQStEjr/ddFgHtFNXF7Ymm1vTwS0gIBX208Wx3M0Mdb8o3y8rABsgnBGQSPQYPfU9QWFZFeSU8aMpZhQdOQU5geQllhREQZGcLk84CjuT99Aq60RkNYukp6YvBLkPdLWcU9OJGUAntnRMmFXAxrynRfDUZ4A4wdKOQvHA1iOmdIblaTYwwWC1Oce+tfXvzrxWyxwe+vGcYxnUXU2RZYjPW9JXmkixvFKzxcZ86jcvb6jQXQV7VLGJYYvDTypuYZYYX1K5HcZBPp29jj4avurJYGAKuhBB9Rx/noQktcVNG2yOONRJ4ZZZ/CUuDt3A84YFe+Bxrae0vponeIWVC7JVSs8D/H8JWmqGkViGhyGIYuhUk/XzDPGBkccazSCUjyF5XerjLuSFVgpxngtkct9fbGs0tlKdzBVh8u20HcRyMtgeTPrnWmwHcyktGQQSoJGffI7Hv66dxCbw/DwjqW4DLgqffPYflzpRJtmUM7qzDClz5i3P4ckE+vvrm10t0yMaQ7dxZAw4YnI4424H30sIAysYQPKx4G7kY47jGfoNOhGWQkrMuzgyFiAPoTwPyOkxkQgGnMSElSXfA49cZ4B9CNeXrpJY4t4wjPIF82VwefoOR/PSFVFEyhikokKgt3QfYjT14y6b0lEsezGFcMD9MEf31HVDVFPFhgAAd21d2FH2B7/rqW7r11GV4pwuIWIGCDjgn9MHQ7cY4oyhWBTIFHG3vj6/9dFFY6mLzTspwCTksAT7n01HSwB0IZRMG77Szf0xp2F5CWkZdDqVVfRvFW2+eWguMBDxS05KFT6jOOQfUHg+urn+Fvx6jleK19axx0VRkItcg/3eQ9vOP+7P1/D9tVDcKVaQ/ukVUIym4/hPtg86hLjQs+Z1BCE5kzz+eNa1NOWahZdTAH6ELuhYqK4QrPSSIm8bgVOVb7HTGemkgcrImPY65H6C+IXUXREyRW6b5q3BsPb6hjsxxyh/gP24+mulPhz8Vumeso0pY5xTV5Xz0NUQsg99v+MfVc/Ya146kP3WRJTOZqNkQeEjLyAc6HOqOi7J1BDsq6Yo6sHSWIlHjYHIZSOxB5B0bS0SMu+nbvyFPr9jprIioCr+U98Ec6iYOLdFEVg65Q7YfmLZTUlDd6+prKiIsgqKjvU7n8rZHG8DAI47Z5ydTSYyyeKWaM9gvJGDkn01vPDHNCY5o0kQ91ZQQf11B11vuFKRLaqjdt5WCpYkAeyvyy/Y5GuflowST1WxHU2AClKjGDubBz5Wz/XSMgDbk/hxtBI4PpqNhv1HJUpT1aSUNZ/HBVqEEmf/ALb/AIW+wP5DUlHIs8bRhzFJnIBGseow9wdstKGrBCpHrmSG23WugpVRUiZlTaAoDYwMD2GTqA2RBVSNgx7hm5z+X886sP4o9Hox/aNGuyLJNXBnsO+9T7Z7+wJPbVeV6SUsqs6/iiXJx2OMf20Xg5WaBdhh9UySMBp1UtGsQpkLyCQOSz7GG8ngH7fnp8h8CGONSE3KSChOP10PU0+QEB7kfh9tSAlRSAjEt6qB+mkXNN1pgFSyU++HMdTEzhtnhjJYgevtqV6Zgh+bneVZWWOMpt7bn9Ax9AO/v6aH6CsemlDxsqNgjnB1KRX6eWQNJIXKkD/Cqj6AcD+ujUukoP1Qpw8sLRzR/SQRQOa6crupkAUqvkpUPACj0b0A+vOdJeP/APEqK3M6LUVsiu6M3EECHJJJ/TJ7kk6gB1JTZjjmYR06JvTBwDL6M/8AyqMkDuWx99JUlXLaLbeeobnFItdXwGGmikxviUldu4Y4yOcew9NdxTzxNaGxnQauP1J8dh/S5GeGQOJeNdgPH8uUM/EvqhnscdURtaSrNLTh2BeSUl3Z9o52gMvPvjUF0X0/cFRLxPUNBWo+aeEqqgj1cliCeM/56FOqJKq43qnNOiyCkVfO5wFkblj7Adhz7DR58P7zR9Tzz0kF1jqamlYFqYLu2jby657jgjPI5+2uSxieVzOKwf8A9He32Wq1rIm8JzrDkPqmt/t7XmsLXS8zGTlIiawxxPj+BI1GM/X39daRU/UtjimpqesNbG7Fo1rpTIBxyRg7gO3BP2xnT+6Q01DXPPREyVFQ3+7yPFkpEDh2Udhnn2POmdsa40txb9v1tbMKmNizlxiFQ3AEYBBHPPI49TrLE8j4wLgjoR9FT3aMOzAJGg6Qm6hemuN1vcVXVLEqxhkCmLBO5Y1A4HJOe59dF6WGupKSK2WxKJVqfKZJ4SUZADww9/649dQqNYbI6T1tWPGB3ozoQQoHoe32GpS1fEmgn3RCOoYSqVp8qWabjGcjn1H20pNJVzEFgJaNhaw9FYMjjFhofzmjG1QdQ2Lpt7dQ08FyrBMSrJJ4ChW9lOTx7e+hH4i2GpTo+s6g6lY0tUrKYYlO7wy2RtDdyDwcH66j6zqvr6ktU0EBppkrDthFPEHmpiWG1lHBORwCSffQ4nT0VTA0dZfPlapX8WQ1VbPIiE9s53Hvnvk5zrYpsNkZ+5OQCdrfTuCzJHl5LWDxQ1YRcrrPNQf9mHqcZBNQivF/ynB5wfYc6ll6GHzTiAWcSKTG4EDQrGxBDINrqMEcHOfqcaL7dT1zoTDVL8q48KJqaNFZx6szqeP07amqOwVNqrttXFb3M6sYpawGYqoXJMajGGxnk+vGguxOYSlkRDfA39boww6AMvIM3iqsbo2+0hK3WaSqiaTeJYYozGrHnYSygggehJHtnSNRbK22QxoKaslfcqsRSp5Bzk7u2BwePfVx1tHZWMrxVElNNGm6MRqTM6diRHld4xuJJ4HbOdNVoGvFBEbXJQPRDY0hfa8zjkZUrkqR/hPH376kYxPYSS2sfz86pV+DUj25A35Km7RX1c9HWPK4ilpZNq7o9olUg4O08jHbvj21FWP4ndR0d1jNBa6ET0s/iR1OZFKMMgHOcA88fXR31p0h1JTO1FUzp4tSwNJUPGAjIWwQwQZGFz9SQNAllsj0V0ellAaZZjC+5gVLgkE57HJB7a36WuYWOluD0HRc7V+z1OZGtDPPqnVL1dfqC6U9VFa1inhkV1kWWRucjOAcgg9j7jOc6sTpewm722nqqW7RVKygl8oMowPmUnPJBI0N3GinoJ0qIxgU8TtK6gHuQOx41OfCOC7m5TU1FXJDH4YM9K4G2T78eVv+ueNCOJ5mZzsO9EqfZOmljsBYqMuq1dtu8ttq7ZXU5jJBlnCLGQP4lYNyD9Mn6aj2uMKtiTxYiDg5iJ49/f7avXqayGojiMSxO8e1DSz+fynvtOMn0GOe2q9orP0xcOuKm20dQaStCZankifdKgIOxWGFzwOM+g0ozEmS3IGg6arMPshR21Fig2G60soaWN2dYwd+6BgF9Pb+mkq2/UVLGWqZmhVR/BFIT+m3GrOvHw/SGAzyyfuPFU0qmFS6MeeccYB9M++mfUtJarHb5IbpT11wp54WZBBCqyIAe7E44wfbXm4k3MALn88FI9iqQi7bqpl63s7OpjrZHJONojbJ/lompY2q4qSohhqZBUviOMwuC/5YyBz3ONe0Pw/6ftsf7Vt7/PW64qk8chGDAAWDxkEZyCVP+erE+H93obqkVkuFulWpg8v4hgjv378j0986alxinjaXRtLreSpF7CxluZxsVTq0tnv1dQ224vcI6yn2tt2vNKvOGHcDBwACOQOD2GnNZfbDRzKtPdIEjJIMcyMPCA9DkDPtxnVvwWKrN6arXdFR1MZSKHw1DRFSfMGBzknAxjGpW1UVkulNcrF1HQxXjC+HLTPOGYKyZAUjGx+AQQRg899LO9o2zOaHM002O3yTcnsZGIzaQm3Ii6pqn666fjpUijeCSUKSrA8EY5POtbH1DBeJ3Slkj3qcHewTk+gzqXtfwWpay4SS29a6qo1pxMtNWFQyjOSBIoG5gB6jnT+9y9G9LdQn9k2r92FV2dXLLEwXzeUgndn3AGm318UsZMDiT6f2s+P2NgzgTi/8Ji9f1dHVwQWzpueanPMlTAyyucHlVUdsgd+T6acWWGqtt+R/l54qasZJjHOrj5Zh3HmXyg9vzAPbU10j1BR3epirLbeZIvEUOKQoivwQCfbVi21ap7rLLQM7RbR4kcikKzD2OCPzA++syXGnwt4bo7HzuuhovZ+npR+zoPr4oaoxUz9QRyxTAUy0bRPF/ikMisre3ADD89SNXeKWtudLZ4I5g0eSTsJ4AyCT6Z7888j30h15S3h7Jcrn0tQJPdFXxqui3AOq45kRRw2AMlR35x7aG/hlT1H7Onr7gViklYEckSP/AMzHPr7YGP5aoanix8UHfRWMBjfw/NWKEYIM9se2tJB66axywnc0k+dg9ZOx9tSFGtLBRtI8hMaLuLu5IXJ7lif76tHO3noqyRkJsBg+uM60kOMADg/XUnRz29wtWs0EkZyUjgQSb/Tlskd/bTGvY1FW80cCwq2AqKOAB/fTTHZhcIJ0NkUfDXzXcc4ODjnUFcZ6KkqKqeaSFA5YTEsA23cQOMduT399T3wxBN3AYAsFP5dtC91iqo46gK0gzPPjKH955iNpAx6nuPQd9b8Z/wCEzxKxiP8Amv8AAfynFvW5zUibJoZPD/dln4zj2wvbGPzzrNNIUuPhjYiwtk7wz+KCc9wcYAxjgcA5++s0HVNaKtCYZKVX5VFYlnZ942gZyQc8ceg05RsQhqdIoQT5PBTg57k8ev8AfSe4ojuPEcsCRtjJBB9c9x316zqQkcZfkYGWwGPqDzrm11F17K6yYSZpCm8bR2KkfyI/LSaJGkYnnaR/MSDvOV47EDj39udJytOiKyQIHV8EebGB6g459v762BcKJEWN/PyFJVv14B/nqFF0lVb5UOyeYKpzkKpx+oxpCWGQxq0MzoSeSd39mHP10vPOI5guXmjLhSI12umf8WCQf0GtYoN+7ZsKdgQm0/Qf+2vbK10xFNuzI1Sz8kE+MSCPt6Z0nVxI6n9zT7BxnH+fpqQqKdo0GxonI/ESChB7d8HSXg+LHhHVwOSPEX+oP9tWa47qDYqHqHKRMixqu7uNmM+2PQaga6ArM3hbWGcg5ycn0PHGiuogpmhbwpI42ByQzbjj3wM6jqulDRDBEsjf8SMLtEi47+/Gm4ZQEtKy6CLhGsMmSSVJI245H/TTZtyvGQ4hZGypB8wb0IxyDomnt8iRlIldoWJIyOQMYPJ/176GrhbZoFLRvK0S8ny8D6cdx/Ma0ontdos98ZarS6A+Od+6cEdJepGvlGMAtJgTqucdzw//AJsH/m10J0V1/wBLdaUhltVdFKygb4ScSxZ/xKeR9+R9dcQiAuAPEXZ7E47+nP8A006pllpKuKqpqippamA/u5YWKOmPYryNOsmLd9UnJA12o0K71ejMib4ZBIPp30yeIq2HX9dc49D/ABv6isQjp7+hvFKuAJgVSpA//V/zwfrq+ejviL0r1dEFoq+GWbbuaB/3cyD6oefzGRo44cosEseJHuEtcqCjrqdoKyniniburqGB/XUCLLW2wH9kVXjQDlaSqckL9Ek5YdzgHIGjee3pMm+klDAjgA86jp4ZYSRIh++ONLyU1ijxzByFp+oqVYFgvsM9tnZvDCTeZGz6iXG0/njQ9dOkKCshaKlYQFclMDj6cZ7fbR5WQQ1EZjkVWUjnIyP0OhK89MIis1ulmozjhYHKp/6ew/TVBTNfumIquanN4yqzvFlrLbUmGqhMUn+LHlce4PY/lptAkqbcBTk+vIH+eii4y9S0cbQ1jwXWnyDsq4txA9gykEahKqeNvNBQz07A+ZGbxE/8rDzD8wfvpGpwk3uxdVh/tOx4DJxY9eSShjZeQ2W58xHA/LSgdvGUhiFHcHsfvpEVRbgLtPrnSqBcZJOccjtrJdCWGxXSicOFwpez1FHFVQT3KjWvpA+ZqfxjGXUdvMM45wfrqB676pqLizo0UdPGk8kqwIWbzOxIDM2SxAOB9NLVdWsEDZOcDsNC1XC7UrVlVNGGcnw4ieQvufqfT6aYhklyGNux371m1LoY3cZ++w/NvND3UbmjsDxeE0j1TZZj2HqST/bQlY6+us97oLlaZ/lKmnk2iVhlWB7qwHdT2P0OifrioeUJTllEUADKoHmJKgk5/MfpoQp/DEjPOF8Lw2CgjIzwP17628OZeGzue64/HZi6YOB22XSvQVcnUFua6vSQU89Ry8KZIjYZ9TyRnsPbQR1VcrvaOpzGJfm5pm/dgOE+o4Ixgd+/tqc6Ju1RF0dDNDSeHKzrHFk43AADIAHYAD89CfU17ob7d6ESLNRVUZlU+GAWmk5xkH0GRkevprk6KjcMRkBb2LkW3t0XQGqIpGuvqQFJVFQ9zkdK2FSj8HfIGAOOT9D9uDpjDK1s3VDIZmRJPBjjlCKhb13ckYHtqGuNfKlvNPCnkhIJlZdh3MfMGA98ZHbUfR1lRFZ6mWvWKLw5DGqHCjng5I4OtgUr4jmboL7JZ1Ux4ynXTddW9J2ylqbVSVk8MkUbQQVEBkUSND5fwhlzhRwMHnjvzoapoqa/V1RPfad6adK40fhvNxMowygqMDJDDa3PBODq1+m7V8j07QGExIYKIKEXkSDGMjGMY4x786geoqaJKylqVaN5SQBHICwds5BOO5HoT2+2smunbBG15BuR6X/Nl6lm4j3NChqKx0NkYk7qNoiu50AKnLcA5zn21F9f264S3aC80qmqpKPY/gioFOiAnkl84x/nqQobxPVXxlrUaaUL51QH92p+vYrj350U0FRbailM6U8ZRWKBZI8AnII/F3++sSma4yCR+3O/MJ+V7o9eaAW+W6jsMlzazyR18RCiQyHbu4A2Hv6D0751A3CzVltvFdW0JmkqZHEsdItQIoULDa3pyzY5J540fCVaAT0lRPSRVNRUSkNH5MAkk5xwCc/qdQnTtkjkir5b1Ty0tGuXWtqFChFY7TtB7g+Ybs9tOXaZC2C5b/8AXT8HVRG/K27/AJKM6HobrX0VJHXtN8u5kE8dWqnwJc4LRuvJ5PqMHjtofs9lp6eRY1pkSNWKAN3OCRuP19dXbdenKQW1HoFaHwzsXwOMg8EY7EaqvrCeSivj0yR7UlgWVDtwAQzKwHr3HGdUrM4dlYAPBep5GyEuBQx1NTVEtHNFThTBuKS+7f6xpv8AAOgkl+INRVEpJH4wR0Y43+hU89h3+/fUki1M8bsuVjDFSjccH3HvoU+H96pOnut6aSqlkihNS0c2yXZ5W3DOTwOSP+mtDC2vlY6Eb6KazKxtz3ror4p9PmS1Ge3ztCDOFaWnkJkjLFcEEHgDngaj/mLbPTJSXKluKTeJ/wDO08eGmx/E4BOO5yOfcafz3+zUFPR29anxKWqj3hxiQ5IzkE57kBdvoMaftUUtzt8qW+N2mg4VFkG9M48xB54BGcj0xqzqZgc5rDr0+vLayzGSuDGh4067IB6V6dn6Xhc0da0kMxaeamdnlIUtxs3HgZGeB66jqmru1yrikNvpKWnJbaHU1BbkZ3DgDPfudG/WNkkr7WIKGtaeeNS5eMiNi2OSp7ZHt34Oh5nmslBJNWXEyrBEiRSUwEsTs3JkJbkDvgDGlZaeW5LwD4809DIxwu3dZcqK12i1QLJLTwwsCVCoFDEgbskZz2/kOdBXVfT9XPZJaywyiCsLiSKqjbIZBj29Meo0dJehcr7Ha53ppYWYxSlICkpiK52qxIGd20/QaaXurS1gUC0S0sEsZaGPxFJCYHcD375+p0KOJ8F5Oh8fX+1dziez1Te33l6ywxUL1s0dZsiepkeNSjOAQyE9xzyB/POvLdU0L2qvT52NZvFX91JlSEKnLAY8x9vfnHvoL6Ju0B6lq6Cr+ZgA8RQQe6kDDuThdgzg85JIGvb31AsVetqqJoqhRON05RVLgE5Ax3bjue2dGfhsmYOI0cqtmZctB2VkdLXWppKF7YsbUVQhkkacur8jaACn4R3PJ3fz0L9Z0MdVXvdImin+aJhqadEwrFfXtlWxk4Bxz9MaTs9yult6xjttvpllAjEjGeVZgQQD4ZYZBOc9semrAsdphvNFWVlTR7Iah2ilBiYEZ/jXcOdre3tntr3Cnp5cgGg/LobnxEZ+qpa5dLRUphqbeFSEEcNIN0Q5+3PpwBq2vhm9ZS+E53y5AJLNu8QewI4Qj6+3PfQHXdMiC4TW8Uz1FbEWUElgWQHORjI/LVr/AAigta26nhEjxKoDiViI/HPZh7Hn9B30S7pi25521UT5Y4SUS3eCopapLlTU/wDvDMGSYLtIAzwT+WcfXVadQ2anssgqI5FNPV1ICle0MjE+T2wSeD9hwe9z3KCApJbI6gpMIxPHECOQDg/l2/loInpqSo6a6lke30xkkpJYBPk7wxBCkdhn1yB3xqr6QCXKDp/O/Lms2ObNFmI1CEKdJkRJCuUbsRr27UMVxpPAlRtudwOTwfcaf2xh+zYcsWxkbm7nB9fr76eRMG3LgHGMj1GtON7C3K4LNmY4uOqh+nKQ2qJoRM8oZ93mHb7AcDREAW524HppsohyMKPppwj5IH8tHBZawQ2NLQi/4fhacz1bLlYomYnOM45/tqt4A1MWETtDUSN4haNnC5IYqWJJyw3H+eBwNWJG3yPQt1nVwkksXgoc4IZ8KP8A9tV/Rxyb2qATE7xhVAYq4IwAQp4zgfoR99b8jMlPGzuv6rHgfnqZX8tB6f8AaXaStMjvDKjRMdyg0x8vHI4Hvnvz/TWaRnp6SR90tGszH+N4AxP6nP8AXWaUsU9cKvQywAyCmKKwJYFtu71/DjJ1vDJG58aBGZQPTsv5ev5860eOVU8Ro38MDhpGyn5rt/oNN5MnzwqUCHOWJCduQM59/wD21zd10+VOAMTCpKNx2diQGJ9DzjH01s7SJIzCmRGUcYAwVz7E8gaSZXyzCQqFGc+U49fUcj6nWqzxsHLTERScZDpgZ7nP+vtr117L3pwjSvFlRFnABTd2BPce39NeeEQofcQvYZGcfy03gnjeIwwuzRx43ssnBJ9m/sDpzC8W7ctRjaedgB5/L+f89QV6w6pKGCm/GIAzKOWiYhsenY8/bWRQ024yU8WMrwwBwPucaVl8Rpn8KUBBwJQR5vsFOc/lrenZiGILkhvxCIHAH5+vfXrlesk1o8Rus8SOrD0Tj8z+vrptV0/i4/ebCGCqXbaDx2AA5/lqQYphWlmkkbuhaHAX9TgfnpvUMjy/vPU5Y7h5gPcgfTsNSHkKC26gaig8Vj+9Y5AwQpKt7n6+2dRVdb41cCnZ4jk5Bxhhjkc8j640WSRwzFfDWd2duygk8+mMf9frqOqKSSSKSUU85jLAsVXAJ7ZwefT203HNZAfHdBVZRQnxHURo4wPDzw3uR/o6h5UkVJVI8Rfbac59c6Pqq2yTAqaeoxH2/d5AH/L/AJjUHWWydiZHhm2jIZivIHJ5/wDbWhFLfdJSREbIW3bZOEk+vnwPuBrEeSKZZYZahJIzlJfEO5T9Mcj8tS09BMGVpYmKsp2yKn8j9fvpr8pUxqCaeR1YZGVPOfXn/wBtMhwKWIKPeiPjX1X08sUVxc3mkHbxzsnA/wCVx+L/AMwJ+ur16J+M/SPVIjpJKkUdY3/09YoRyfYNna/5E65F2g5QxOBnB4I5HuNeFI5OCM88hlP9NMsnc3fVLPgY7UaFd5/J0Nam+CUKx5wNMay01US52eIuO4OuRek/iF1Z0v4cdvvTPTJ3pasmVMfTPmUfY/lq5ui/9oS11Hhw9RUktskIwZl/ewH67gMr+Y/PTDXxv52KCWyM7wjevtcE42yx7W+oxoYuvSLM26AB8+nY6s21Xzp7qGjWoo6mlqYm53xOGB/MdtKVFkjk81JNxn8Pto93t5XCq2Vh0vYqiLh01VK/7+EjHAOCD+uoqotU8ROxyR9ccavmooKmn/4sG5fcDI1F1Vst1RkTUkWf/Dg6DNHBKLuZqtGnxCpg0Y/RUHc6KWSnkjLyJkYyhwf10A3ahqYndDWVeCckeIeddUT9KWmQH9zgEc+c6h6v4fWSVsmAMc9ydZhY2P4QmJKh05vI5c6UVriv9p/ZlPVJHdo2wY5VJaVMcOD+WD986FKC0VEHVaWq6QOskcmySIOQzcfwkck8gj3+2rw+JfwtqPEiu/TjNBXUygxmOUpkg8HI7H66Fqe5XSmqoqrqiyxzV6BkkqIUA3r3XtjnOc44+mrwPljBcxuYdOYP2Q5+DOWtkdlI58iPupuuqxb66lRY2lqBRpLI0gCxj0wv1PfGB3OompFtrOoY7jX2iGBZEMTAsGbO08/fPOPb89MLlfZbgJJa6oeZy4KR7CjR4Pl5Axx/PXln6oWjEhraOK5zZBjj/BHuH+I4OR9F/XWKaWZpMlu0d9VuRTwBgaTot7jaqwLCKWnmgVo8HB3BuAe55yV9PTI500ttlSputsts1O1RDNXxLKgIUjJHOT2UDnSV46i6krImlFSsTNE0RikgHhQHdw0K91IHG4kkjTS09XVkFbRmZxJXRA/vsY3Efh4xn7++mnMqC27SCfnshNqKdxykWXbFVcI4G+VMoVo8iN0PldfTH1HYj6aiL9Kau1SSQx7GijK7yvm/D3GhbpO/0nUHTlHXwToQzlZ0AzsfPcjupPB51J3SuSljrKKapZZJaYz0x3cSDsQD7646SoqKiVzJG2A0I6dNU3HTsiALd0MdE9aUHgXSkq54fFgKr4GQCe4JU+vp+vfQ3S18nU/VUM8DVjQxPjwAe6jnBzwQCcEnPGgJnkg6qqIKaaqjNVHtMyICySK4OCcEgEHBI+npq5OmLRabbCLnKiVRpZGeBWkI3E8yOFzyBxyfr766KOnpabhPdqCNu/6q7pnXktuiW0WqioGmrKspTVtZKrSJPOD4EY42hc4ySDnuMY05rLmLh8xbqOnhNJCFFM+WxUZHAIJ7gnA79xxqCuddSV1A01V8wqRxtSQxhVmV2OclDgbnxtyeeDjRXY7aR07EJN9TJsVvE8PazD8WSOwJz9+NNy0sbexGdAOmp80lxD8cg1unlsqvFtxu0MSh5FK4lchCwXaeBznIwP10D/ECGkNzt85bc9VC4xwduCuAfUcZx9zqYSuSeltstLVyQfNrIUcQ7fFjDZK/c78kA/wenOhe80SXeplqEnehmooo4kEiHbJxkkHkhQSR9xrPxKlORrG7kEq1PK2JxkfoAUjHaRNAWDAuGwAPTHY/X+2qzuvSAa8TETiCqSQupDYz7Z45x7dtWfS1VJFSTGtDQyEsIzIcRsOOVkU9+OzAd9RrU5rrrHU1btHbli8lSyA7uOBuHf76yKNlXSHONynn1ME92k6IQrLTV3Oy/wDZ24XCvo2C7qeoglxHO+ce2AwyOPX0xozst0k6Vghgprxb6q7xUJpttRIzhpGBBbABzgopA4Pse+vbZQVkz1FEj2670ow0R+ZQY5yBsY5B02unSqR1NPc2jwIWLeFVRNIeQScFO4yc49wPTjXR0eKXd+5oetlm1FPG8Wv5XQL8SPiD1R1bfoenUqKXp63MN1x+XUsojAw0jvjIzgjbj1GTg6J+n79B+0qKXp1fkbPWsYPlWlDRSebA2xsW2xjHJGMbhjGmlR8P4LtSVTVVekc0qkQ1lHUDeU27QjRkZC98rwOc51N0nTlDbqZ6dagTVFPIX3yhViAcHIbb3GfU8cnT4rMPY0ZyHdw69T9kmaeodIRGbD+Og+6kKXqaz2qqFbd6ymo41dceKMRNgA8DHYggD22+501626mtNdGYLbbKieummVoJUXBKkFi2Wx5cHH1znsNRNf8A/wAdW2kpv+0N8s9XXK4YxmtGIx2IUpyx98nSPxD68+HllprWllr4q6orZDJM0E3ipBFt2kEDOwtkDjk4OdIRtZKCMrjvsLBPvqGtdfMBbTdDxikhSOeciRa5WpqlMjfsfG7/AJcjHB9CAfTU9aulo6yhiq6hjXxqSgPhgKDuA2ggeYjv7Ddx661oYenurnhq7Zdoo5NrMYmYEBh2YEcfl9NF0fUlN05YwslErQCXxAiHCsy+Ut645zwNIGWRrMhuCOVk5mY83ZqVLdO9EwrWR1AzHCcNhMLgjHPA7kADVow22ngoBTCefw/DaV0L8suDgE9+CD299Vt0Xf3uNXO4qFq6QnLTRAxopIA2kMMjgse3p65xoyprozW1ZFeOQOG2MrkhoiOO4HODz/PR6CVkBc2Ruux/O9ZeIRyvIObRMqq3OnVvzFG8UMcUMJdGUHxMLzznv2OdBd0hksN4pxQMIKOvqy5YjIgckenqnc479xohtl0pKyKWO3eIxjcKQImBRNvAGQOO/fn+Wpiutdpu1TRQ1CxkU6l1bbkIeME8g5znQ6oxyBwiAsSD5k7BWp5XwkcTpby6qS6aqTeaD9q1UApqynhePYWyMYBJ+g7HGeM6Bvjc1dQ9MUNqtcopmrajNRUplfBiI3gFs9yN2PsPbVk2mlgpDFK1UkicRqEXZFtweynk5zz9tC/xd+TZ6SKYwMsdSxcYzlwnk7cEjcTj0J0R1OYoTOd7/Xn4pZlQHTZG7IJ6fp5YrVBBTCOnt8MYSJ2U7yPfH88nkk51PU8SJTBlJwfU+v103o4qmo2tUnw4APJDjk/Vv8tPZFI4ycd9KQhzn5ibosxAFgkSPXTi1wNPWIgUkE6R2k4+/fRb0LbS1R8xIg2qM8/y1s0FMaiZrAsmtqG08LnnktPiFPFSWq2WRT5pSaiUKQPKvAByfVj+e3QjEXaMtEyHeMMMHkY9T9vXUj1LXpeOoKqfeTCrKkSMuQ0aZwwHc5OTn2OmNSheAOqqCeVOM5PHfPb/AKa2qyTPKcuw0HksyghLIBn3Op81HyvJ5druo28Z2sSPfJ7/AKnWa32xdpJHgYcbQrHI9+NZpS5TtggGfwqhl3TEyBgQVjIB/M9tLLTtLTtifxGUf8MnGfuQftpUiMP5FYBW43JnvxxrFeMiONAqttG4bguD7HXMEnkup7KYG1XCSVWqq9ZE37lp1LMpH1LHsPYZ+vtpz+zKieRt9Uhp5GP7rjaR2wR/r6g63jkgkjDCQGNjtHm5U/X205BjUM02VCgYbIOQT7+vPtqDK5SGDkmaWttyu4UwkYih3AqMdgfcfTtpw1LULUpK9JGCg2HKLtI9AD7f6OnkUY2tuLAKOMIQCfoe+e2lKYbQ0jSeTP18px6knVDISpyAJlPT1LoHFNIi5ydkaYbHoSFJxz6d9JiGnpsZpiuOHEKtj9M/6zqX2qWKM3lIJAH4f5a2dZPDBiVS4/iVgcZ9s51IeVXKowxqXZhSKuR5t8fp986bQOVdq6CmlKtHneQQQo4PJHP+jqaCys/iSjewXBxw6/nnWkscvPnYOW3MTgAj09zr2dTlKg5oqkLLvSclRuIZCApB7hQcHOe476wUU0xdPBXMQIK4GSe5GfQ49+dSzrKzFhvQnJYjaSD9vt/XXkVOdsnhHaDnGEXI+h/9tSJbclBYh+e0uKECSj3w4JXJAOc8fnzqPqrVPG8c5JCnIG5C2fz7+300WpAxChN+NwO84yD69/X8tJz0+VUooI52kkrnH254550dlQQqGJV/XW2oeZh4TRMuAN6sUPfgY7dv89QlVbZYvLsdQRgJjC4+h1Z0tFO2RLHNtfOA2zYf0GT/AC1H11C8kcgVNyZCNvUkce3sf107FV2SslNdVjNnGJY3LE4CnjAx99J1MW+MAMXwPMCxOOe/v+uji4WOYhVz4w/wSKob6AMMDUHcKGqpWZHg245XceSPt6/cafZUNOySfAQhecyAhXbgdge33zpNt+VEeHPcApyv1yMam3UTL4U0ceR2yrD9OOdKfI0rqSGUKv8AEo/mdHEoQTGVFWi4V9uq1qKGumoaj0kp5TGx+/ofzzqzuk/jf1TaCkd1p47vCP41bwZsff8AC36DVfzW1X2+HLuA5zgcabS0DAYEo+zpwdFjnc34SgyQh3xBdUdJfHDpK8skFXUvb5248KuXw8n2D8of11YMclouSCQFcOMqy8g/mO+uDpaapChG8Moe5D7c/wCepSwdR9QdNPi0XKupAo/ApJjP3Ugr/LTjaoO0ePRKOpS34DZdrVNg3DdSTqw9AedQ9TbqyEZMeQfVec6orpf4/X+hdIr3b4axF7y058KTH/hOVP6jVs9L/G3pK7ssM9etJM3HhVy+ET9mzg/k2icOGX4Sh8WaL4hdPZQ24pIp+oI0NX7pOjuYbYqxk9+AQdWmlVYLpCJEAUMM5Vg6n7Hv/XSM/TMEsW+kn4PoD/Y6H7tLEbtV/eY5BZyoe4/DCdoiKeeBh6DBGhKToO426reoqKByqIxQBSVL+mcdh3Ouj6yx19MxAUsAeB2OmDxTxblkidM/4h30rUR8UHNumYZeGbt2XNHy1RM7xT2mYmI4d4+Ao9znIH66Gr505caa/rcRFD+z2jUJ++wzEqew7kg8gjXVFfZ7ZW7TPTgMDuDISuT9cd9QV76QpahpXpI0XxWDMsjlhkAAYB4UYHYY0tQ00sUhJIsj1dSx7BoVR/SHXb9L1Jgkoa6WleHwKiaCZG/ej1K8cj/xZ7caN6/rLpu/U1NFLdjbqiNhJTrUt4MmT6k5II4/DnH01l46CmpQ3g0cOwkk+GgwT7nQtdek12ET29CPUlNEqMGie7PbXuUQYxKzS6LrLeLVbmlaPqS2TBsGZIggdjnk5OeT7jQz1h1tCtb44uS+BFIz09MjglATyVA/qftoaTp35FdkcaOgycMeRznWkkFN44E1vQEcE7Bn9dZLqJjH9q5stRla94vpdWT0PcaeW4wzxVNLULMiyipqX3fvN2eAexOcHGPbtkasi3dQAyvaJa5rZNHKNlRKCuEERb1YcgMwA5ztAA1QljnjoJ4GoHEMbuBNngxruzuHtyBnRDfL9FcOi62O31FKtRBUG4CrVmMoeMnKA9tmRuByeRokAkErX7gaa9/89E8XRysPI/nyVs2ux3G43GaCqpzb5qJmij+ZgwwTcMHhsfXI9/fVJfGu4y3XqK8ml3LU2dWiklmmZSUVgSyFSNvMi8eudWzbOvDf+gapqmYR3lJ4glVKp2VCuFJGfouTjOO35AFp6W6QhiqoepLpUXaapYyH5hNvO5mcjYcsCzZ82ew1pymGOfiO0yiw6nX0Cx5ZnOi4e9/kqOsHU/VdLcJaVKupnWON2kilckKiKWPcHHA9tTUPxQr1tUVPSy1NJV5Idlf92RngBRxj76PrnY+kbFXTPYaFYmqKd4QxjkYhHGGIDYzxkd/XTbo7o/p9rpssvTLSrGMSXC5ymTwj/wD1xAhc+xbt30B+I0khJcy1vBZ4hrIjlYLhCNNd+rKioSMX2rFTNIoWOlRUJdjgAcdyTj89W+Ol7pZbZGeoet7/AFFxUGUwJXMscZGfKoHLY7ZJwT2GNK2ux2+y1lMacQtNDUJIwZQzMFIYkn39dF93pbXdZnmrEhYTyKD4rc+UcfZeefy9tYj8XYZA0NsPALSZh8ts73ElVnDdqqxXtaiquVVeoG2pNR1ErPIB7q3ORnuCB9M6d2bpG+dVuK29Syw24sHFFuKo57/g7EemWzqx7Z07aaeGSoslDbqyrjkKsolXaCD5lyCQGwMc+uiK93iw9N2lLpeJVpSUzDTMQ0shxnYqZ5PoT2HqdMDhSSl7W5TZRLLLHEGl1wqo6y6ct9DRLDV0NNHTSjwkjlVQpB9geM4549tBld8GrZXUXzVojNHUEbo/EkMlM/0Pcj8iSPbSN6uFNUIJld6iMSzSU1JLXBvBMjFm3SuRlicZIHoABxp/8J4etoesooK6tFFba6dXNDFKrpKVHG0EHC4HmYEE8aPHxY8zo32Hfz8lnCqjlIa9vmgCosc1tmeKawXOmrYGKSSUOXCkdjlWzgjkHS1B1rdKZTTXCaoraSDBCTxFHXnnB4yfvntq8fitLbrPXW+sFNJOJleOoEEoRxt/DgkY9SNV/cL3R3+oeGH/AHJ5MK3zkaKxUdtrAY4AwRxnvznTecOYXTNv80y172uAidYrToL4w2uz1irLQVVKud4doN6n6MB347HHB1eVD13091B0w11t8y1RkVgaeM7ZYyMDcSTgD2AGqOl+H9vmgLNVPM2NwMc+F59yD/TQ4tPVdJ1wt9FXSSLUeNPIg83hRoOWBHsNKOp4JwRCCHHkdk9HUSB445FuoXUNhqRXJE9LRVUZWoVHnRiCHIHfgrjv7jj6aYdaX+Ppy9HdFV1bVUYk8JJVRQdxUgnHfj0Gq56X67raulE8AepDAeAFYqgwiKvAPONozwOQfqdS8Fhud4q/2jdKyfxGGNufwg+3t+WkX0zYey8aDrYa9w+6M+Vpd2Df5p3b/ilUipqY0sEm5I1SJXqi6k9y27uMH0x/noit1ZVdQVMVyrKJaQxR7I0Ds/8A4m59Tx+mm1l6Wt1EQyxb275Y50TU0QVNqYHHfGqzOZILNGiG0lq2RMKCPb215Jxx20oQRyPTvpagoZauUKgOPU/TRYIS8hrBql5ZA0Fzl7ZrdJXVIVVyM86muuLrD09YUtlMW+arAVJj7xx9nc+3sPufbUhUz23pKxvca5sBeFUDLSseygf699VPeLlca6qqrxVSvI07gKrAKkY9I9vccep78+uusbG3Dae3/wCjvkuV4pxWqsP8TPmeiUoauOJkYTFYtg2qW3Ed+x9PzAGpCF2aPxVxLGOAcMCre5Hfse41Ah85VZEYMQSJEypb0yTnB9OMcj007ini+YjLjwJt7eVXPl4HY9m/Lj0xrHD1vlqkw52qI0mAAwQqtwfyB51mmVNOnh8THvjMeQDjjJxkZ+2s1bOoyoPbxI49rgPgHAYDJz6ZHr/lpRQwWRvCSSRhgbDhVH5+v66bQx0quZFYKoAbaw5x9+f004pVculSreNNOxG+RWGePvgDHbXPkLoEs8cfybGRcQ4LSAoMgY7ZB/tnWiUULzx1FSojVWxESmV2jthfcj2xr2TxlbxJCgUY25jP7vvnljj89bNM6v8Av1LNGMsycsfXjtoZCsClKfwGjEyOqIoJDAntk8Ank59hrFjZo3lpUYBny4YbhJ7nA7/fXglbxHZmHhMnlDDaxP3J4I05JhEW1pPCOP8AibVx39dVyq2ZeK0cbO6xJvjGJCkY4z3++lT808kYNNGdwyrq21iPtptSmlaWR4pQjqcysCwBPvzj+Wl/lsxiWN8FcsjIOcepGvZV7MFvAZtku+R5F9A2S6899wx/LSM7Tr4pPBJblkJwCeeM8djj1/LSqySxKV8WRkKeVnGdx75K6RA8oiViVU7vMu7nueD64wPpnVbFWBSbI8ZYIudrhixBZ+4O36AacRPKkpT358jP75B9/pj1GtafdLKs4lVTHk7SmFBxyT25A4+mvX8VixUrIZPNvZOQPqT78fXGNespukyamQl/DxKW5PIXA9AfbA+/J1vNI/jq8eDAx834TtBHbI5+vvrxHmgjRoQgaMFRwTgk5wfQ+vcHSzNJtQpTkMU837z8Wec/Q+2Tr2y9dJltsEjVLO+BhCIscffPOmjOxKoUmeJsYKryD69gT/LHOnnjQYI5nJ/Gy48nrz641sEhMuMKrIoG3a20ZxxnPB+41YEhVNimTwBJTuj8igMpfgY+/fj66jLhSUlS5hSHJIz69vp9P01OSLTEy7kQFsZY7Qv1Bz2+mNeGiiWcKyhmMflYEAD7kZ5/l76MyUhCc0FBlfYabxEw5RmGMYwCfoT/AH1DVFmmhlDGLcCOG/1/bRzVRVMdbGJKeVllkEUcmQRkA4GDzn8v117VUbBn/cNIDyxCng/TAOn46kjdKvgB2VcNSgnIik47FfNk/Yf30mKBmJkXzc5xng/lo0uluMik06BnB2nMoLA+ucjjQ9cIaqmOJIzyfK4XeMj7cadZK12yWdGWqFlpWUMGSTaxx5RnGkfln2AxMSPYHkH7HB1JpVzA+WNC6/iTd2+2dKpUCYHdF29xnH5HRgUEgKAMRZfOgB/5l/66QeijZSrQp9txA/nohmMRBDwggAnG08jTZqaGRR4SnJ/+3JuGrgoZCj7JV3mxz+JabhWUQPYQzkAf+X8J/MaP+nPjR1hbv3VZFS3SMYB3IYHP/mXK5/LQU1NKv4ELA+nHGtGhZCd8Pb1HI0xHUSM+EpeSCN/xBX909/tAWUqsV1ir7Zzz40Yli/8AUuRj7gasWzdb9MdQQBqSqoKrPrTyjP8A6f8Aprjp4jjAYr9NawwESrIgRXByrKdrfqPXTba6+kjQUo6itqxxC7ZegsVYMxSmNj33Lx+o01l6VZwTSVCyj0CsG/l31yhbOsOrrOwFJfaraOyT4mQ/+rkfrovtHxs6ipGVLjb6GsAx5opTA36Nlf5jRQ+lfzIQiyqZ0KuyqsNwgbDQ5H6H9NR1TbSvElMT90yND9m+PtodUS4JcrcScHx4S8f6jI/lowtHxD6YvWPArrZUMfRJArfp/wBNEFGH/wCN4KGass/yMIQvV9N2ipOZKKLd/wCHB1DXDoe1TElaYc8j0OraL2eqG5lK5HGMH/LSLWm3yruhqAO/00lUYNM7VNQYtENLqh7h0i9GxMCGaIfwOoYj7arH4iQVHTdSKyGB1tlRhKiNDtCSZ3YPqASMj65GuvZunGkB2sjg+/OhTq74b0l9t9RR1kLeFNGY3KHBwf8AWdLR09RCbPbcdeaZ97jcc0brH5Lmzoq+yrKZKemaNatDOgeQbWUHzyNn1yeSB6atfpu5K0qh6J1Iw27Y6jtzzjGPz1r0p8C1sNfG818uE9NFG8SwwA07sjMDteRSWKnHIGAcnVwB+CkiYXGNuPLj2x7aDitEKh4e0nZUpJ5Gk57FCdqkhnrJHqIaQUjKPDYnc7DHf2we41MNa7NUSJKYoGG05AG3P6HUmKekqSI3hjO3geUdtJS2unYbUTYAOGV8HXOnDHxnWxW0atrhpomtNY+nCFPyNOMtliAc5+vPP56fQWOxeIoWngDA7SMA4H1Ht20zjsyRu5V2De/B9defsplleRauRGYBWKquSB29Pqf10RtFzyD88lHvBI1cU9v1spIaQ1FBTwpJtIxgDdjt2/PVTdV9J3rqKo8dYooEdQGEUoZiR6bmHbAHHHrqy5qGtXzC81IIHBPp6emNRdP0/TpXftKFo3qPB8NJBM48uc/h7fnjOpIfG8kRHyKjK17Rd/yXO1x+BtafFd/nxISTu8NXySc+h0c9BdI1HS3gVk89XXVlJA1PSwrCRFEp9cN3Pf1xyePXVwRRmKFInJLqME+5750ujBm2nk9/vrVvLI0CR2nRZnCjY67BqgSntdVc0Mtxoz+I4DjJxpJelLLWo3+4Tx7Tg7ojHn8j3++j5wBzjg/TSLAZzjPHroDonN+A2TLXg/EEF0/Q1jiIZaEEj/EdR3UXw3tN2uNBUmnWJKN2ZVjJQNkAc45I4HGce+dWGxUfwjWhA7441RolYbgqxyOFrKEs/T9Bb/NFCpcjljydTIiAGNoA76UjjPoO+nKU7uMbMjj00F8TnnXVFa8NCan/AAjH5acR4wqEhWY4UZwT9tSVDZKiQhipAz68Y1P0Njp6cLJPtbHIJ9PqNaNHglRUa2sFnVuM01IO05QFttE9YQrKwj9SdT9wq7P0javmax/MQRFEgy8rAZwo9f7euoHqfr+2WkNRWhFrazbw3/dJ3xkjucjsPzI1Vt3u1dWXOSsutUZZXOFmcYVP+UYyFX6Dt9dbbIqXC9GdqT6LCc+rxf4gWRfMrfqTqas6k6g+dubJAgylLGkj4hQ9wRxyeMt347dgEaKrajkLIuQ8eGBz4bZ5zkHz9/8A21pW0mYVMsREWSNrDOR9yOf8jqPlaWALCxfweQp3ElDnOfqM41kzSuleXO3W9TwMiYGMFgFPBKeRkrIHkcMwDeIM4BJ7H15A7fbOlkZ5YDESfEAC4TOVPpyeQODj1GoSlqTE2+IjdLEQGZQpK+47jv8ATtqUxEEealAULjIwHK59yDyD6E8en10qdNU4NRZPBUBx+9klUjgAMycfkDn76zTeOpj258SbnnzMyH8xrNRmU5FBSwttjV6ZnQjJ2tgL9h759SedKTqkagQROGwCxZFRc++TnW8j1MVPshXYxPlAQ+bPcEk6do0EyN48KMccjaMg/fWIStlR7ncppxNlyu5QADs+gGnCpUL4YLtuOfxR+o7kHPH20o0dLLtihb94rAN+8xtHcZJxrempVwrwTSKHJcMnGT699UurWWLxOQ9HJIQoGAxEePQgHIzr0PlGEaoYWB3bJAShH1BBx+mvIqWpUs0kmTzyGxkfbHOswqKRFTUxJXICKe/uee2rXVSElHTwxDxd0Zxxu8XzHjuMkfpzpaaOOVUeRpDtYgFRux39uw+4xraKVAWeeJ1bZjwmIHHqP9Y05p2SSPIKQ7lzs8gCgam6rYps0TyVG9y+1vKoSPa5cLkrnGO3OdIxxvHULMZf3mAjRu/CrnyklT74/U9tP4oV3SSsymJSZCXlZQPYgA8D09O+tAFlLRxzQzNKhcKo/h9+Rx7/AJd/XU3C8mUiVcVK7TBsRy+XwSWUjIO0Oe5+ulPGlNQxRWMDZd1ZQTkegHcD6fTS2xfBYMreI6Z3rHsVcY7nOSTj0zpac7hkwF/FGVfzJg/Xdkd+w14r2qRJdoDmJZXbLLhWyfbn+H2x66wTxJKHWmEiZGW3DhvUtkcDj3OslhkNMCYmDiQHwvAZn5PBGOOO+dby4UkmJnVkG5TuGSD9sD7aropuk3NKWXdLO7lmYRHD+Dn8+O/fTglY5lhD4lk4IPGV9cgdjpNYpEoxJCWdQTyGBbaffjJHsf10nHTxo5lcoE52IgwBxwRk8+xOccatlUZk4zAcyfuVCgqrL5+R3ABxz+WlIqSJxhVAZjuBUcjHGRgDv9c6bVAklpRLO7zGRkyGZQI8fkMfrpYj5ariO5GYnDPIc4OBwdvAz7jVS1ezLZIHh8gqJHIHO5gQft6fy9NJiLL5k8Jgx43x+Y8/699Kv4wlaJGfaRmNGIZR/wAvI5H5g/XTqSWRpY9yQsMcgq5K/mMj9deBIXiVD1NsghaSSOMMjH/hMu8fU4bPv6EaYVlLDkKlOIznkhScD229/wA+dFDyRyRI6hyCPMmGX8ucH+Wkaqmp/CUvIibWyqueAeCRkDRWykKhaCgWss8M53/LxxSgkHacBwPUZH+Woe42GWFA7qzYzjAJx+mrSehaaVfLuRgceG24/wCudRldQ7GZPC7jIAlwT98/nxpyOrI3S74AdlVxpphIYdo+xODrSanYjayLnBBJTBI+/GrArbX4xMhVQxP4CO/17cD7ah7t01JNhkwHBwvmYZ+zKRp+OoYUo+JwQnHFKigEIwXhCp7D++lWaZThhwB3IIz9PvqWe11FPDhIXkAyC4fdz9ePT66Z+HtYBZdrcZDZX/MHTIcDsgEdUyAgl5lRNvYnPP8AkdeCkpyWEblXJ5CqT/offTqSBWIBXdnuwHrn/ECDr1KXLruRZGXgEqQ4H39Rq4cVQhM5qOYxMnDh1A3LjI9fXnSAgZoljqFjkfHZ48E/n30+qYV2eZquJByxBWVBj3Da3h2vGCKiKbPOSNhP05yNSHKpBUbFQIdwh8SDIHAOMY+x/mdaPQykbmEc3PBwAT+Y1K1EESHcQ0fpuUE/XnGtoYmLrKrK/uVPP/TVrqlkytt1uNvcrQ3K4U0gIG0SsAP/AC8cflomtPxH60ogN1d80oH4ZoQ/H3XadMTgoqzwoUPHnH9+RpOSgoSOYXjJ7bTx/kdHZVSx/C4hCfSxyfE0FHVt+NV2iKrW2WKYZA3U8xUn7Ag/1GiW3/HGxF0Wup7lQk8eeHev6qTqnFtvk2wzbs/4gAR+nB01npq2BmDg7B/i/D+Xfj9dNNxaYbkHxCVdhULtgR4FdLUHxQ6MrVH/AMaowT6TfuyP/UBqfo7zY7kgemqKWdT2Mcgb+muTVgj8AyyR+ET/ABIOD/r7a1jpDL5qZadznkr+7fj6r/00UYox3xxhCOGOb8DyuvDBbZRkYB+h14bbSkkwzFfsdcsUV06ht+xaW63imXHAFVvA/J/y1M0fXXWlGVRLx44I4E0Sbvrxxkc6v7zQP+NhCH7tXM+F4K6MNqfb5ahW+40i1qqRkgo35kapSn+K/V8KnfS2+YggHKMp/PB1J0fxmuwfE1hglXPeGqP9CM/pnXuFhrv9reqnPiLf9QfNWnJbKzbwi5/8Wmz2urbkoefXQLQ/GmmeV4pbNUblPIWoQ/ybB/lp/wD/AMzWiJtk9pucZ+iIw/8A21T3KiJ0kCk1dYBrEUTNaKvGBEdeC0VoYHwz37ah0+L1mJUfIXNQcYPy4I/kdY3xfshjLLTV20HGfDQDv9W/rq/6fRf+0Ifv1Z/6Spx7TWOoCxgfXXi2CrY+cgahf/5YpGIENouDA8gjw8f/ALcaRk+KkxClLS0Wc8S1KAj2/Dnv99R7hQjeVQa6v5RIph6Xmc9yceoGncPTCrhnBx9Rqs6n4u3yU+HR2yJScjdLJIUB74OMc6jaj4j9VVCKzz0sCsSMQU5Y59gWP19tSIMNbzv6qhnxR+zQPNXRHZKGJt0hBPtkaTuF36cs6lqqspYcDs7jP6dz+mue6/qfqG4eSoulc8bcFVJQfoO+olmKMcuxYYY7gGJP3POie8UkP+KP1/ChmirZ9JptO5XVffi5aKSJxaKOaukU4BK+GgOfqMn8hqvbh1d1D1bUmKpr/Dpy2PAhG2P14IzmT25P2Gg+pqJJZCu0uI+xTBbP2PfjOpm2SwQWxpFZVdV3YAwM47H37dtI1OJTSaXsO5O0uD00BzAXd1OqfXOcmqkZVBVAsQG3zceoxghcgjn89I0tQ28jLqoJyG5zz3yOTqJl80GDI3IJAIG6MZHHH5499ObcqjbuycjkA9u3v2/LWM8raY2wspqzSpLKaYoZI5SAnhnJVsHk5xkH8jnSlbTIAxQlCCXY4IB5IADEA59TplSMhqQWm4BB455BOD+oGpyqqUV2lkCs6sc7wBu3AYABPPP/ALapurgWKHZIZKUFoyHRhl0JwV9MqfX7akleSKVp6V2jXIEbmP8AEPY/lnOdLLTmtIlhgbbHglnkBDcn0I5AH1+mt6mjgWHwol8PABxzgA+vftjOqOAVwU7pJIoYijwFm3EkJAhUH2BLA41moSY7X2BpYiowVEQYD8w2s1XKrpWP5gGNoY0YMp/hyrj7eh17PPVRRDdTNyMFlG5l/ppwabYomim2gd1aMnH351pKrsPEWTzAZCq7BT+ucD8tYdtFspvtglqleVeduxTnGR65B7/rp1T0ZkjWKncKkXCFJNxX6YHI/XWpleTZHJAQpwWI5Kj8sc6W+WpgrCJVjGPKzEDf+Y5zqtlJK9Ms3hEASrk5LsgOTrVKqT5ktM8OwjjAC5+oHP8AXW0dLJDhoJFQkYw0hAP+Z++nBkn8MZpi2RgsJQAPY8d9esouk1kgamKvLyZMnBA2gHvnjP8ArGlFNJUkBJsH0y+Q35d/z1tGWMGWRPEXhmaXyn7cHB50p8p8zMu0LEO+Dgg/mCNesvXW/wAgrnxfCkbaAAVXcB+eNJGlD42VshVTu/FwWwR7HPfT2SkdYCUmC7uCVbj8wR7abR0s0ZKowEW8MpZQpYD6gduMZ78a8vXSCUklNGgEMb7WG4ycAj04wOfXPOvZ8M3hujM4O9Su5gpHO0gg8a3pZaveVC+K6ktuVdu49iScjJ/tpxGgRgZYigc5CbRkH6DP9NeUJjMz+Ekc7VRGdwCIEOQc84b+3OtBVpFKohDqj8s4DDBPByDgfmNSqvTtJHEXR+M5cFAP8zrKqmpSRuAdOPwHcMj017Moso1aamWGeV/NHIQVLKR39sHnW9LG2x0hR+SRwwAI9sE/z0rJRRvOAJfl58cI2OU+3f8AuNbiiePmKSNGI4ZozIPb+I8/5auCoKQqYSZYyQ0RjTONnnB9M4zx+evaSKpLySiETx7cbVkAwAcZxzz+Wt5krID40YyOBtjiIB+m1jxx7HXnjGGqEIwygcgnDAHn6Aj6d9eULWMsy+JOzLyF8SRSBkdtwGMN6acKjKieaMBwd+8qv5k4/v7a8oHhWZ3SNacsSFIlGHPqMcYP30pL4SxGeV2UIACWPb6MM8D9RryheMpZyZXlkgJO07wwXP8AzKcjv662hjg3OGn3NEAW28k57blPB++l0FOVHgJER3dBJlsnnPBx+o1tBFEI2liaLYpYMhhH555xn6cagqE3qoEDZ2qQfM0cm7aGzwVYcg8+2l3pnaLPiwSYHAO4Y/I8EffS9FBF4YSmpoRH6hGZf5ZyNKZlRlULsUc5ZSSP5YzqhdbZTZQ88JaZVYeMBklVg7D3znTOopnjZP3e1l8zFyQPyUAnBx66J8wvVqsnjNwGDyqO/qBhs/2++tjTxrKZXWnhMvCtvyz/AJ40Vs5CqYroImg3T73jfwzyWTJA4/iyAR99M6y3UciyCanVjwd3Ckj6Y7/n30bi1RS/91IivzneDtx/r000kskbOEanx5SysRjH6Hn0+mmo6sBLvhJVa1vT5jnY0s3lHLpIfwj3BPp+o03ahr6SIsqqVUegIA/19tHlTaJY8CMHw87XUqwUA/xA+n27abpapac7KeOMkHDHOQwHuP8App+OrBSr4CgBS8u7ftC5GSvOD+mdJFGWTarTlWz3VWx9fcj8zoyudnQkN4JRyOC0R2Zz74zqNqLUdrb5jF6gEYXH89NNmYeaAY3BQSxomBJ4qEA87Mg/mP8AprJNjIMNG+DwynBH8/76dilqzK0RhYqoysqEFfp7HTV6aaBkkffFk4IlwSPpnvj8zooIOyGTZewTyx43xZU+qtjj6Z4P66fqlJIcCQxk8gMNp/Xt/wC+kGhdUyVCg4OVJAH+WnFNKpDRyrlD74I/Uak3UAgpI0RUldpyTwQP8u+k9kq5SJi2O6gZP2wdP2iiUH9w5X02Hj+f9jr1jDKvhyMWYDlX8rj7E8/11S6uo2J0UHCNF6Ex5Uj7qeP00oIaad/3csUchbJDRDDfdT/UHTlUQeVyZdpwpYYYD2+ukqhQsgMUZdM8+GwVx9Npxn8tTovXKxKSWOEBzG3f/huy/oDu174ZPlenYpjuVV1zn6f5DSyuCndlHqHUg5/PGk54k/H4ZjKjdu5XH1Bx/fXlFwm22BSN6GMAnBXzjP8AUa2WFdpKMjLnIxyB9gdJZaKfxN7BG/CDgY/X/rpf5fxUz6+ufKSffI4/kNRqrAhayReLFskaMqcYUjI49s8jSfy7RrvSPC4xhZCOP0OlWiq4kaMB3XHlZ3yDn6/9dYrNAjFkAcccNnP89ezL1l4kyNFskhmCAn+HcM/ca3E0MKsI3j54bB8x+hzjOkqmqYQnl6Rh2kMeFB++mddPWwReNGIqqMA7v3X88g6kFVLe5SBbZhUkkRP4tysqn7Mp4/QakA9ItOVTZudSo3NkH250OUtwiRUeCnmUbc/uJBGR7gqRg/y1I0lXRtE7+JWKQdxR0VM59eCVOiBUc0JYzRSDEckbvHgSRCQ5BH0P9tL7hlHV0JZjg7st29QO41F16Us/hlqgMSPKDCoPHbnJzz9dOI/CJ3tLsIbB2ooCn34JB/lozShlq2PiR48Rw8avwpJO04xx6aj6+eNFARw3/NnjGf00vVCNJXjlmZ158qMBnPA4J/XSElLSxMsi0koYEEZnBBHr29v1+mvPlCs2MpS2QmVBIyq6EDI8ykD39j/LTq51SSMKbZuVWBwQxyfQH/R00luK0yKtDEiMzYyXyo/LHf66as0zShmRtz7j5yO+McY/sNJOdcplrbKR+YVYQuSH2coG4AzjjH563gkllfcW4IHIPHOf0wMaj4llllwSQAACFXg9/wBM++nVMkMSjbhlIzgjGPT+2hkhEDVJUtQoqtscjqzZAAUk44/9tGKBamBHXMat5gIiAGwRkn3P0IzzxoDYZkVmLFkHPbgn64Pr9NFNqq1kjjESl5Bk4VuTwOe+0nIHbB1QleIUjFjK7AwGDuUgHyn25+h15M7xsj7JVccnLbht9zj+udJ+NuyFmmJ/DgNwv6d8fXSjVBDKpJG1Rypx/wCbHqSDnVeatsvC8LkvItIzMckvIATrNaiISO7ho8FjgO4B+nYazUlRon6vzmeJUbH4kOk2eMsoczU5cnkYYP8AYjn9dZrNYO62FrU0skcWYZEOTu3MmSxHrn0OvIozIgBCzN6kgDP3GMazWahSEoq06nLK8D5/EDkE/lrZaS4GEVVNUReXks64OM9uP751ms15SlqOorWjYVVJC5Xs6tyc9vYaWjWOqXw0jVCp83mOQfpxg6zWanYKt08W2IwAVJBuJYusxAPvkf5aYVCOhllinh+aeI+E+1jtAJGMHj0J7/rrNZqqlKU09VOsfzEYHo+xz3xjGc5A+2tpXpmXCvLEG43BQw59Dnn+us1mvLxSQjV1XbIjRBsDy+v09vXSdbHHkJCqPLgEBkHI++NZrNeCi68mglTEs5wdu1FGCF17EJ3p6cLJGIyMoEyBj9PvwdZrNRdTZLxyzCV5GLBR2KkEEduxGRzrKetSpV2jRZGRsAsNp7/Y599ZrNeuosnLiGUhUWSLYCysr8H3yNIR0yT4mjrJ2IfugwQPbnWazU3UFLTCQVSOrRgsNpYryR2xnGcaUb501KTQu4hc7TyuN30yMjWazUEr1kvBNVKgdvCJYd3Hf2PA+/przxRAzOyoyyEBdrEsx9uw/wAtZrNVvdeOiXgljMCSfvtpYgNwTn8z/nreeWOOWOF5QrZLKFB5x+Ws1mqFTdKI8W4SPIsgXALupJHrx+ulPlIypfbGZCANzAn68jjOs1mq81K8almWbJA3uPM4cgYHpt7d9J/KREAvIx3E4zg5PqOQePprNZojHFUc0JnLaoE8iLBn0VUI5PrkEaiLvbGkhMaQ7GY7S6spGD7hsn099ZrNNxyOQHsCjZ7W4jSRF3R/gLlsYJ+nPGmlZaEeIxzxblIO3cAQf0I/prNZrQikclHsChv2PHRArAFAPmCZOMH+n200ngmhlO1YxwCVxk/kRjWazTscjjzSr42pSCpVJDHPHgj+IfXSrIsz7REC2MgHhmH37frrNZot1S1kym8XzkxbUVsBkIBX7jsdLQSlvKf3qjgk8cfY6zWai6vuEs0SJl8uikZyp7D8sa1gi8rCKsYhxyrAkc/y1ms15VSaUKJ5hBH5jyUJXce3IHH8tJhIkcxqWhdeCH838xrNZqbqBqtTK8B/eoQmDhkPlP5f9Nbq4YHbyDyQw1ms1Yar2y1Qo26NRKhUjyKQV78cHjTWpiX5pYISvzDc42+Gw+xGVP56zWanKFIJukTRFmeQVGxh+MGPnP1wcfprakgaWJXbd4fYsoAyf1BHp76zWai5VrJx+zcqz004DHurrgfy0jT0SvIUVI2YNhu4BwTz9xnWazXsxXg0Jf5AyVD7WiMnh5XIODx200kt1SsB3DY2RjBB+mTjvrNZoDnlFY0JlU0UtJMgLRskrbScc515CtUVdfBBVTlQSCP+ms1mh5yQihoCeK8iB3liBAxuHGR/r76RheZ5NmHzkjB2+vqP9A6zWagG6k6J5QhzNhiAu0kZAbt9DqXpaiQxiFOGiG4kADv6Aeg1ms1KoU9gqPEfzvKTzglicDnIx99PYJI5h4oUHD47YIz7fprNZql14hFfS8XTRopf220qVHjHaI48+TavfA753azWazXQ07WGJt2jZZcrXZzZx9V//9k=;" vertex="1" parent="7">
                    <mxGeometry x="630" y="142.5" width="320" height="240" as="geometry"/>
                </mxCell>
            </root>
        </mxGraphModel>
    </diagram>
</mxfile>